<svg preserveAspectRatio="none" width="100%" height="100%" overflow="visible" style="display: block;" viewBox="0 0 34 69" fill="none" xmlns="http://www.w3.org/2000/svg">
<g id="Group">
<g id="Group_2">
<path id="Vector" d="M0.0002133 65.4832C0.0002133 65.4832 0.00958912 65.4676 0.0220935 65.4394C0.0345979 65.4113 0.0502313 65.3707 0.0689879 65.3206C0.106501 65.2206 0.153393 65.0893 0.206537 64.9518C0.303446 64.6798 0.406608 64.3953 0.422239 64.3453C0.559787 64.0077 0.694206 63.6919 0.844259 63.4012C0.919285 63.2543 0.997439 63.1167 1.08497 62.9823C1.16937 62.8448 1.26316 62.7166 1.36319 62.5916C1.58202 62.3196 1.80397 62.0726 2.0228 61.8132C2.24163 61.5568 2.46045 61.3099 2.67928 61.0723C2.96063 60.7503 3.24823 60.4564 3.53583 60.1657C3.67963 60.0188 3.8203 59.875 3.9641 59.7343C4.10791 59.5968 4.25171 59.4561 4.39238 59.3154C4.55181 59.156 4.95821 58.759 5.34584 58.3526C5.44588 58.2525 5.54279 58.1556 5.63657 58.0618C5.73035 57.9649 5.82101 57.8743 5.90229 57.7899C6.06797 57.6242 6.20552 57.4991 6.29618 57.4397C6.45248 57.7242 6.42122 58.2807 6.41809 58.5776C6.41809 58.9778 6.38058 59.3748 6.31493 59.7593C6.11486 60.9691 5.71785 62.1914 5.05199 63.2199C4.73 63.7357 4.33299 64.2265 3.87033 64.6423C3.63899 64.8486 3.3889 65.0237 3.12631 65.1706C2.86372 65.3206 2.5855 65.43 2.2979 65.4926C2.17285 65.5207 2.04781 65.5457 1.92276 65.5676C1.61015 65.6332 1.28504 65.6458 0.963052 65.6395C0.800495 65.6332 0.641062 65.6239 0.48163 65.5989C0.319073 65.5707 0.159643 65.5332 0.00333768 65.4863L0.0002133 65.4832Z" fill="var(--fill-0, #1B1C1A)"/>
<path id="Vector_2" d="M4.28295 66.5992C4.28295 66.5992 4.29858 66.6086 4.32359 66.6273C4.3486 66.6461 4.38298 66.6742 4.42362 66.7086C4.5049 66.7743 4.61744 66.8618 4.72998 66.9525C4.95819 67.1338 5.1989 67.3213 5.24266 67.3495C5.55215 67.5558 5.85851 67.7465 6.17112 67.8934C6.48685 68.0403 6.81196 68.1529 7.17147 68.2185C7.56223 68.2936 7.95299 68.3373 8.34688 68.3748C8.54383 68.3936 8.74389 68.4092 8.94396 68.4186C9.14403 68.428 9.34097 68.4311 9.54104 68.4311C9.80051 68.4311 10.0631 68.428 10.3226 68.4155C10.5852 68.403 10.8415 68.3748 11.1041 68.3498C11.3636 68.3217 11.6293 68.2904 11.8887 68.2498C12.1482 68.206 12.4077 68.1591 12.6703 68.1091C12.8172 68.0779 13.0829 68.0341 13.3986 67.9591C13.7144 67.884 14.0895 67.7934 14.4678 67.6965C14.8429 67.5964 15.2118 67.4808 15.5244 67.3776C15.6807 67.3245 15.8245 67.2776 15.9433 67.2307C16.0621 67.1838 16.159 67.14 16.2278 67.1025C16.0715 66.8305 15.4869 66.6461 15.1993 66.5148C14.8085 66.3429 14.4053 66.2022 14.002 66.0772C13.6863 65.9802 13.3643 65.8833 13.0392 65.7896C12.714 65.6989 12.3889 65.6145 12.0669 65.5395C11.7449 65.4676 11.4136 65.3863 11.0885 65.3269C10.7634 65.2644 10.4414 65.2175 10.1162 65.1737C8.8408 65.0112 7.46844 64.908 6.34305 65.3738C6.22113 65.4238 6.09921 65.4738 5.97729 65.527C5.37396 65.7958 4.78625 66.124 4.27982 66.5961L4.28295 66.5992Z" fill="var(--fill-0, #1B1C1A)"/>
<path id="Vector_3" d="M9.06847 62.4946C9.06847 62.4946 9.07159 62.479 9.07784 62.4477C9.08097 62.4196 9.08722 62.3758 9.09347 62.3258C9.10285 62.2258 9.11848 62.0914 9.13098 61.9507C9.15599 61.6756 9.181 61.3911 9.18725 61.3411C9.29354 60.6627 9.38733 60.0406 9.66242 59.4842C9.95002 58.8652 10.2533 58.2869 10.5534 57.7117C10.6503 57.5273 10.7534 57.3491 10.8535 57.1678C10.9535 56.9864 11.0535 56.8083 11.1567 56.6332C11.3661 56.2893 11.5662 55.9361 11.7757 55.6016C11.8976 55.4171 12.1758 54.9107 12.4634 54.4355C12.7354 53.9385 13.0199 53.4727 13.1512 53.3039C13.3637 53.5133 13.47 54.0448 13.5325 54.3136C13.6232 54.6794 13.6763 55.0483 13.7076 55.4203C13.8076 56.5957 13.7076 57.8117 13.3325 58.959C12.9573 60.0656 12.3071 61.2567 11.263 61.8319C11.1536 61.8975 11.0348 61.9507 10.9222 62.007C10.6346 62.1476 10.3377 62.2695 10.0251 62.354C9.71244 62.4352 9.39045 62.4852 9.06847 62.4946Z" fill="var(--fill-0, #1B1C1A)"/>
<path id="Vector_4" d="M13.42 62.2508C13.42 62.2508 13.4357 62.254 13.4638 62.2633C13.4919 62.2727 13.5294 62.2883 13.5795 62.3071C13.6732 62.3446 13.8014 62.3915 13.9327 62.4415C14.1922 62.5416 14.4704 62.6416 14.5173 62.6541C14.858 62.7479 15.1894 62.826 15.5239 62.8667C15.8584 62.9104 16.1991 62.9229 16.5493 62.8667C16.9306 62.8104 17.312 62.7447 17.6965 62.6603C18.0748 62.5697 18.4499 62.4697 18.8282 62.3571C19.319 62.2071 19.791 62.0164 20.2724 61.8163C20.7445 61.6069 21.2071 61.3724 21.6729 61.1286C21.8011 61.0567 22.0293 60.9254 22.3075 60.7691C22.5857 60.6096 22.9171 60.4189 23.236 60.2095C23.5548 60.0032 23.8768 59.7937 24.1426 59.603C24.402 59.4092 24.6115 59.2435 24.7209 59.1372C24.5114 58.934 23.9237 58.9372 23.633 58.9059C23.236 58.8715 22.8233 58.859 22.4201 58.8653C22.1012 58.8684 21.7792 58.8778 21.4604 58.8965C21.1415 58.9122 20.8133 58.9278 20.4913 58.9559C20.1693 58.9809 19.8535 59.0216 19.5347 59.0622C19.2127 59.1028 18.897 59.1497 18.5844 59.2091C18.4312 59.2373 18.278 59.2717 18.1217 59.306C17.9654 59.3373 17.8059 59.3717 17.6496 59.4092C17.337 59.4842 17.0307 59.5749 16.7274 59.678C16.4242 59.7781 16.1304 59.8937 15.8584 60.0375C15.5864 60.1813 15.3176 60.3345 15.08 60.5283C14.9768 60.6096 14.8768 60.694 14.7768 60.7816C14.2609 61.1942 13.7983 61.685 13.4232 62.2477L13.42 62.2508Z" fill="var(--fill-0, #1B1C1A)"/>
<path id="Vector_5" d="M16.9586 57.0833C16.9586 57.0833 16.9586 57.0677 16.9586 57.0396C16.9555 57.0114 16.9493 56.9739 16.943 56.9239C16.9305 56.8301 16.9118 56.7019 16.893 56.5706C16.8524 56.3112 16.8117 56.0423 16.8055 55.9954C16.7711 55.6641 16.7429 55.3483 16.7367 55.0451C16.7336 54.7419 16.7586 54.448 16.8148 54.1417C16.8805 53.8134 16.9524 53.4946 17.0243 53.1788C17.0931 52.8568 17.165 52.5442 17.2463 52.2347C17.3494 51.8346 17.4494 51.4313 17.5682 51.0468C17.6808 50.6561 17.7933 50.2684 17.9152 49.8933C17.9496 49.787 18.0028 49.5932 18.0684 49.3587C18.1028 49.2431 18.1403 49.1149 18.1778 48.9836C18.2185 48.8523 18.2591 48.7179 18.2904 48.5803C18.4342 48.027 18.5905 47.4956 18.6874 47.3018C18.9312 47.4362 19.1344 47.8926 19.2563 48.1239C19.422 48.4397 19.5533 48.7679 19.6658 49.1086C19.7534 49.3744 19.8378 49.6526 19.9034 49.9308C19.966 50.2059 20.0191 50.4873 20.0597 50.7749C20.1473 51.3501 20.1629 51.9315 20.1191 52.5192C20.1004 52.8099 20.0597 53.1007 20.0035 53.3945C19.9441 53.6884 19.8753 53.9885 19.7753 54.273C19.5689 54.8388 19.2845 55.3858 18.8593 55.8016C18.7687 55.8923 18.678 55.9829 18.5842 56.0705C18.1122 56.5019 17.5714 56.877 16.9555 57.0802L16.9586 57.0833Z" fill="var(--fill-0, #1B1C1A)"/>
<path id="Vector_6" d="M20.9669 55.536C20.9669 55.536 20.9825 55.536 21.0107 55.536C21.0388 55.536 21.0794 55.5359 21.1263 55.5422C21.2232 55.5485 21.3514 55.5547 21.4858 55.561C21.7484 55.5703 22.0235 55.5766 22.0735 55.5735C22.7519 55.5391 23.3771 55.4672 23.9992 55.1608C24.6838 54.8357 25.3309 54.4418 25.9749 54.0104C26.3782 53.7197 26.7721 53.4039 27.1597 53.0757C27.3504 52.91 27.5505 52.7443 27.7318 52.5662C27.9131 52.388 28.0944 52.2067 28.2726 52.0222C28.3726 51.9191 28.5539 51.7315 28.7728 51.5033C28.8822 51.3876 29.0041 51.2657 29.1229 51.1313C29.2386 50.9937 29.3605 50.8531 29.4824 50.7093C29.9607 50.1341 30.4452 49.5463 30.5765 49.2744C30.3389 49.1462 29.82 49.3275 29.5387 49.3807C29.1635 49.4619 28.7915 49.5745 28.4258 49.6995C27.2879 50.1059 26.0906 50.5655 25.0215 51.1719C24.4744 51.4595 23.9211 51.7846 23.4271 52.1629C23.1771 52.3505 22.927 52.5443 22.7081 52.76C22.5987 52.8663 22.4924 52.9788 22.3924 53.0945C22.2892 53.207 22.1923 53.3258 22.1048 53.4508C22.0266 53.5571 21.9547 53.6665 21.8797 53.776C21.6984 54.0511 21.5202 54.3293 21.3639 54.6231C21.2076 54.917 21.0826 55.2296 20.9732 55.5422L20.9669 55.536Z" fill="var(--fill-0, #1B1C1A)"/>
<path id="Vector_7" d="M23.0396 49.6714C23.0396 49.6714 23.0364 49.6558 23.0271 49.6308C23.0177 49.6057 23.002 49.5714 22.9864 49.5276C22.952 49.4432 22.9051 49.3275 22.8551 49.2119C22.7582 48.9805 22.6551 48.7429 22.6394 48.6992C22.4237 48.099 22.2737 47.5738 22.2362 46.9611C22.2018 46.3015 22.2174 45.67 22.1986 45.0291C22.1924 44.6134 22.2174 44.2132 22.2299 43.8068C22.2361 43.4004 22.2549 42.9972 22.2799 42.6033C22.283 42.547 22.2893 42.472 22.2955 42.3782C22.2955 42.2844 22.2987 42.1719 22.3018 42.05C22.3049 41.8061 22.3143 41.5216 22.3237 41.2403C22.3299 41.0996 22.3362 40.959 22.3424 40.8245C22.3424 40.687 22.3424 40.5557 22.3456 40.4369C22.3518 40.1993 22.3612 40.0055 22.3831 39.8961C22.6332 39.9492 22.927 40.3275 23.0896 40.515C23.3115 40.7651 23.5179 41.0465 23.6929 41.3341C23.9649 41.7874 24.215 42.275 24.4244 42.7971C24.4776 42.9284 24.5276 43.0597 24.5745 43.1941C24.6151 43.3254 24.6557 43.4598 24.6933 43.5943C24.7652 43.8662 24.8277 44.1445 24.8746 44.4289C24.8996 44.5696 24.9183 44.7103 24.9371 44.8572C24.9559 45.0041 24.9715 45.1511 24.9746 45.2949C24.9871 45.5887 24.984 45.8888 24.959 46.1889C24.9308 46.4859 24.8965 46.7923 24.8121 47.0767C24.7276 47.3612 24.6182 47.6394 24.4776 47.902C24.4182 48.0146 24.3525 48.1271 24.29 48.2365C24.1368 48.5179 23.9367 48.7742 23.7273 49.018C23.5147 49.2587 23.2865 49.4838 23.0333 49.6776L23.0396 49.6714Z" fill="var(--fill-0, #1B1C1A)"/>
<path id="Vector_8" d="M26.337 47.0079C26.337 47.0079 26.3964 46.986 26.4839 46.961C26.5715 46.936 26.6903 46.9016 26.8122 46.8672C27.0529 46.7985 27.3061 46.7234 27.3499 46.7078C27.6531 46.5921 27.9501 46.4733 28.2189 46.3202C28.4878 46.167 28.7441 45.9825 28.9911 45.7481C29.2568 45.4917 29.5225 45.2292 29.7757 44.9509C30.0196 44.6696 30.2571 44.3789 30.4885 44.0787C30.6385 43.8849 30.7855 43.6849 30.9324 43.4817C31.0731 43.2753 31.2012 43.0659 31.3294 42.8502C31.4576 42.6376 31.5857 42.4188 31.7108 42.2C31.8327 41.978 31.964 41.7592 32.0703 41.531C32.1953 41.2746 32.5142 40.6182 32.8205 39.9398C33.0988 39.2583 33.3582 38.5581 33.427 38.2673C33.1863 38.2142 32.758 38.5331 32.5298 38.6675C32.2203 38.8519 31.9234 39.0676 31.6358 39.2927C31.1887 39.6491 30.7042 40.0211 30.2603 40.4212C30.0352 40.6213 29.8164 40.8245 29.6038 41.0371C29.3881 41.2465 29.1661 41.4591 28.9567 41.681C28.544 42.1156 28.1502 42.5939 27.7657 43.094C27.3936 43.5942 27.0998 44.135 26.881 44.704C26.8372 44.829 26.7966 44.9509 26.7528 45.076C26.5558 45.7043 26.3777 46.3452 26.3402 47.011L26.337 47.0079Z" fill="var(--fill-0, #1B1C1A)"/>
<path id="Vector_9" d="M26.8377 40.8464C26.8377 40.8464 26.8065 40.7964 26.7596 40.7245C26.7096 40.6557 26.6439 40.5619 26.5752 40.465C26.4407 40.2743 26.2844 40.0774 26.2625 40.0399C25.9249 39.5303 25.6436 39.0677 25.4904 38.4987C25.3966 38.1892 25.306 37.8797 25.2247 37.5703C25.1403 37.2608 25.0746 36.9575 24.9933 36.6512C24.8871 36.2542 24.7964 35.8572 24.7183 35.4633C24.6839 35.2663 24.637 35.0694 24.5901 34.8724C24.5463 34.6755 24.5057 34.4786 24.465 34.2816C24.4432 34.1722 24.4056 33.9752 24.3588 33.7377C24.3025 33.5001 24.2368 33.2187 24.1712 32.9405C24.1087 32.6592 24.0493 32.3809 23.9992 32.1527C23.943 31.9183 23.8992 31.7245 23.8898 31.615C24.1212 31.5963 24.4744 31.8839 24.6682 32.0183C24.934 32.1996 25.1653 32.4122 25.3904 32.6435C25.7436 33.0062 26.0906 33.4094 26.4063 33.8502C26.7033 34.291 26.9753 34.7724 27.2066 35.2913L27.291 35.4852C27.316 35.5508 27.341 35.6165 27.3629 35.6821C27.4098 35.8165 27.4567 35.9509 27.4973 36.0916C27.5818 36.3698 27.6568 36.6574 27.7131 36.9513C27.7756 37.2451 27.7881 37.5421 27.7912 37.8422C27.7912 38.1392 27.7631 38.4393 27.7068 38.73C27.6849 38.8551 27.6505 38.9801 27.6161 39.1052C27.5317 39.4147 27.4286 39.721 27.3035 40.0149C27.241 40.1618 27.1722 40.3056 27.1003 40.4463C27.0222 40.5838 26.9315 40.7182 26.8409 40.8464H26.8377Z" fill="var(--fill-0, #1B1C1A)"/>
<path id="Vector_10" d="M29.1324 37.342C29.1324 37.342 29.1793 37.3045 29.248 37.2576C29.3199 37.2076 29.4137 37.142 29.5106 37.0732C29.7044 36.9388 29.9076 36.7918 29.942 36.7637C30.1796 36.5636 30.4016 36.3667 30.6079 36.1416C30.7079 36.0291 30.8111 35.9134 30.8986 35.7852C30.9861 35.6571 31.0674 35.5226 31.1456 35.3757C31.4769 34.738 31.7989 34.0659 32.0334 33.3656C32.1147 33.1374 32.1897 32.9061 32.2616 32.6716C32.3335 32.4372 32.4054 32.2027 32.4585 31.962C32.5711 31.4837 32.6711 30.996 32.7618 30.5052C32.8118 30.2301 32.9056 29.5174 32.9931 28.7921C33.0431 28.4295 33.0525 28.0669 33.0713 27.7574C33.0838 27.4479 33.09 27.1916 33.0806 27.0447C32.8587 27.0572 32.5711 27.4729 32.4085 27.6605C32.1897 27.9168 31.9896 28.2013 31.8021 28.4952C31.1675 29.4205 30.5954 30.4271 30.0827 31.5056C29.9608 31.7713 29.8482 32.0464 29.7295 32.3278C29.6075 32.6091 29.495 32.8967 29.3981 33.1906C29.2981 33.4813 29.2293 33.7814 29.1605 34.0784C29.0886 34.3785 29.0417 34.6786 29.0261 34.9818C29.0198 35.1131 29.0167 35.2444 29.0104 35.3757C29.0104 35.7039 28.9854 36.0353 29.0042 36.3636C29.0198 36.6918 29.0573 37.02 29.1261 37.342H29.1324Z" fill="var(--fill-0, #1B1C1A)"/>
<path id="Vector_11" d="M28.0194 31.2961C28.0194 31.2961 27.9788 31.2555 27.9194 31.2024C27.8568 31.1492 27.7756 31.0773 27.6911 31.0023C27.5223 30.8554 27.3473 30.7084 27.316 30.6803C26.894 30.2802 26.5189 29.9113 26.2375 29.3986C26.0906 29.1204 25.9218 28.8453 25.7686 28.5702C25.6154 28.2951 25.4685 28.0169 25.3278 27.7386C25.134 27.3791 24.9433 27.0165 24.7683 26.6539C24.6776 26.4726 24.6026 26.2881 24.5057 26.1068C24.415 25.9255 24.3243 25.7442 24.2337 25.5629C24.1305 25.3597 23.8929 24.8376 23.6147 24.3312C23.4803 24.0749 23.3521 23.8216 23.249 23.6028C23.1427 23.384 23.0458 23.2089 23.0051 23.1026C23.2021 23.0276 23.5897 23.2183 23.796 23.3027C24.068 23.4153 24.3275 23.5653 24.5901 23.731C24.7964 23.8623 24.9996 24.003 25.2059 24.1561C25.4091 24.3093 25.6154 24.4687 25.803 24.6469C26.1812 24.9971 26.5533 25.3941 26.894 25.8349C27.2066 26.2725 27.5223 26.7664 27.7787 27.3041C28.0069 27.8449 28.1882 28.4264 28.2351 29.0203C28.2382 29.1485 28.2445 29.2767 28.2476 29.4049C28.257 29.7268 28.2476 30.0488 28.2163 30.3677C28.2038 30.5271 28.1757 30.6834 28.1413 30.8397C28.1069 30.996 28.0663 31.1492 28.0194 31.2961Z" fill="var(--fill-0, #1B1C1A)"/>
<path id="Vector_12" d="M29.1042 27.301C29.1042 27.301 29.1355 27.2541 29.1855 27.1885C29.2386 27.1228 29.3012 27.0322 29.3668 26.9415C29.4981 26.7602 29.6356 26.5695 29.6575 26.532C29.8107 26.2788 29.9482 26.0318 30.067 25.763C30.1796 25.4972 30.289 25.2096 30.3359 24.8908C30.3922 24.5438 30.439 24.1905 30.4797 23.831C30.4984 23.6528 30.5172 23.4715 30.5328 23.2902C30.5453 23.1089 30.5485 22.9276 30.5547 22.7463C30.5641 22.2742 30.561 21.7897 30.5391 21.3051C30.4984 20.8237 30.4484 20.3361 30.3859 19.8484C30.364 19.5702 30.2359 18.873 30.1014 18.1697C30.067 17.9915 30.0295 17.8164 29.9983 17.6476C29.9608 17.4788 29.917 17.3194 29.8764 17.1724C29.7982 16.8755 29.7263 16.6347 29.6732 16.4972C29.4825 16.5628 29.3543 17.0224 29.2699 17.2381C29.1542 17.5351 29.0729 17.8477 28.9792 18.1728C28.8354 18.6886 28.7103 19.2232 28.6072 19.7671C28.554 20.0547 28.504 20.3329 28.4571 20.6018C28.4102 20.8831 28.3696 21.1707 28.3414 21.4583C28.2945 22.021 28.2133 22.6337 28.2164 23.2402C28.2258 23.8467 28.2383 24.4656 28.3821 25.0565C28.4133 25.1846 28.4446 25.3097 28.479 25.4378C28.5509 25.7567 28.629 26.0787 28.7353 26.3882C28.8354 26.7008 28.9698 27.004 29.1011 27.2947L29.1042 27.301Z" fill="var(--fill-0, #1B1C1A)"/>
<path id="Vector_13" d="M26.4995 21.7678C26.4995 21.7678 26.4527 21.7397 26.3839 21.7022C26.3151 21.6647 26.2244 21.6178 26.1275 21.5678C25.94 21.4677 25.743 21.3677 25.7118 21.3489C25.4804 21.2051 25.2522 21.0676 25.0365 20.9144C24.8208 20.7612 24.6145 20.5862 24.4176 20.3736C24.3113 20.2579 24.205 20.1422 24.1018 20.0266C23.9987 19.9109 23.883 19.7984 23.7767 19.6827C23.561 19.4545 23.3516 19.2201 23.1484 18.9856C23.0827 18.9074 23.0171 18.8324 22.9514 18.7543C22.8827 18.6792 22.8139 18.6011 22.7451 18.5261C22.6107 18.3729 22.4763 18.2197 22.345 18.0665C22.2137 17.9133 22.0855 17.757 21.9605 17.5976C21.8323 17.4413 21.6916 17.2912 21.5634 17.1381C21.4884 17.0505 21.3571 16.8974 21.1977 16.7098C21.1195 16.616 21.032 16.5128 20.9413 16.4066C20.8507 16.3003 20.7475 16.1971 20.6537 16.0877C20.4568 15.872 20.2661 15.6594 20.1067 15.4719C20.0285 15.3781 19.9566 15.2937 19.8972 15.2186C19.8347 15.1467 19.7816 15.0873 19.7472 15.0405C19.8972 14.9248 20.2974 15.0217 20.4912 15.0623C20.7632 15.1124 21.0383 15.1968 21.3165 15.2968C21.5353 15.3749 21.7604 15.4656 21.9855 15.5625C22.2137 15.6594 22.4231 15.7782 22.6451 15.9001C22.8639 16.0252 23.0827 16.1596 23.3047 16.3065C23.5235 16.4535 23.7455 16.6098 23.9455 16.7879C24.1487 16.9599 24.3519 17.1474 24.5582 17.3444C24.6614 17.4444 24.7614 17.5476 24.8615 17.6539C24.9115 17.7101 24.9615 17.7633 25.0084 17.8164C25.0553 17.8758 25.0991 17.9321 25.1459 17.9884C25.3241 18.2197 25.4961 18.4635 25.6492 18.7199C25.8024 18.9762 25.9431 19.2419 26.0369 19.5233C26.0775 19.6452 26.1182 19.7671 26.1588 19.889C26.2588 20.1954 26.3464 20.5049 26.412 20.8175C26.462 21.1332 26.4933 21.4521 26.4964 21.7616L26.4995 21.7678Z" fill="var(--fill-0, #1B1C1A)"/>
<path id="Vector_14" d="M26.3032 17.682C26.3032 17.682 26.3157 17.6289 26.3407 17.5538C26.3657 17.4788 26.397 17.3788 26.4314 17.2756C26.5001 17.0693 26.5564 16.8567 26.5658 16.8161C26.6815 16.2659 26.7533 15.7438 26.6752 15.103C26.6189 14.7622 26.5533 14.4184 26.4814 14.0745C26.4439 13.9026 26.4064 13.7275 26.3657 13.5524C26.3251 13.3774 26.2844 13.2023 26.2282 13.0335C26.0937 12.5896 25.9406 12.1394 25.7749 11.6893C25.6967 11.4611 25.5967 11.2454 25.4998 11.0234C25.3998 10.8015 25.2997 10.5826 25.1997 10.3638C25.1403 10.2388 25.0371 10.0168 24.9121 9.74797C24.7745 9.48538 24.6089 9.1759 24.4369 8.86641C24.265 8.55693 24.0962 8.24432 23.9367 7.98798C23.7742 7.73477 23.6335 7.52844 23.546 7.4159C23.399 7.51906 23.4334 7.9661 23.4272 8.1818C23.4272 8.47565 23.4334 8.79451 23.4584 9.1165C23.496 9.62293 23.5522 10.145 23.6335 10.6764C23.6992 11.2172 23.7898 11.7706 23.918 12.3208C23.9868 12.5896 24.0368 12.8803 24.1055 13.1648C24.1743 13.4524 24.2525 13.7431 24.3463 14.0276C24.4432 14.3121 24.5307 14.6059 24.6432 14.8873C24.7558 15.1718 24.8839 15.4469 25.034 15.7094L25.134 15.8783L25.2247 16.0533C25.3779 16.3409 25.5467 16.6254 25.728 16.8974C25.8186 17.0318 25.9156 17.1662 26.0125 17.2944C26.1094 17.4257 26.2032 17.5538 26.3032 17.6789V17.682Z" fill="var(--fill-0, #1B1C1A)"/>
<path id="Vector_15" d="M22.3895 13.021C22.3895 13.021 22.3395 13.0053 22.2676 12.9835C22.1957 12.9647 22.0988 12.9397 22.0018 12.9116C21.8049 12.8615 21.6048 12.8084 21.5673 12.7959C21.3172 12.7146 21.0859 12.6271 20.8483 12.5271C20.6076 12.4301 20.3731 12.3114 20.1324 12.155C19.8698 11.9862 19.6198 11.808 19.3603 11.6361C19.0946 11.4673 18.8351 11.2954 18.5788 11.1172C18.4131 11.0015 18.2474 10.8858 18.0848 10.7639C17.9129 10.6451 17.7472 10.5326 17.5815 10.4169C17.2439 10.1856 16.9251 9.93864 16.5906 9.70418C16.3999 9.57601 15.9122 9.24777 15.4402 8.91016C14.9494 8.59129 14.4586 8.27556 14.2804 8.1255C14.3773 7.99108 14.7618 8.00984 14.9525 8.00359C15.212 7.99421 15.4902 8.01609 15.7747 8.05048C15.8872 8.06298 15.9997 8.07861 16.1154 8.09737C16.2279 8.11925 16.3405 8.14113 16.453 8.16614C16.6812 8.21616 16.9126 8.27556 17.1501 8.34433C17.3877 8.41311 17.6284 8.49126 17.8723 8.57879C18.113 8.67257 18.3474 8.78198 18.5881 8.90078C19.0571 9.13523 19.5697 9.40408 20.0293 9.76671C20.4951 10.12 20.9515 10.5201 21.2953 11.0109C21.3704 11.1141 21.4454 11.2203 21.5204 11.3266C21.9018 11.8456 22.1925 12.4333 22.3926 13.0147L22.3895 13.021Z" fill="var(--fill-0, #1B1C1A)"/>
<path id="Vector_16" d="M20.9451 9.23841C20.9451 9.23841 20.9388 9.18839 20.9388 9.11337C20.9388 9.03834 20.9326 8.93831 20.9295 8.83515C20.9232 8.63195 20.9138 8.41625 20.9107 8.37561C20.8419 7.83792 20.7325 7.35025 20.4574 6.7813C20.3824 6.62812 20.3074 6.47181 20.2261 6.32176C20.1386 6.17171 20.051 6.02166 19.9666 5.87473C19.7884 5.57775 19.604 5.27764 19.4102 4.98067C19.3477 4.88376 19.2851 4.78685 19.2164 4.69306C19.1476 4.59928 19.0757 4.50862 19.0069 4.41484C18.8662 4.2304 18.7224 4.04596 18.5755 3.86152C18.4286 3.67708 18.2785 3.49264 18.1254 3.31133C17.9722 3.12689 17.8065 2.96121 17.6439 2.78614C17.5502 2.68923 17.3845 2.51417 17.1844 2.3016C16.9781 2.09215 16.7467 1.83268 16.4873 1.60135C15.9777 1.12931 15.4557 0.663523 15.2275 0.491587C15.1274 0.610379 15.2962 1.00739 15.3556 1.20434C15.44 1.47318 15.5557 1.74828 15.6807 2.0265C15.7808 2.24533 15.8871 2.46728 15.9965 2.69236C16.1028 2.92369 16.2153 3.15815 16.3341 3.39261C16.4529 3.62706 16.5779 3.86152 16.7092 4.09598C16.7749 4.21477 16.8437 4.33044 16.9124 4.44923C16.9843 4.56489 17.0469 4.69306 17.1188 4.81186C17.2563 5.04944 17.4032 5.2964 17.5595 5.54024C17.6377 5.66215 17.719 5.78407 17.8002 5.90599C17.8846 6.02791 17.969 6.14983 18.0503 6.27487C18.2191 6.52496 18.3973 6.76879 18.588 7.00325C18.6849 7.11892 18.7818 7.23458 18.885 7.34712C18.935 7.40339 18.9882 7.45654 19.0413 7.51281L19.1976 7.67849C19.2883 7.77227 19.3789 7.86605 19.4727 7.95984C19.704 8.19117 19.9447 8.41625 20.1948 8.62882C20.4449 8.83827 20.6825 9.05397 20.9451 9.23529V9.23841Z" fill="var(--fill-0, #1B1C1A)"/>
</g>
<path id="Vector_17" d="M15.6957 5.52148C13.9482 4.96191 12.5008 3.90216 10.944 2.99872C9.37781 2.12341 7.76162 1.26373 6.37988 0.00391536C7.34585 -0.0273456 8.27118 0.132085 9.1965 0.357165C10.2125 0.619757 11.2253 0.988636 12.1632 1.52945C13.6762 2.46416 14.9829 3.88028 15.6925 5.52148H15.6957Z" fill="var(--fill-0, #1B1C1A)"/>
</g>
</svg>
