<svg preserveAspectRatio="none" width="100%" height="100%" overflow="visible" style="display: block;" viewBox="0 0 176 24" fill="none" xmlns="http://www.w3.org/2000/svg">
<g id="Group">
<path id="Vector" d="M14.6176 14.2619H14.5849L14.4541 13.8041C14.1925 12.9334 13.7306 12.2998 13.0766 11.9074C12.4184 11.515 11.5028 11.3188 10.3174 11.3188H6.246V22.1103H11.6908C13.003 22.1103 14.1189 21.8119 15.0386 21.211C15.9584 20.6101 16.7677 19.6577 17.4667 18.3496L17.9573 17.4667H18.2189C18.0881 18.2515 17.9409 19.114 17.7774 20.0501C17.6139 20.9862 17.4667 21.8364 17.3359 22.6008H17.3032L17.2378 23.0586H0V22.6662L0.392419 22.6335C1.17726 22.5886 1.74545 22.3596 2.0929 21.9468C2.44036 21.5339 2.61613 20.8799 2.61613 19.9847V3.33957C2.61613 2.44436 2.44036 1.79034 2.0929 1.37748C1.74545 0.964622 1.17726 0.735701 0.392419 0.690737L0 0.658041V0.265625H17.2337V5.8576H16.9721L16.6778 4.97465C16.2404 3.66659 15.6109 2.71415 14.7934 2.11326C13.9718 1.51237 12.909 1.21396 11.5968 1.21396H6.28279V10.4685H10.3541C11.5355 10.4685 12.447 10.2927 13.097 9.94529C13.7428 9.59784 14.2088 9.02965 14.4909 8.24481L14.6217 7.85239H14.916V14.2619H14.6217H14.6176Z" fill="var(--fill-0, #BF9C81)"/>
<path id="Vector_2" d="M42.6105 16.9117L42.6432 16.9444C42.729 16.9648 42.8067 16.9894 42.8721 17.0098C43.0233 17.0957 43.101 17.1611 43.101 17.206C42.9702 18.0358 42.819 18.9351 42.6432 19.9039C42.4674 20.8727 42.3162 21.772 42.1854 22.6018L42.12 23.0596H24.8535V22.6672L25.2459 22.6345C26.0308 22.5895 26.599 22.3606 26.9464 21.9478C27.2939 21.5349 27.4696 20.8809 27.4696 19.9857V3.34055C27.4696 2.44534 27.2939 1.79131 26.9464 1.37846C26.599 0.965599 26.0308 0.736678 25.2459 0.691713L24.8535 0.659017V0.266602H33.7156V0.659017L33.3232 0.691713C32.5384 0.736678 31.9702 0.965599 31.6227 1.37846C31.2753 1.79131 31.0995 2.44534 31.0995 3.34055V22.1113H36.8877C38.0854 22.1113 39.0746 21.8374 39.8472 21.2937C40.6198 20.7501 41.282 19.8753 41.8256 18.6776L42.6105 16.9117Z" fill="var(--fill-0, #BF9C81)"/>
<path id="Vector_3" d="M56.6065 23.0259L56.7046 22.5681L57.0971 22.5354C57.8165 22.4904 58.3438 22.2901 58.6831 21.9304C59.0224 21.5707 59.2104 21.0107 59.2554 20.2463L59.2227 13.2808L53.1402 3.27414C52.5965 2.37893 52.061 1.72491 51.5378 1.31205C51.0146 0.899192 50.4586 0.670284 49.87 0.62532L49.6084 0.592611V0.200195H58.7975V0.592611L58.3724 0.62532C57.5426 0.670284 57.0685 0.903271 56.9499 1.32839C56.8314 1.75351 57.0317 2.40346 57.5549 3.27414L62.4887 11.4168L67.627 3.53576C68.2156 2.55471 68.4159 1.83936 68.232 1.3938C68.048 0.948237 67.4757 0.70298 66.5151 0.658016L65.9919 0.62532V0.232891H72.8919V0.62532L72.5322 0.658016C71.8332 0.70298 71.1915 0.93598 70.6028 1.3611C70.0142 1.78622 69.4133 2.43617 68.8042 3.30685L62.8525 12.169V19.952C62.8525 20.8472 63.0283 21.5012 63.3758 21.9141C63.7232 22.3269 64.2914 22.5558 65.0763 22.6008L65.4687 22.6335V23.0259H56.6065Z" fill="var(--fill-0, #BF9C81)"/>
<path id="Vector_4" d="M93.5919 7.10041L93.2976 7.0677C93.1464 6.65484 92.9747 6.2011 92.7907 5.71058C92.6068 5.22006 92.4269 4.76633 92.2511 4.35347C91.9446 3.52367 91.4786 2.82058 90.845 2.24422C90.2114 1.66785 89.5247 1.29996 88.7848 1.14872C88.7848 1.12828 88.703 1.10375 88.5395 1.08331C88.376 1.06287 88.1921 1.03835 87.9836 1.01791C87.7751 0.99747 87.489 0.972942 87.117 0.952504C85.6127 0.952504 84.4028 1.36127 83.4871 2.17881C82.5715 2.99635 82.1137 4.07959 82.1137 5.43262C82.1137 5.87 82.2731 6.31148 82.5878 6.75704C82.9026 7.2026 83.344 7.63589 83.9122 8.04874C84.4804 8.4616 85.1713 8.84995 85.9888 9.20966C86.8063 9.56938 87.7056 9.8923 88.6867 10.1744C89.6473 10.436 90.5139 10.7916 91.2865 11.2372C92.059 11.6827 92.7253 12.1978 93.2812 12.7741C93.8372 13.3505 94.2664 13.9718 94.573 14.6381C94.8795 15.3044 95.0308 15.9952 95.0308 16.7147C95.0308 17.6957 94.8468 18.5827 94.4749 19.3798C94.1029 20.177 93.5796 20.8555 92.9052 21.4237C92.2307 21.9919 91.4173 22.4252 90.4689 22.7318C89.5206 23.0383 88.47 23.1896 87.3132 23.1896C86.5733 23.1896 85.8253 23.1528 85.0731 23.0751C84.321 22.9975 83.6016 22.8912 82.9148 22.7481C82.2281 22.6051 81.5904 22.4334 81.0018 22.2249C80.4132 22.0164 79.9022 21.7957 79.4648 21.5545V16.126H79.7591C79.8245 16.3223 79.9022 16.5389 79.988 16.7801C80.0739 17.0213 80.1516 17.2379 80.217 17.4341C80.7197 18.7422 81.5046 19.8336 82.5715 20.7043C83.6384 21.575 84.7952 22.0655 86.0378 22.1758C86.279 22.1963 86.4752 22.2126 86.6265 22.2249C86.7777 22.2372 86.9208 22.2412 87.0516 22.2412H87.2805C88.8297 22.2412 90.0724 21.8693 91.0085 21.1294C91.9446 20.3854 92.4147 19.4044 92.4147 18.1822C92.4147 17.6794 92.2552 17.1848 91.9405 16.6901C91.6257 16.1996 91.1761 15.7295 90.5997 15.2799C90.0234 14.8343 89.3244 14.4174 88.5068 14.0372C87.6893 13.653 86.79 13.3219 85.8089 13.0398C84.8728 12.7782 84.0144 12.4348 83.2419 12.0097C82.4693 11.5846 81.8071 11.1023 81.2634 10.5668C80.7197 10.0313 80.2987 9.44675 80.0044 8.81316C79.7101 8.17956 79.5629 7.53779 79.5629 6.87967C79.5629 5.85366 79.7469 4.91348 80.1189 4.06324C80.4908 3.213 81.0059 2.48539 81.6722 1.8845C82.3385 1.28361 83.1438 0.821695 84.0921 0.490592C85.0404 0.163576 86.091 6.27812e-05 87.2478 6.27812e-05C88.3147 6.27812e-05 89.4265 0.151314 90.5834 0.453804C91.7402 0.756294 92.7417 1.16098 93.5919 1.66785V7.09632V7.10041Z" fill="var(--fill-0, #BF9C81)"/>
<path id="Vector_5" d="M110.4 22.634V23.0264H101.538V22.634L101.931 22.6013C102.715 22.5563 103.284 22.3274 103.631 21.9146C103.978 21.5017 104.154 20.8477 104.154 19.9525V3.30736C104.154 2.41215 103.978 1.75811 103.631 1.34525C103.284 0.932396 102.715 0.703487 101.931 0.658523L101.538 0.625827V0.233398H110.4V0.625827L110.008 0.658523C109.223 0.703487 108.655 0.932396 108.307 1.34525C107.96 1.75811 107.784 2.41215 107.784 3.30736V19.9525C107.784 20.8477 107.96 21.5017 108.307 21.9146C108.655 22.3274 109.223 22.5563 110.008 22.6013L110.4 22.634Z" fill="var(--fill-0, #BF9C81)"/>
<path id="Vector_6" d="M139.799 0.233398L139.832 0.625827L139.374 0.658523C138.503 0.703487 137.869 0.965106 137.477 1.44337C137.085 1.92163 136.888 2.66558 136.888 3.66706V16.5515C136.888 17.553 136.729 18.4645 136.414 19.2821C136.099 20.0996 135.601 20.7986 134.926 21.375C134.252 21.9513 133.373 22.401 132.294 22.7157C131.215 23.0305 129.911 23.1899 128.386 23.1899C126.861 23.1899 125.443 23.006 124.331 22.634C123.219 22.262 122.308 21.747 121.6 21.0807C120.893 20.4144 120.374 19.6091 120.047 18.6608C119.72 17.7124 119.557 16.6619 119.557 15.5051V3.30736C119.557 2.41215 119.381 1.75811 119.033 1.34525C118.686 0.932396 118.118 0.703487 117.333 0.658523L116.94 0.625827V0.233398H125.803V0.625827L125.41 0.658523C124.625 0.703487 124.057 0.932396 123.71 1.34525C123.362 1.75811 123.186 2.41215 123.186 3.30736V16.2245C123.186 17.9454 123.628 19.3311 124.511 20.3776C125.394 21.424 126.861 21.9473 128.909 21.9473C130.152 21.9473 131.202 21.8042 132.065 21.5221C132.927 21.2401 133.631 20.8477 134.174 20.3449C134.718 19.8421 135.118 19.2371 135.368 18.5299C135.617 17.8228 135.744 17.0298 135.744 16.1591V3.66706C135.744 2.66558 135.535 1.92163 135.123 1.44337C134.71 0.965106 134.043 0.703487 133.128 0.658523L132.637 0.625827V0.233398H139.799Z" fill="var(--fill-0, #BF9C81)"/>
<path id="Vector_7" d="M174.888 0.625827L174.986 0.593118L174.561 0.625827C173.821 0.670791 173.29 0.891521 172.975 1.2962C172.661 1.70089 172.513 2.32631 172.534 3.17655L173.286 19.9198C173.331 20.815 173.531 21.469 173.891 21.8819C174.251 22.2947 174.811 22.5236 175.575 22.5686L176 22.6013V22.9937H167.171V22.6013L167.563 22.5686C168.328 22.5236 168.871 22.2906 169.198 21.8655C169.525 21.4404 169.677 20.7904 169.656 19.9198L169.133 3.01304L160.532 23.1899H159.584L150.755 4.74622L150.199 19.4292C150.154 20.4961 150.366 21.281 150.836 21.7838C151.306 22.2865 152.075 22.5563 153.142 22.6013L153.829 22.634V23.0264H146.34V22.634L146.765 22.6013C147.529 22.5563 148.085 22.3233 148.433 21.8982C148.78 21.4731 148.976 20.8232 149.021 19.9525L149.675 2.88223C149.655 1.4638 148.956 0.723926 147.583 0.658523L147.19 0.625827V0.233398H152.651L161.219 18.8406L161.284 18.9387L168.969 0.233398H174.888V0.625827Z" fill="var(--fill-0, #BF9C81)"/>
</g>
</svg>
