<svg preserveAspectRatio="none" width="100%" height="100%" overflow="visible" style="display: block;" viewBox="0 0 17 44" fill="none" xmlns="http://www.w3.org/2000/svg">
<g id="Group">
<g id="Group_2">
<path id="Vector" d="M4.39412 14.7716C4.37949 14.7716 4.36973 14.7618 4.18195 14.6082C3.99661 14.457 3.82102 14.2912 3.65519 14.1181C3.14063 13.5816 2.71386 12.9501 2.44804 12.2527C1.89202 10.7873 2.23344 9.19991 3.00651 7.8832C3.49668 7.04441 4.19171 6.35923 4.89161 5.69356C5.59639 5.02301 6.37189 4.38172 6.72062 3.44296C7.1352 2.32375 7.00595 1.10457 6.60357 0C6.63039 0.075589 6.81085 0.182877 6.86694 0.238959C7.0913 0.455972 7.30103 0.692493 7.49368 0.938767C8.40575 2.10918 8.6862 3.49904 8.6862 3.49904C8.95446 4.84014 8.73497 6.09589 8.01312 7.26386C7.64001 7.86613 7.18641 8.42452 6.71574 8.9512C6.28166 9.43644 5.77441 9.85096 5.36959 10.363C4.75992 11.136 4.54044 12.0552 4.46484 13.0208C4.45508 13.1427 4.46484 14.7618 4.39412 14.7691V14.7716Z" fill="var(--fill-0, #1D1E1C)"/>
<path id="Vector_2" d="M7.59367 15.3714C7.40589 15.2934 6.51333 14.9032 6.1646 13.9474C5.68906 12.6453 6.55479 11.3164 7.42296 10.4118C8.00337 9.80707 8.7179 9.37304 9.30319 8.77808C9.90311 8.16849 10.4738 7.41992 10.7688 6.61038C11.1249 5.62772 11.0786 4.74504 11.0127 4.24518C11.0225 4.3232 11.2224 4.48901 11.2736 4.55485C11.3907 4.70603 11.5029 4.86452 11.6029 5.02789C11.8589 5.44485 12.0516 5.90082 12.154 6.38118C12.393 7.48331 12.0711 8.66348 11.5053 9.61443C11.0639 10.3557 10.4689 10.9921 9.81044 11.5456C9.20808 12.0528 8.50818 12.4746 8.12774 13.1891C7.6961 14.001 7.60343 14.8106 7.59611 15.3738L7.59367 15.3714Z" fill="var(--fill-0, #1D1E1C)"/>
<path id="Vector_3" d="M9.44707 14.9008C9.38123 14.9008 9.76166 13.7645 9.7958 13.7011C10.0958 13.1232 10.5006 12.7209 11.0664 12.3966C11.5541 12.1162 12.0809 11.8919 12.5052 11.5212C13.1563 10.9531 13.4953 10.0924 13.6002 9.23649C14.2586 10.402 14.0342 11.7846 13.2929 12.8526C11.9101 14.8423 9.44951 14.9032 9.44951 14.9032L9.44707 14.9008Z" fill="var(--fill-0, #1D1E1C)"/>
</g>
<path id="Vector_4" d="M15.0564 17.6244V16.7978H1.77024e-07V17.6244C1.77024e-07 17.6244 1.21446 17.9195 1.56807 18.8046C1.92168 19.6897 2.45331 21.872 4.16283 22.4036C5.87479 22.9352 5.84796 23.7618 5.84796 23.7618C6.11134 23.6764 6.4552 23.5618 6.86002 23.4302C7.75745 23.1327 8.57685 22.9157 9.40845 22.6011C10.3205 22.2549 10.8204 22.0647 11.4106 21.6063C12.1032 21.0723 12.5422 20.4651 12.6714 20.2822C13.064 19.719 13.3762 19.0972 13.3762 19.0972C13.642 18.5656 13.6713 18.3803 13.8883 18.1462C14.0224 18.0024 14.3614 17.7 15.0564 17.6269V17.6244Z" fill="var(--fill-0, #1D1E1C)"/>
<g id="Group_3">
<path id="Vector_5" d="M4.2754 33.0031C4.21443 32.713 3.79254 32.335 3.6511 32.0571C3.33895 31.4499 3.18775 30.8281 3.17799 30.1551C3.15848 28.8628 3.84863 27.6607 4.95335 26.7756C6.63605 25.4272 8.86988 25.0248 10.8477 24.2909C11.5695 24.0227 12.2743 23.6545 12.7693 23.0449C13.2815 22.4134 13.457 21.6136 13.6814 20.8504C13.6814 20.8504 14.1765 21.833 14.2935 22.5987C14.4496 23.6155 13.9936 24.4957 13.8692 24.6932C13.1937 25.771 11.9109 26.4464 10.6306 26.9146C9.29665 27.4022 7.8749 27.7412 6.63361 28.4239C6.24098 28.6409 5.51913 29.0384 5.0192 29.5846C3.88033 30.8306 4.17785 32.5374 4.27784 33.0031H4.2754Z" fill="var(--fill-0, #1D1E1C)"/>
<path id="Vector_6" d="M15.7762 35.9633C15.7518 36.0291 15.6836 36.2047 15.5738 36.4095C15.0739 37.3605 14.2325 37.9969 13.0839 38.6162C11.6646 39.3819 11.5939 39.1405 9.88925 39.9963C9.00645 40.4401 8.37483 40.762 7.66273 41.3691C6.85553 42.0568 6.33609 42.7809 6.0215 43.2954C4.88751 42.7883 4.19736 42.1153 3.834 41.6983C3.65841 41.4984 3.28285 41.0448 2.94632 40.3767C2.8317 40.15 2.33908 39.138 2.2708 37.8945C2.13911 35.5025 3.65353 33.72 3.82912 33.5152C5.49962 31.606 8.30654 30.9232 8.62845 30.8013C9.87218 30.338 10.5574 30.1576 11.3354 29.5602C12.0158 29.0384 12.4279 28.4605 12.6718 28.046C12.7718 28.3703 12.8937 28.9433 12.7376 29.6382C11.9499 33.108 6.80919 32.6618 4.9314 35.2635C4.69241 35.5951 4.03397 36.846 4.3827 38.2651C4.62169 39.2405 5.24843 39.8842 5.60936 40.1963C6.36291 39.6574 7.53104 38.904 9.07229 38.231C10.2429 37.7189 10.8355 37.6019 11.5329 37.3117C12.7474 36.807 14.3569 35.7487 15.9006 33.2762C16.0469 33.8175 16.2176 34.8222 15.7762 35.9633Z" fill="var(--fill-0, #1D1E1C)"/>
</g>
</g>
</svg>
