<svg preserveAspectRatio="none" width="100%" height="100%" overflow="visible" style="display: block;" viewBox="0 0 27 73" fill="none" xmlns="http://www.w3.org/2000/svg">
<g id="Group">
<g id="Group_2">
<path id="Vector" d="M7.36616 24.7633C7.34163 24.7633 7.32528 24.7469 7.01053 24.4894C6.69986 24.236 6.40554 23.958 6.12758 23.6678C5.26508 22.7685 4.54973 21.7098 4.10417 20.5407C3.17218 18.084 3.74446 15.4229 5.04026 13.2155C5.86189 11.8094 7.02688 10.6607 8.20005 9.54478C9.38139 8.42066 10.6813 7.3456 11.2658 5.77183C11.9607 3.89558 11.7441 1.85173 11.0696 0C11.1146 0.126719 11.4171 0.306578 11.5111 0.400595C11.8872 0.7644 12.2387 1.16091 12.5616 1.57376C14.0904 3.53586 14.5605 5.86585 14.5605 5.86585C15.0102 8.11408 14.6423 10.2192 13.4323 12.1773C12.8069 13.1869 12.0466 14.123 11.2576 15.0059C10.53 15.8194 9.6798 16.5143 9.00124 17.3727C7.97931 18.6685 7.61142 20.2096 7.4847 21.8283C7.46835 22.0327 7.4847 24.7469 7.36616 24.7592V24.7633Z" fill="url(#paint0_linear_2428_57)"/>
<path id="Vector_2" d="M12.7293 25.7694C12.4146 25.6386 10.9185 24.9845 10.3339 23.3821C9.53681 21.1993 10.9879 18.9715 12.4432 17.455C13.416 16.4412 14.6137 15.7136 15.5948 14.7162C16.6004 13.6943 17.5569 12.4394 18.0515 11.0823C18.6483 9.43491 18.5706 7.95517 18.4603 7.11719C18.4766 7.24799 18.8118 7.52596 18.8976 7.63633C19.0939 7.88976 19.2819 8.15546 19.4495 8.42934C19.8787 9.12834 20.2016 9.89274 20.3733 10.698C20.7739 12.5457 20.2343 14.5241 19.286 16.1183C18.5461 17.361 17.5487 18.4279 16.445 19.3558C15.4354 20.206 14.2622 20.9132 13.6245 22.1109C12.901 23.4721 12.7457 24.8292 12.7334 25.7734L12.7293 25.7694Z" fill="url(#paint1_linear_2428_57)"/>
<path id="Vector_3" d="M15.836 24.9801C15.7257 24.9801 16.3634 23.0752 16.4206 22.969C16.9234 22.0002 17.6019 21.3257 18.5503 20.782C19.3678 20.3119 20.2508 19.9359 20.962 19.3145C22.0534 18.3621 22.6216 16.9192 22.7974 15.4844C23.9011 17.4383 23.525 19.756 22.2824 21.5464C19.9646 24.882 15.8401 24.9842 15.8401 24.9842L15.836 24.9801Z" fill="url(#paint2_linear_2428_57)"/>
</g>
<path id="Vector_4" d="M25.2375 29.5456V28.1599H3.76535e-05V29.5456C3.76535e-05 29.5456 2.03571 30.0403 2.62843 31.5241C3.22114 33.0079 4.11226 36.6664 6.97774 37.5575C9.8473 38.4487 9.80234 39.8344 9.80234 39.8344C10.2438 39.6913 10.8202 39.4992 11.4987 39.2785C13.003 38.7798 14.3765 38.416 15.7704 37.8886C17.2992 37.3082 18.1372 36.9893 19.1264 36.2209C20.2873 35.3257 21.0231 34.3078 21.2397 34.0012C21.8978 33.057 22.4211 32.0146 22.4211 32.0146C22.8666 31.1235 22.9157 30.8128 23.2795 30.4204C23.5043 30.1792 24.0725 29.6724 25.2375 29.5497V29.5456Z" fill="url(#paint3_linear_2428_57)"/>
<g id="Group_3">
<path id="Vector_5" d="M7.16631 55.3262C7.06412 54.8398 6.35695 54.2062 6.11986 53.7402C5.59664 52.7224 5.3432 51.68 5.32685 50.5518C5.29415 48.3853 6.45096 46.3701 8.30269 44.8862C11.1232 42.6257 14.8675 41.9513 18.1827 40.7209C19.3926 40.2712 20.574 39.654 21.4038 38.6321C22.2622 37.5733 22.5565 36.2326 22.9326 34.9531C22.9326 34.9531 23.7624 36.6005 23.9586 37.884C24.2202 39.5886 23.4558 41.0642 23.2473 41.3953C22.115 43.2021 19.9649 44.3344 17.8189 45.1192C15.5829 45.9368 13.1998 46.505 11.1191 47.6495C10.461 48.0133 9.25104 48.6796 8.41306 49.5953C6.50411 51.6841 7.0028 54.5455 7.1704 55.3262H7.16631Z" fill="url(#paint4_linear_2428_57)"/>
<path id="Vector_6" d="M26.4442 60.2884C26.4034 60.3988 26.2889 60.6931 26.105 61.0364C25.267 62.6306 23.8567 63.6975 21.9314 64.7358C19.5524 66.0193 19.4338 65.6147 16.5765 67.0494C15.0968 67.7934 14.0381 68.333 12.8445 69.3508C11.4914 70.5035 10.6207 71.7176 10.0934 72.5801C8.19266 71.7299 7.03584 70.6016 6.42677 69.9027C6.13245 69.5675 5.50295 68.8072 4.93885 67.6871C4.74672 67.307 3.92101 65.6106 3.80655 63.5258C3.58582 59.5158 6.12428 56.5277 6.41859 56.1843C9.21867 52.9837 13.9236 51.8391 14.4632 51.6347C16.5479 50.8581 17.6966 50.5556 19.0005 49.5541C20.141 48.6793 20.8318 47.7105 21.2406 47.0156C21.4082 47.5593 21.6126 48.5199 21.351 49.6849C20.0306 55.5017 11.4138 54.7536 8.26623 59.1152C7.86564 59.6711 6.76196 61.7681 7.3465 64.1472C7.7471 65.7823 8.79763 66.8614 9.40261 67.3846C10.6657 66.4813 12.6237 65.2182 15.2071 64.0899C17.1692 63.2315 18.1626 63.0353 19.3316 62.5489C21.3673 61.7027 24.0652 59.9287 26.6527 55.7837C26.898 56.6912 27.1841 58.3753 26.4442 60.2884Z" fill="url(#paint5_linear_2428_57)"/>
</g>
</g>
<defs>
<linearGradient id="paint0_linear_2428_57" x1="1.75783" y1="16.6901" x2="16.4858" y2="8.18766" gradientUnits="userSpaceOnUse">
<stop stop-color="#BF966E"/>
<stop offset="0.08" stop-color="#C39C76"/>
<stop offset="0.2" stop-color="#D0AC8E"/>
<stop offset="0.36" stop-color="#E5C8B4"/>
<stop offset="0.52" stop-color="#FFE9E2"/>
<stop offset="0.64" stop-color="#EACEBC"/>
<stop offset="0.8" stop-color="#D3AF92"/>
<stop offset="0.93" stop-color="#C49D77"/>
<stop offset="1" stop-color="#BF966E"/>
</linearGradient>
<linearGradient id="paint1_linear_2428_57" x1="8.59664" y1="20.4799" x2="21.9552" y2="12.7664" gradientUnits="userSpaceOnUse">
<stop stop-color="#BF966E"/>
<stop offset="0.08" stop-color="#C39C76"/>
<stop offset="0.2" stop-color="#D0AC8E"/>
<stop offset="0.36" stop-color="#E5C8B4"/>
<stop offset="0.52" stop-color="#FFE9E2"/>
<stop offset="0.64" stop-color="#EACEBC"/>
<stop offset="0.8" stop-color="#D3AF92"/>
<stop offset="0.93" stop-color="#C49D77"/>
<stop offset="1" stop-color="#BF966E"/>
</linearGradient>
<linearGradient id="paint2_linear_2428_57" x1="14.8836" y1="23.3409" x2="24.2199" y2="17.9533" gradientUnits="userSpaceOnUse">
<stop stop-color="#BF966E"/>
<stop offset="0.08" stop-color="#C39C76"/>
<stop offset="0.2" stop-color="#D0AC8E"/>
<stop offset="0.36" stop-color="#E5C8B4"/>
<stop offset="0.52" stop-color="#FFE9E2"/>
<stop offset="0.64" stop-color="#EACEBC"/>
<stop offset="0.8" stop-color="#D3AF92"/>
<stop offset="0.93" stop-color="#C49D77"/>
<stop offset="1" stop-color="#BF966E"/>
</linearGradient>
<linearGradient id="paint3_linear_2428_57" x1="3.55225" y1="35.7017" x2="23.0792" y2="24.4238" gradientUnits="userSpaceOnUse">
<stop stop-color="#BF966E"/>
<stop offset="0.08" stop-color="#C39C76"/>
<stop offset="0.2" stop-color="#D0AC8E"/>
<stop offset="0.36" stop-color="#E5C8B4"/>
<stop offset="0.52" stop-color="#FFE9E2"/>
<stop offset="0.64" stop-color="#EACEBC"/>
<stop offset="0.8" stop-color="#D3AF92"/>
<stop offset="0.93" stop-color="#C49D77"/>
<stop offset="1" stop-color="#BF966E"/>
</linearGradient>
<linearGradient id="paint4_linear_2428_57" x1="4.62785" y1="51.1568" x2="25.3729" y2="39.1798" gradientUnits="userSpaceOnUse">
<stop stop-color="#BF966E"/>
<stop offset="0.08" stop-color="#C39C76"/>
<stop offset="0.2" stop-color="#D0AC8E"/>
<stop offset="0.36" stop-color="#E5C8B4"/>
<stop offset="0.52" stop-color="#FFE9E2"/>
<stop offset="0.64" stop-color="#EACEBC"/>
<stop offset="0.8" stop-color="#D3AF92"/>
<stop offset="0.93" stop-color="#C49D77"/>
<stop offset="1" stop-color="#BF966E"/>
</linearGradient>
<linearGradient id="paint5_linear_2428_57" x1="4.17036" y1="66.3913" x2="25.6267" y2="54.0056" gradientUnits="userSpaceOnUse">
<stop stop-color="#BF966E"/>
<stop offset="0.08" stop-color="#C39C76"/>
<stop offset="0.2" stop-color="#D0AC8E"/>
<stop offset="0.36" stop-color="#E5C8B4"/>
<stop offset="0.52" stop-color="#FFE9E2"/>
<stop offset="0.64" stop-color="#EACEBC"/>
<stop offset="0.8" stop-color="#D3AF92"/>
<stop offset="0.93" stop-color="#C49D77"/>
<stop offset="1" stop-color="#BF966E"/>
</linearGradient>
</defs>
</svg>
