<svg preserveAspectRatio="none" width="100%" height="100%" overflow="visible" style="display: block;" viewBox="0 0 34 69" fill="none" xmlns="http://www.w3.org/2000/svg">
<g id="Group">
<g id="Group_2">
<path id="Vector" d="M33.4274 65.4832C33.4274 65.4832 33.418 65.4676 33.4055 65.4394C33.393 65.4113 33.3773 65.3707 33.3586 65.3206C33.3211 65.2206 33.2742 65.0893 33.221 64.9518C33.1241 64.6798 33.021 64.3953 33.0053 64.3453C32.8678 64.0077 32.7334 63.6919 32.5833 63.4012C32.5083 63.2543 32.4301 63.1167 32.3426 62.9823C32.2582 62.8448 32.1644 62.7166 32.0644 62.5916C31.8456 62.3196 31.6236 62.0726 31.4048 61.8132C31.1859 61.5568 30.9671 61.3099 30.7483 61.0723C30.4669 60.7503 30.1793 60.4564 29.8917 60.1657C29.7479 60.0188 29.6073 59.875 29.4635 59.7343C29.3197 59.5968 29.1759 59.4561 29.0352 59.3154C28.8758 59.156 28.4694 58.759 28.0817 58.3526C27.9817 58.2525 27.8848 58.1556 27.791 58.0618C27.6972 57.9649 27.6066 57.8743 27.5253 57.7899C27.3596 57.6242 27.2221 57.4991 27.1314 57.4397C26.9751 57.7242 27.0064 58.2807 27.0095 58.5776C27.0095 58.9778 27.047 59.3748 27.1126 59.7593C27.3127 60.9691 27.7097 62.1914 28.3756 63.2199C28.6976 63.7357 29.0946 64.2265 29.5572 64.6423C29.7886 64.8486 30.0387 65.0237 30.3013 65.1706C30.5639 65.3206 30.8421 65.43 31.1297 65.4926C31.2547 65.5207 31.3798 65.5457 31.5048 65.5676C31.8174 65.6332 32.1425 65.6458 32.4645 65.6395C32.6271 65.6332 32.7865 65.6239 32.9459 65.5989C33.1085 65.5707 33.2679 65.5332 33.4242 65.4863L33.4274 65.4832Z" fill="var(--fill-0, #1B1C1A)"/>
<path id="Vector_2" d="M29.1442 66.5992C29.1442 66.5992 29.1286 66.6086 29.1036 66.6274C29.0786 66.6461 29.0442 66.6742 29.0036 66.7086C28.9223 66.7743 28.8097 66.8618 28.6972 66.9525C28.469 67.1338 28.2283 67.3213 28.1845 67.3495C27.875 67.5558 27.5687 67.7465 27.2561 67.8934C26.9403 68.0403 26.6152 68.1529 26.2557 68.2185C25.865 68.2936 25.4742 68.3373 25.0803 68.3748C24.8834 68.3936 24.6833 68.4092 24.4832 68.4186C24.2832 68.428 24.0862 68.4311 23.8861 68.4311C23.6267 68.4311 23.3641 68.428 23.1015 68.4155C22.8389 68.403 22.5826 68.3748 22.32 68.3498C22.0605 68.3217 21.7948 68.2904 21.5353 68.2498C21.2758 68.206 21.0164 68.1591 20.7538 68.1091C20.6069 68.0779 20.3411 68.0341 20.0254 67.9591C19.7097 67.884 19.3345 67.7934 18.9563 67.6965C18.5812 67.5964 18.2123 67.4808 17.8997 67.3776C17.7434 67.3245 17.5996 67.2776 17.4808 67.2307C17.362 67.1838 17.2651 67.14 17.1963 67.1025C17.3526 66.8305 17.9372 66.6461 18.2248 66.5148C18.6155 66.3429 19.0188 66.2022 19.4221 66.0772C19.7378 65.9802 20.0598 65.8833 20.3849 65.7896C20.71 65.6989 21.0351 65.6145 21.3571 65.5395C21.6791 65.4676 22.0105 65.3863 22.3356 65.3269C22.6607 65.2644 22.9827 65.2175 23.3078 65.1737C24.5833 65.0112 25.9556 64.908 27.081 65.3738C27.2029 65.4238 27.3248 65.4738 27.4468 65.527C28.0501 65.7958 28.6378 66.124 29.1442 66.5961V66.5992Z" fill="var(--fill-0, #1B1C1A)"/>
<path id="Vector_3" d="M24.3582 62.4946C24.3582 62.4946 24.355 62.479 24.3488 62.4477C24.3457 62.4196 24.3394 62.3758 24.3332 62.3258C24.3238 62.2258 24.3081 62.0914 24.2956 61.9507C24.2706 61.6756 24.2456 61.3911 24.2394 61.3411C24.1331 60.6627 24.0393 60.0406 23.7642 59.4842C23.4766 58.8652 23.1734 58.2869 22.8733 57.7117C22.7764 57.5273 22.6732 57.3491 22.5732 57.1678C22.4731 56.9864 22.3731 56.8083 22.2699 56.6332C22.0605 56.2893 21.8604 55.9361 21.651 55.6016C21.529 55.4171 21.2508 54.9107 20.9632 54.4355C20.6912 53.9385 20.4068 53.4727 20.2755 53.3039C20.0629 53.5133 19.9566 54.0448 19.8941 54.3136C19.8034 54.6794 19.7503 55.0483 19.719 55.4203C19.619 56.5957 19.719 57.8117 20.0942 58.959C20.4693 60.0656 21.1195 61.2567 22.1636 61.8319C22.2731 61.8975 22.3918 61.9507 22.5044 62.007C22.792 62.1476 23.089 62.2695 23.4016 62.354C23.7142 62.4352 24.0362 62.4852 24.3582 62.4946Z" fill="var(--fill-0, #1B1C1A)"/>
<path id="Vector_4" d="M20.0071 62.2508C20.0071 62.2508 19.9914 62.2539 19.9633 62.2633C19.9352 62.2727 19.8977 62.2883 19.8476 62.3071C19.7538 62.3446 19.6257 62.3915 19.4944 62.4415C19.2349 62.5415 18.9567 62.6416 18.9098 62.6541C18.5691 62.7479 18.2377 62.826 17.9032 62.8667C17.5687 62.9104 17.228 62.9229 16.8778 62.8667C16.4965 62.8104 16.1151 62.7447 15.7306 62.6603C15.3523 62.5697 14.9772 62.4696 14.5989 62.3571C14.1081 62.207 13.6361 62.0164 13.1547 61.8163C12.6826 61.6068 12.22 61.3724 11.7542 61.1285C11.626 61.0566 11.3978 60.9253 11.1196 60.769C10.8413 60.6096 10.51 60.4189 10.1911 60.2095C9.87225 60.0032 9.55026 59.7937 9.28455 59.603C9.02508 59.4092 8.81563 59.2435 8.70622 59.1372C8.91566 58.934 9.50337 58.9372 9.7941 58.9059C10.1911 58.8715 10.6038 58.859 11.007 58.8652C11.3259 58.8684 11.6479 58.8778 11.9667 58.8965C12.2856 58.9121 12.6138 58.9278 12.9358 58.9559C13.2578 58.9809 13.5736 59.0216 13.8924 59.0622C14.2144 59.1028 14.5301 59.1497 14.8427 59.2091C14.9959 59.2373 15.1491 59.2716 15.3054 59.306C15.4617 59.3373 15.6212 59.3717 15.7775 59.4092C16.0901 59.4842 16.3964 59.5749 16.6997 59.678C17.0029 59.7781 17.2967 59.8937 17.5687 60.0375C17.8407 60.1813 18.1095 60.3345 18.3471 60.5283C18.4503 60.6096 18.5503 60.694 18.6503 60.7815C19.1661 61.1942 19.6288 61.685 20.0039 62.2477L20.0071 62.2508Z" fill="var(--fill-0, #1B1C1A)"/>
<path id="Vector_5" d="M16.4683 57.0834C16.4683 57.0834 16.4683 57.0677 16.4683 57.0396C16.4714 57.0115 16.4777 56.9739 16.484 56.9239C16.4965 56.8301 16.5152 56.702 16.534 56.5707C16.5746 56.3112 16.6153 56.0424 16.6215 55.9955C16.6559 55.6641 16.684 55.3484 16.6903 55.0451C16.6934 54.7419 16.6684 54.448 16.6121 54.1417C16.5465 53.8134 16.4746 53.4946 16.4027 53.1789C16.3339 52.8569 16.262 52.5443 16.1807 52.2348C16.0776 51.8346 15.9775 51.4314 15.8587 51.0469C15.7462 50.6561 15.6337 50.2685 15.5117 49.8933C15.4773 49.787 15.4242 49.5932 15.3586 49.3588C15.3242 49.2431 15.2867 49.1149 15.2491 48.9836C15.2085 48.8523 15.1679 48.7179 15.1366 48.5804C14.9928 48.027 14.8365 47.4956 14.7396 47.3018C14.4958 47.4362 14.2926 47.8926 14.1706 48.1239C14.005 48.4397 13.8737 48.7679 13.7611 49.1087C13.6736 49.3744 13.5892 49.6526 13.5235 49.9308C13.461 50.2059 13.4079 50.4873 13.3672 50.7749C13.2797 51.3501 13.2641 51.9315 13.3078 52.5192C13.3266 52.81 13.3672 53.1007 13.4235 53.3946C13.4829 53.6884 13.5517 53.9885 13.6517 54.273C13.858 54.8388 14.1425 55.3859 14.5677 55.8016C14.6583 55.8923 14.749 55.983 14.8428 56.0705C15.3148 56.5019 15.8556 56.877 16.4714 57.0802L16.4683 57.0834Z" fill="var(--fill-0, #1B1C1A)"/>
<path id="Vector_6" d="M12.4602 55.536C12.4602 55.536 12.4446 55.536 12.4164 55.536C12.3883 55.536 12.3477 55.5359 12.3008 55.5422C12.2039 55.5485 12.0757 55.5547 11.9413 55.561C11.6787 55.5703 11.4036 55.5766 11.3536 55.5735C10.6752 55.5391 10.05 55.4672 9.4279 55.1608C8.74328 54.8357 8.09618 54.4418 7.4522 54.0104C7.04894 53.7197 6.65505 53.4039 6.26741 53.0757C6.07672 52.91 5.87665 52.7443 5.69534 52.5662C5.51402 52.388 5.33271 52.2067 5.15452 52.0222C5.05449 51.9191 4.87317 51.7315 4.65434 51.5033C4.54493 51.3876 4.42301 51.2657 4.30422 51.1313C4.18856 50.9937 4.06664 50.8531 3.94472 50.7093C3.46643 50.1341 2.98188 49.5463 2.85059 49.2744C3.08817 49.1462 3.6071 49.3275 3.88845 49.3807C4.26358 49.4619 4.63559 49.5745 5.00134 49.6995C6.13924 50.1059 7.33654 50.5655 8.40566 51.1719C8.95273 51.4595 9.50605 51.7846 9.99998 52.1629C10.2501 52.3505 10.5001 52.5443 10.719 52.76C10.8284 52.8663 10.9347 52.9788 11.0347 53.0945C11.1379 53.207 11.2348 53.3258 11.3223 53.4508C11.4005 53.5571 11.4724 53.6665 11.5474 53.776C11.7287 54.0511 11.9069 54.3293 12.0632 54.6231C12.2195 54.917 12.3445 55.2296 12.454 55.5422L12.4602 55.536Z" fill="var(--fill-0, #1B1C1A)"/>
<path id="Vector_7" d="M10.3885 49.6714C10.3885 49.6714 10.3916 49.6557 10.401 49.6307C10.4104 49.6057 10.426 49.5713 10.4416 49.5276C10.476 49.4432 10.5229 49.3275 10.5729 49.2118C10.6698 48.9805 10.773 48.7429 10.7886 48.6992C11.0012 48.0989 11.1544 47.5738 11.1919 46.961C11.2263 46.3014 11.2107 45.67 11.2294 45.0291C11.2357 44.6133 11.2107 44.2132 11.1981 43.8068C11.1919 43.4004 11.1731 42.9971 11.1481 42.6033C11.145 42.547 11.1388 42.472 11.1325 42.3782C11.1325 42.2844 11.1294 42.1719 11.1262 42.0499C11.1231 41.8061 11.1137 41.5216 11.1044 41.2403C11.0981 41.0996 11.0919 40.9589 11.0856 40.8245C11.0856 40.687 11.0856 40.5557 11.0825 40.4369C11.0762 40.1993 11.0669 40.0055 11.045 39.8961C10.7949 39.9492 10.501 40.3275 10.3385 40.515C10.1165 40.7651 9.91019 41.0465 9.73513 41.3341C9.46316 41.7874 9.21308 42.275 9.00363 42.7971C8.95048 42.9284 8.90046 43.0597 8.85357 43.1941C8.81293 43.3254 8.7723 43.4598 8.73478 43.5942C8.66288 43.8662 8.60036 44.1444 8.55347 44.4289C8.52846 44.5696 8.5097 44.7103 8.49095 44.8572C8.47219 45.0041 8.45656 45.151 8.45343 45.2948C8.44093 45.5887 8.44406 45.8888 8.46906 46.1889C8.4972 46.4859 8.53159 46.7922 8.61599 47.0767C8.7004 47.3612 8.80981 47.6394 8.95048 47.902C9.00988 48.0145 9.07553 48.1271 9.13805 48.2365C9.29123 48.5178 9.4913 48.7742 9.70075 49.018C9.91332 49.2587 10.1415 49.4838 10.3947 49.6776L10.3885 49.6714Z" fill="var(--fill-0, #1B1C1A)"/>
<path id="Vector_8" d="M7.08999 47.0079C7.08999 47.0079 7.0306 46.986 6.94307 46.961C6.85553 46.936 6.73674 46.9016 6.61483 46.8673C6.37412 46.7985 6.1209 46.7235 6.07714 46.7078C5.77391 46.5922 5.47693 46.4734 5.20808 46.3202C4.93924 46.167 4.6829 45.9826 4.43593 45.7481C4.17022 45.4918 3.9045 45.2292 3.65128 44.951C3.40745 44.6696 3.16986 44.3789 2.93853 44.0788C2.78848 43.885 2.64155 43.6849 2.49463 43.4817C2.35395 43.2754 2.22578 43.0659 2.09761 42.8502C1.96944 42.6376 1.84127 42.4188 1.71623 42.2C1.59431 41.978 1.46302 41.7592 1.35673 41.531C1.23168 41.2747 0.912822 40.6182 0.606464 39.9398C0.328241 39.2583 0.0687742 38.5581 0 38.2674C0.24071 38.2142 0.668986 38.5331 0.897191 38.6675C1.20668 38.8519 1.50365 39.0676 1.79126 39.2927C2.23829 39.6491 2.72283 40.0211 3.16674 40.4212C3.39182 40.6213 3.61065 40.8245 3.82322 41.0371C4.03892 41.2465 4.26087 41.4591 4.47032 41.6811C4.88297 42.1156 5.27685 42.5939 5.66137 43.0941C6.03337 43.5942 6.32722 44.135 6.54605 44.704C6.58982 44.829 6.63046 44.951 6.67422 45.076C6.87116 45.7043 7.04935 46.3452 7.08687 47.0111L7.08999 47.0079Z" fill="var(--fill-0, #1B1C1A)"/>
<path id="Vector_9" d="M6.59018 40.8464C6.59018 40.8464 6.62144 40.7964 6.66833 40.7245C6.71835 40.6557 6.784 40.5619 6.85277 40.465C6.9872 40.2743 7.1435 40.0774 7.16538 40.0399C7.503 39.5303 7.78435 39.0676 7.93753 38.4987C8.03131 38.1892 8.12197 37.8797 8.20325 37.5702C8.28765 37.2608 8.3533 36.9575 8.43458 36.6512C8.54087 36.2541 8.63152 35.8571 8.70967 35.4632C8.74406 35.2663 8.79095 35.0694 8.83785 34.8724C8.88161 34.6755 8.92225 34.4785 8.96289 34.2816C8.98477 34.1722 9.02229 33.9752 9.06918 33.7376C9.12545 33.5001 9.19109 33.2187 9.25674 32.9405C9.31926 32.6591 9.37866 32.3809 9.42868 32.1527C9.48495 31.9182 9.52871 31.7244 9.53809 31.615C9.30676 31.5963 8.95351 31.8839 8.75969 32.0183C8.49398 32.1996 8.26264 32.4122 8.03756 32.6435C7.68431 33.0061 7.33732 33.4094 7.02158 33.8502C6.7246 34.291 6.45263 34.7724 6.2213 35.2913L6.1369 35.4851C6.11189 35.5508 6.08688 35.6164 6.065 35.6821C6.0181 35.8165 5.97121 35.9509 5.93057 36.0916C5.84617 36.3698 5.77114 36.6574 5.71487 36.9513C5.65235 37.2451 5.63984 37.5421 5.63672 37.8422C5.63672 38.1392 5.66485 38.4393 5.72112 38.73C5.74301 38.8551 5.77739 38.9801 5.81178 39.1051C5.89619 39.4146 5.99935 39.721 6.12439 40.0148C6.18691 40.1618 6.25569 40.3056 6.32759 40.4462C6.40574 40.5838 6.4964 40.7182 6.58705 40.8464H6.59018Z" fill="var(--fill-0, #1B1C1A)"/>
<path id="Vector_10" d="M4.29555 37.3421C4.29555 37.3421 4.24866 37.3045 4.17989 37.2577C4.10799 37.2076 4.0142 37.142 3.91729 37.0732C3.72348 36.9388 3.52028 36.7919 3.48589 36.7637C3.24831 36.5637 3.02636 36.3667 2.82003 36.1416C2.72 36.0291 2.61684 35.9134 2.52931 35.7853C2.44178 35.6571 2.3605 35.5227 2.28234 35.3757C1.95098 34.738 1.62899 34.0659 1.39453 33.3657C1.31325 33.1375 1.23823 32.9061 1.16633 32.6717C1.09443 32.4372 1.02253 32.2027 0.969382 31.962C0.856842 31.4837 0.756809 30.9961 0.666152 30.5053C0.616135 30.2302 0.52235 29.5174 0.434819 28.7922C0.384802 28.4295 0.375424 28.0669 0.356667 27.7574C0.344163 27.448 0.337911 27.1916 0.347289 27.0447C0.569242 27.0572 0.856844 27.473 1.0194 27.6605C1.23823 27.9169 1.4383 28.2013 1.62586 28.4952C2.26046 29.4205 2.83254 30.4271 3.34522 31.5056C3.46714 31.7713 3.57968 32.0464 3.69847 32.3278C3.82039 32.6091 3.93292 32.8967 4.02983 33.1906C4.12987 33.4813 4.19864 33.7814 4.26742 34.0784C4.33932 34.3785 4.38621 34.6786 4.40184 34.9819C4.40809 35.1131 4.41122 35.2444 4.41747 35.3757C4.41747 35.704 4.44248 36.0353 4.42372 36.3636C4.40809 36.6918 4.37058 37.0201 4.3018 37.3421H4.29555Z" fill="var(--fill-0, #1B1C1A)"/>
<path id="Vector_11" d="M5.40821 31.2961C5.40821 31.2961 5.44885 31.2555 5.50824 31.2024C5.57077 31.1492 5.65204 31.0773 5.73645 31.0023C5.90526 30.8554 6.08032 30.7084 6.11158 30.6803C6.5336 30.2802 6.90873 29.9113 7.19008 29.3986C7.33701 29.1204 7.50582 28.8453 7.659 28.5702C7.81218 28.2951 7.95911 28.0169 8.09978 27.7386C8.2936 27.3791 8.48429 27.0165 8.65935 26.6539C8.75001 26.4726 8.82503 26.2881 8.92194 26.1068C9.0126 25.9255 9.10326 25.7442 9.19391 25.5629C9.29708 25.3597 9.53466 24.8376 9.81288 24.3312C9.9473 24.0749 10.0755 23.8216 10.1786 23.6028C10.2849 23.384 10.3818 23.2089 10.4225 23.1026C10.2255 23.0276 9.83789 23.2183 9.63157 23.3027C9.3596 23.4153 9.10013 23.5653 8.83754 23.731C8.63122 23.8623 8.42802 24.003 8.2217 24.1561C8.0185 24.3093 7.81218 24.4687 7.62461 24.6469C7.24635 24.9971 6.87435 25.3941 6.5336 25.8349C6.22099 26.2725 5.90526 26.7664 5.64892 27.3041C5.42071 27.8449 5.2394 28.4264 5.19251 29.0203C5.18938 29.1485 5.18313 29.2767 5.18 29.4049C5.17062 29.7268 5.18 30.0488 5.21126 30.3677C5.22377 30.5271 5.2519 30.6834 5.28629 30.8397C5.32068 30.996 5.36132 31.1492 5.40821 31.2961Z" fill="var(--fill-0, #1B1C1A)"/>
<path id="Vector_12" d="M4.32366 27.301C4.32366 27.301 4.2924 27.2541 4.24238 27.1885C4.18924 27.1228 4.12672 27.0322 4.06107 26.9415C3.92977 26.7602 3.79222 26.5695 3.77034 26.532C3.61716 26.2788 3.47961 26.0318 3.36082 25.763C3.24828 25.4972 3.13887 25.2096 3.09197 24.8908C3.0357 24.5438 2.98881 24.1905 2.94817 23.831C2.92942 23.6528 2.91066 23.4715 2.89503 23.2902C2.88253 23.1089 2.8794 22.9276 2.87315 22.7463C2.86377 22.2742 2.8669 21.7897 2.88878 21.3051C2.92942 20.8237 2.97944 20.336 3.04196 19.8484C3.06384 19.5702 3.19201 18.873 3.32643 18.1697C3.36082 17.9915 3.39833 17.8164 3.42959 17.6476C3.46711 17.4788 3.51087 17.3194 3.55151 17.1724C3.62966 16.8755 3.70156 16.6347 3.75471 16.4972C3.9454 16.5628 4.07044 17.0224 4.15798 17.2381C4.27364 17.5351 4.35492 17.8477 4.4487 18.1728C4.5925 18.6886 4.71755 19.2232 4.82071 19.7671C4.87385 20.0547 4.92387 20.3329 4.97076 20.6018C5.01765 20.8831 5.05829 21.1707 5.08643 21.4583C5.13332 22.021 5.2146 22.6337 5.21147 23.2402C5.20209 23.8467 5.18959 24.4656 5.04579 25.0565C5.01453 25.1846 4.98327 25.3097 4.94888 25.4378C4.87698 25.7567 4.79883 26.0787 4.69254 26.3882C4.5925 26.7008 4.45808 27.004 4.32679 27.2947L4.32366 27.301Z" fill="var(--fill-0, #1B1C1A)"/>
<path id="Vector_13" d="M6.92773 21.7678C6.92773 21.7678 6.97462 21.7397 7.0434 21.7022C7.11217 21.6647 7.20283 21.6178 7.29974 21.5678C7.4873 21.4677 7.68425 21.3677 7.71551 21.3489C7.94684 21.2051 8.17505 21.0676 8.39075 20.9144C8.60645 20.7612 8.81277 20.5862 9.00971 20.3736C9.116 20.2579 9.22229 20.1422 9.32545 20.0266C9.42861 19.9109 9.54428 19.7984 9.65057 19.6827C9.86627 19.4545 10.0757 19.2201 10.2789 18.9856C10.3446 18.9074 10.4102 18.8324 10.4759 18.7543C10.5446 18.6792 10.6134 18.6011 10.6822 18.5261C10.8166 18.3729 10.951 18.2197 11.0823 18.0665C11.2136 17.9133 11.3418 17.757 11.4668 17.5976C11.595 17.4413 11.7357 17.2912 11.8638 17.1381C11.9389 17.0505 12.0702 16.8974 12.2296 16.7098C12.3078 16.616 12.3953 16.5128 12.4859 16.4066C12.5766 16.3003 12.6798 16.1971 12.7735 16.0877C12.9705 15.872 13.1612 15.6594 13.3206 15.4719C13.3988 15.3781 13.4707 15.2937 13.5301 15.2186C13.5926 15.1467 13.6457 15.0873 13.6801 15.0405C13.5301 14.9248 13.1299 15.0217 12.9361 15.0623C12.6641 15.1124 12.389 15.1968 12.1108 15.2968C11.892 15.3749 11.6669 15.4656 11.4418 15.5625C11.2136 15.6594 11.0042 15.7782 10.7822 15.9001C10.5634 16.0252 10.3446 16.1596 10.1226 16.3065C9.90378 16.4535 9.68183 16.6098 9.48176 16.7879C9.27856 16.9599 9.07536 17.1474 8.86904 17.3444C8.76588 17.4444 8.66584 17.5476 8.56581 17.6539C8.51579 17.7101 8.46577 17.7633 8.41888 17.8164C8.37199 17.8758 8.32823 17.9321 8.28134 17.9884C8.10315 18.2197 7.93121 18.4635 7.77803 18.7199C7.62485 18.9762 7.48418 19.2419 7.3904 19.5233C7.34976 19.6452 7.30912 19.7671 7.26848 19.889C7.16844 20.1954 7.08091 20.5049 7.01526 20.8175C6.96525 21.1332 6.93399 21.4521 6.93086 21.7616L6.92773 21.7678Z" fill="var(--fill-0, #1B1C1A)"/>
<path id="Vector_14" d="M7.12432 17.682C7.12432 17.682 7.11182 17.6289 7.08681 17.5538C7.0618 17.4788 7.03054 17.3788 6.99615 17.2756C6.92738 17.0693 6.87111 16.8567 6.86173 16.8161C6.74606 16.2659 6.67416 15.7438 6.75231 15.103C6.80858 14.7622 6.87423 14.4184 6.94613 14.0745C6.98364 13.9026 7.02116 13.7275 7.0618 13.5524C7.10244 13.3774 7.14308 13.2023 7.19934 13.0335C7.33377 12.5896 7.48695 12.1394 7.65263 11.6893C7.73078 11.4611 7.83082 11.2454 7.92773 11.0234C8.02776 10.8015 8.1278 10.5826 8.22783 10.3638C8.28723 10.2388 8.39039 10.0168 8.51543 9.74797C8.65298 9.48538 8.81867 9.1759 8.9906 8.86641C9.16254 8.55693 9.33134 8.24432 9.49078 7.98798C9.65333 7.73477 9.79401 7.52844 9.88154 7.4159C10.0285 7.51906 9.99408 7.9661 10.0003 8.1818C10.0003 8.47565 9.99408 8.79451 9.96907 9.1165C9.93156 9.62293 9.87529 10.145 9.79401 10.6764C9.72836 11.2172 9.6377 11.7706 9.50953 12.3208C9.44076 12.5896 9.39074 12.8803 9.32197 13.1648C9.25319 13.4524 9.17504 13.7431 9.08126 14.0276C8.98435 14.3121 8.89682 14.6059 8.78428 14.8873C8.67174 15.1718 8.54357 15.4469 8.39351 15.7094L8.29348 15.8783L8.20282 16.0533C8.04965 16.3409 7.88084 16.6254 7.69952 16.8974C7.60887 17.0318 7.51196 17.1662 7.41505 17.2944C7.31814 17.4257 7.22435 17.5538 7.12432 17.6789V17.682Z" fill="var(--fill-0, #1B1C1A)"/>
<path id="Vector_15" d="M11.0382 13.021C11.0382 13.021 11.0882 13.0054 11.1601 12.9835C11.232 12.9647 11.3289 12.9397 11.4258 12.9116C11.6228 12.8616 11.8228 12.8084 11.8604 12.7959C12.1104 12.7146 12.3418 12.6271 12.5794 12.5271C12.8201 12.4302 13.0545 12.3114 13.2952 12.1551C13.5578 11.9863 13.8079 11.8081 14.0674 11.6361C14.3331 11.4673 14.5926 11.2954 14.8489 11.1172C15.0146 11.0015 15.1803 10.8859 15.3428 10.764C15.5148 10.6452 15.6804 10.5326 15.8461 10.417C16.1838 10.1856 16.5026 9.93867 16.8371 9.70421C17.0278 9.57604 17.5155 9.2478 17.9875 8.91018C18.4783 8.59132 18.9691 8.27559 19.1473 8.12553C19.0504 7.99111 18.6659 8.00987 18.4752 8.00362C18.2157 7.99424 17.9375 8.01612 17.653 8.05051C17.5405 8.06301 17.4279 8.07864 17.3123 8.0974C17.1997 8.11928 17.0872 8.14116 16.9747 8.16617C16.7464 8.21619 16.5151 8.27559 16.2775 8.34436C16.04 8.41313 15.7992 8.49129 15.5554 8.57882C15.3147 8.6726 15.0802 8.78201 14.8395 8.90081C14.3706 9.13526 13.8579 9.40411 13.3984 9.76673C12.9326 10.12 12.4762 10.5201 12.1323 11.0109C12.0573 11.1141 11.9823 11.2204 11.9073 11.3267C11.5259 11.8456 11.2351 12.4333 11.0351 13.0148L11.0382 13.021Z" fill="var(--fill-0, #1B1C1A)"/>
<path id="Vector_16" d="M12.4826 9.23841C12.4826 9.23841 12.4888 9.18839 12.4888 9.11337C12.4888 9.03834 12.4951 8.93831 12.4982 8.83515C12.5045 8.63195 12.5138 8.41625 12.517 8.37561C12.5857 7.83792 12.6951 7.35025 12.9702 6.7813C13.0453 6.62812 13.1203 6.47181 13.2016 6.32176C13.2891 6.17171 13.3766 6.02166 13.461 5.87473C13.6392 5.57775 13.8237 5.27764 14.0175 4.98067C14.08 4.88376 14.1425 4.78685 14.2113 4.69306C14.2801 4.59928 14.352 4.50862 14.4207 4.41484C14.5614 4.2304 14.7052 4.04596 14.8522 3.86152C14.9991 3.67708 15.1491 3.49264 15.3023 3.31133C15.4555 3.12689 15.6212 2.96121 15.7837 2.78614C15.8775 2.68923 16.0432 2.51417 16.2433 2.3016C16.4496 2.09215 16.6809 1.83268 16.9404 1.60135C17.4499 1.12931 17.972 0.663523 18.2002 0.491587C18.3002 0.610379 18.1314 1.00739 18.072 1.20434C17.9876 1.47318 17.872 1.74828 17.7469 2.0265C17.6469 2.24533 17.5406 2.46728 17.4312 2.69236C17.3249 2.92369 17.2124 3.15815 17.0936 3.39261C16.9748 3.62706 16.8497 3.86152 16.7184 4.09598C16.6528 4.21477 16.584 4.33044 16.5152 4.44923C16.4433 4.56489 16.3808 4.69306 16.3089 4.81186C16.1714 5.04944 16.0244 5.2964 15.8681 5.54024C15.79 5.66215 15.7087 5.78407 15.6274 5.90599C15.543 6.02791 15.4586 6.14983 15.3773 6.27487C15.2085 6.52496 15.0303 6.76879 14.8396 7.00325C14.7427 7.11892 14.6458 7.23458 14.5427 7.34712C14.4926 7.40339 14.4395 7.45654 14.3864 7.51281L14.2301 7.67849C14.1394 7.77227 14.0487 7.86605 13.955 7.95984C13.7236 8.19117 13.4829 8.41625 13.2328 8.62882C12.9827 8.83827 12.7452 9.05397 12.4826 9.23529V9.23841Z" fill="var(--fill-0, #1B1C1A)"/>
</g>
<path id="Vector_17" d="M17.7313 5.52148C19.4788 4.96191 20.9262 3.90216 22.483 2.99872C24.0491 2.12341 25.6653 1.26373 27.0471 0.00391536C26.0811 -0.0273456 25.1558 0.132085 24.2305 0.357165C23.2145 0.619757 22.2016 0.988636 21.2638 1.52945C19.7508 2.46416 18.444 3.88028 17.7344 5.52148H17.7313Z" fill="var(--fill-0, #1B1C1A)"/>
</g>
</svg>
