<svg preserveAspectRatio="none" width="100%" height="100%" overflow="visible" style="display: block;" viewBox="0 0 1046 1046" fill="none" xmlns="http://www.w3.org/2000/svg">
<g id="Group 1000003450">
<circle id="Ellipse 4" cx="523" cy="523" r="397.198" stroke="var(--stroke-0, #3A384A)" stroke-opacity="0.3"/>
<circle id="Ellipse 5" cx="523" cy="523" r="522.5" stroke="var(--stroke-0, #3A384A)" stroke-opacity="0.2"/>
<circle id="Ellipse 6" cx="523" cy="523" r="303.221" stroke="var(--stroke-0, #3A384A)" stroke-opacity="0.5"/>
<path id="Vector" d="M219.279 249.242L220.201 252.602C221.704 258.087 225.804 262.37 231.047 263.94L234.26 264.905L231.047 265.87C225.8 267.44 221.704 271.727 220.201 277.208L219.279 280.568L218.356 277.208C216.854 271.723 212.753 267.44 207.511 265.87L204.297 264.905L207.511 263.94C212.757 262.37 216.854 258.082 218.356 252.602L219.279 249.242Z" fill="var(--fill-0, #1E1F1D)"/>
<path id="Vector_2" d="M204.297 745.002L205.22 748.216C206.722 753.462 210.823 757.559 216.065 759.061L219.279 759.984L216.065 760.906C210.819 762.409 206.722 766.51 205.22 771.752L204.297 774.965L203.374 771.752C201.872 766.505 197.771 762.409 192.529 760.906L189.315 759.984L192.529 759.061C197.776 757.559 201.872 753.458 203.374 748.216L204.297 745.002Z" fill="var(--fill-0, #1E1F1D)"/>
<path id="Vector_3" d="M831.488 758.623L832.453 761.983C834.023 767.468 838.31 771.751 843.791 773.321L847.151 774.286L843.791 775.25C838.306 776.821 834.023 781.108 832.453 786.589L831.488 789.949L830.523 786.589C828.953 781.104 824.665 776.821 819.185 775.25L815.825 774.286L819.185 773.321C824.67 771.751 828.953 767.463 830.523 761.983L831.488 758.623Z" fill="var(--fill-0, #1E1F1D)"/>
<path id="Vector_4" d="M1003.66 301L1004.63 304.36C1006.2 309.845 1010.49 314.128 1015.97 315.698L1019.33 316.663L1015.97 317.627C1010.48 319.198 1006.2 323.485 1004.63 328.966L1003.66 332.326L1002.7 328.966C1001.13 323.481 996.84 319.198 991.36 317.627L988 316.663L991.36 315.698C996.845 314.128 1001.13 309.84 1002.7 304.36L1003.66 301Z" fill="var(--fill-0, #1E1F1D)"/>
</g>
</svg>
