<svg preserveAspectRatio="none" width="100%" height="100%" overflow="visible" style="display: block;" viewBox="0 0 44 90" fill="none" xmlns="http://www.w3.org/2000/svg">
<g id="Group">
<g id="Group_2">
<path id="Vector" d="M43.7096 85.6261C43.7096 85.6261 43.6973 85.6056 43.681 85.5688C43.6646 85.5321 43.6442 85.4789 43.6197 85.4135C43.5706 85.2827 43.5093 85.111 43.4398 84.9312C43.3131 84.5755 43.1782 84.2036 43.1578 84.1382C42.9779 83.6967 42.8021 83.2838 42.6059 82.9037C42.5078 82.7115 42.4056 82.5317 42.2912 82.3559C42.1808 82.1761 42.0582 82.0085 41.9274 81.845C41.6412 81.4893 41.351 81.1664 41.0649 80.8271C40.7787 80.4919 40.4926 80.169 40.2064 79.8583C39.8385 79.4373 39.4625 79.0531 39.0864 78.6729C38.8984 78.4808 38.7144 78.2927 38.5264 78.1088C38.3384 77.9289 38.1503 77.745 37.9664 77.561C37.7579 77.3526 37.2265 76.8334 36.7196 76.302C36.5888 76.1712 36.4621 76.0445 36.3395 75.9219C36.2168 75.7952 36.0983 75.6766 35.992 75.5662C35.7754 75.3496 35.5955 75.1861 35.477 75.1084C35.2726 75.4804 35.3135 76.208 35.3175 76.5963C35.3175 77.1196 35.3666 77.6387 35.4524 78.1415C35.7141 79.7234 36.2332 81.3217 37.1039 82.6666C37.5249 83.3411 38.044 83.9828 38.649 84.5265C38.9515 84.7963 39.2785 85.0252 39.6219 85.2173C39.9653 85.4135 40.3291 85.5566 40.7051 85.6383C40.8686 85.6751 41.0322 85.7078 41.1957 85.7364C41.6044 85.8223 42.0296 85.8386 42.4506 85.8305C42.6631 85.8223 42.8716 85.81 43.0801 85.7773C43.2927 85.7405 43.5011 85.6915 43.7055 85.6302L43.7096 85.6261Z" fill="url(#paint0_linear_2428_12)"/>
<path id="Vector_2" d="M38.1098 87.0854C38.1098 87.0854 38.0893 87.0976 38.0566 87.1221C38.0239 87.1467 37.979 87.1835 37.9258 87.2284C37.8196 87.3143 37.6724 87.4287 37.5252 87.5473C37.2268 87.7844 36.9121 88.0296 36.8549 88.0664C36.4502 88.3362 36.0496 88.5855 35.6408 88.7777C35.2279 88.9698 34.8028 89.1169 34.3327 89.2028C33.8218 89.3009 33.3108 89.3581 32.7958 89.4072C32.5382 89.4317 32.2766 89.4521 32.015 89.4644C31.7534 89.4767 31.4959 89.4808 31.2343 89.4808C30.895 89.4808 30.5516 89.4767 30.2083 89.4603C29.8649 89.444 29.5297 89.4072 29.1863 89.3745C28.847 89.3377 28.4996 89.2968 28.1603 89.2437C27.821 89.1864 27.4818 89.1251 27.1384 89.0597C26.9463 89.0188 26.5988 88.9616 26.186 88.8635C25.7731 88.7654 25.2826 88.6469 24.788 88.5201C24.2974 88.3893 23.8151 88.2381 23.4063 88.1032C23.2019 88.0337 23.0139 87.9724 22.8586 87.9111C22.7032 87.8498 22.5765 87.7925 22.4866 87.7435C22.691 87.3879 23.4554 87.1467 23.8314 86.975C24.3424 86.7502 24.8697 86.5662 25.397 86.4027C25.8099 86.276 26.2309 86.1493 26.656 86.0266C27.0812 85.9081 27.5063 85.7977 27.9273 85.6996C28.3483 85.6056 28.7816 85.4993 29.2068 85.4217C29.6319 85.3399 30.0529 85.2786 30.478 85.2214C32.1458 85.0088 33.9403 84.8739 35.4119 85.483C35.5713 85.5484 35.7307 85.6138 35.8902 85.6833C36.6791 86.0348 37.4476 86.464 38.1098 87.0813V87.0854Z" fill="url(#paint1_linear_2428_12)"/>
<path id="Vector_3" d="M31.8511 81.7181C31.8511 81.7181 31.847 81.6976 31.8388 81.6567C31.8347 81.62 31.8266 81.5627 31.8184 81.4973C31.8061 81.3665 31.7857 81.1907 31.7693 81.0068C31.7366 80.6471 31.7039 80.2751 31.6958 80.2097C31.5568 79.3227 31.4341 78.5092 31.0744 77.7816C30.6984 76.9722 30.3018 76.216 29.9094 75.4639C29.7827 75.2227 29.6478 74.9897 29.517 74.7526C29.3862 74.5155 29.2554 74.2825 29.1205 74.0536C28.8466 73.604 28.585 73.1421 28.3111 72.7047C28.1517 72.4635 27.7879 71.8013 27.4118 71.18C27.0562 70.53 26.6842 69.921 26.5126 69.7002C26.2346 69.9741 26.0956 70.669 26.0139 71.0205C25.8953 71.4988 25.8258 71.9812 25.7849 72.4676C25.6541 74.0046 25.7849 75.5947 26.2755 77.0949C26.766 78.5419 27.6162 80.0993 28.9815 80.8515C29.1246 80.9373 29.2799 81.0068 29.4271 81.0804C29.8031 81.2643 30.1915 81.4237 30.6003 81.5341C31.009 81.6404 31.4301 81.7058 31.8511 81.7181Z" fill="url(#paint2_linear_2428_12)"/>
<path id="Vector_4" d="M26.1618 81.3997C26.1618 81.3997 26.1414 81.4038 26.1046 81.4161C26.0678 81.4283 26.0187 81.4488 25.9533 81.4733C25.8307 81.5224 25.6631 81.5837 25.4914 81.6491C25.1522 81.7799 24.7884 81.9107 24.727 81.927C24.2815 82.0497 23.8482 82.1519 23.4108 82.205C22.9734 82.2622 22.5279 82.2786 22.07 82.205C21.5713 82.1314 21.0726 82.0456 20.5698 81.9352C20.0752 81.8167 19.5847 81.6859 19.0901 81.5387C18.4483 81.3425 17.8311 81.0932 17.2016 80.8315C16.5843 80.5577 15.9794 80.2511 15.3703 79.9323C15.2027 79.8382 14.9043 79.6665 14.5405 79.4622C14.1767 79.2537 13.7434 79.0043 13.3264 78.7305C12.9095 78.4607 12.4885 78.1868 12.141 77.9375C11.8017 77.684 11.5279 77.4674 11.3848 77.3284C11.6587 77.0627 12.4271 77.0668 12.8073 77.0259C13.3264 76.9809 13.866 76.9646 14.3933 76.9728C14.8103 76.9768 15.2313 76.9891 15.6483 77.0136C16.0652 77.0341 16.4944 77.0545 16.9154 77.0913C17.3365 77.124 17.7493 77.1771 18.1663 77.2303C18.5873 77.2834 19.0002 77.3447 19.4089 77.4224C19.6092 77.4592 19.8095 77.5042 20.0139 77.5491C20.2183 77.59 20.4268 77.635 20.6312 77.684C21.0399 77.7821 21.4405 77.9007 21.837 78.0356C22.2335 78.1664 22.6178 78.3176 22.9734 78.5056C23.329 78.6937 23.6806 78.894 23.9912 79.1474C24.1261 79.2537 24.2569 79.3641 24.3878 79.4785C25.0622 80.0181 25.6672 80.6599 26.1577 81.3956L26.1618 81.3997Z" fill="url(#paint3_linear_2428_12)"/>
<path id="Vector_5" d="M21.5337 74.642C21.5337 74.642 21.5337 74.6216 21.5337 74.5848C21.5377 74.548 21.5459 74.4989 21.5541 74.4335C21.5704 74.3109 21.595 74.1433 21.6195 73.9716C21.6726 73.6323 21.7258 73.2808 21.734 73.2195C21.7789 72.7862 21.8157 72.3733 21.8239 71.9768C21.828 71.5803 21.7953 71.1961 21.7217 70.7955C21.6358 70.3663 21.5418 69.9493 21.4478 69.5365C21.3579 69.1154 21.2639 68.7067 21.1576 68.302C21.0227 67.7788 20.8919 67.2514 20.7366 66.7487C20.5894 66.2377 20.4422 65.7308 20.2828 65.2403C20.2379 65.1013 20.1684 64.8479 20.0825 64.5413C20.0376 64.39 19.9885 64.2225 19.9395 64.0508C19.8863 63.8791 19.8332 63.7033 19.7923 63.5235C19.6043 62.7999 19.3999 62.105 19.2732 61.8516C18.9543 62.0274 18.6886 62.6242 18.5292 62.9267C18.3125 63.3395 18.1409 63.7687 17.9937 64.2143C17.8793 64.5617 17.7689 64.9255 17.683 65.2893C17.6013 65.6491 17.5318 66.017 17.4787 66.393C17.3642 67.1452 17.3438 67.9055 17.401 68.674C17.4255 69.0541 17.4787 69.4343 17.5522 69.8185C17.6299 70.2028 17.7198 70.5952 17.8506 70.9672C18.1204 71.707 18.4924 72.4224 19.0483 72.966C19.1669 73.0846 19.2854 73.2031 19.4081 73.3176C20.0253 73.8817 20.7325 74.3722 21.5377 74.6379L21.5337 74.642Z" fill="url(#paint4_linear_2428_12)"/>
<path id="Vector_6" d="M16.2941 72.6195C16.2941 72.6195 16.2737 72.6195 16.2369 72.6195C16.2001 72.6195 16.147 72.6195 16.0856 72.6277C15.9589 72.6358 15.7913 72.644 15.6156 72.6522C15.2722 72.6645 14.9125 72.6726 14.8471 72.6685C13.96 72.6236 13.1425 72.5296 12.3291 72.129C11.4338 71.7039 10.5877 71.1888 9.74563 70.6247C9.21832 70.2445 8.70327 69.8317 8.19639 69.4025C7.94704 69.1858 7.68543 68.9692 7.44834 68.7362C7.21125 68.5032 6.97417 68.2661 6.74117 68.0249C6.61036 67.89 6.37328 67.6448 6.08714 67.3464C5.94407 67.1951 5.78465 67.0357 5.62932 66.8599C5.47807 66.6801 5.31865 66.4961 5.15923 66.3081C4.53381 65.556 3.90022 64.7875 3.72854 64.4318C4.0392 64.2642 4.71776 64.5013 5.08565 64.5708C5.57618 64.6771 6.06261 64.8243 6.54087 64.9878C8.02879 65.5192 9.59438 66.1201 10.9924 66.9131C11.7077 67.2891 12.4312 67.7143 13.0771 68.2089C13.4041 68.4541 13.7311 68.7076 14.0173 68.9896C14.1603 69.1286 14.2993 69.2758 14.4301 69.427C14.565 69.5742 14.6917 69.7295 14.8062 69.893C14.9084 70.032 15.0024 70.1751 15.1005 70.3181C15.3376 70.6778 15.5706 71.0416 15.775 71.4259C15.9794 71.8101 16.1429 72.2189 16.2859 72.6277L16.2941 72.6195Z" fill="url(#paint5_linear_2428_12)"/>
<path id="Vector_7" d="M13.5836 64.9502C13.5836 64.9502 13.5877 64.9298 13.5999 64.8971C13.6122 64.8644 13.6326 64.8194 13.6531 64.7622C13.698 64.6518 13.7594 64.5006 13.8248 64.3493C13.9515 64.0469 14.0864 63.7362 14.1068 63.679C14.3848 62.8941 14.5851 62.2074 14.6341 61.4062C14.6791 60.5437 14.6587 59.718 14.6832 58.88C14.6914 58.3363 14.6587 57.8131 14.6423 57.2817C14.6341 56.7503 14.6096 56.223 14.5769 55.7079C14.5728 55.6344 14.5646 55.5363 14.5565 55.4136C14.5565 55.291 14.5524 55.1438 14.5483 54.9844C14.5442 54.6656 14.5319 54.2936 14.5197 53.9257C14.5115 53.7418 14.5033 53.5578 14.4951 53.382C14.4951 53.2022 14.4952 53.0305 14.4911 52.8752C14.4829 52.5645 14.4706 52.3111 14.442 52.168C14.115 52.2375 13.7307 52.7321 13.5182 52.9774C13.228 53.3044 12.9582 53.6723 12.7293 54.0483C12.3736 54.6411 12.0466 55.2787 11.7727 55.9614C11.7033 56.1331 11.6378 56.3047 11.5765 56.4805C11.5234 56.6522 11.4703 56.828 11.4212 57.0038C11.3272 57.3594 11.2454 57.7232 11.1841 58.0952C11.1514 58.2791 11.1269 58.4631 11.1024 58.6552C11.0778 58.8473 11.0574 59.0394 11.0533 59.2275C11.037 59.6117 11.041 60.0041 11.0737 60.3965C11.1105 60.7849 11.1555 61.1855 11.2659 61.5574C11.3762 61.9294 11.5193 62.2932 11.7033 62.6366C11.7809 62.7838 11.8668 62.9309 11.9485 63.074C12.1488 63.4419 12.4104 63.7771 12.6843 64.0959C12.9623 64.4107 13.2607 64.705 13.5918 64.9584L13.5836 64.9502Z" fill="url(#paint6_linear_2428_12)"/>
<path id="Vector_8" d="M9.27092 61.4682C9.27092 61.4682 9.19326 61.4396 9.0788 61.4069C8.96434 61.3742 8.80901 61.3292 8.64959 61.2843C8.33484 61.1943 8.00374 61.0962 7.94651 61.0758C7.55 60.9246 7.16167 60.7692 6.81013 60.5689C6.45859 60.3686 6.12339 60.1275 5.80047 59.8209C5.45301 59.4857 5.10556 59.1423 4.77445 58.7785C4.45561 58.4106 4.14495 58.0305 3.84246 57.638C3.64625 57.3846 3.45413 57.123 3.26201 56.8573C3.07806 56.5875 2.91046 56.3136 2.74287 56.0316C2.57527 55.7536 2.40768 55.4675 2.24417 55.1813C2.08475 54.8911 1.91306 54.605 1.77408 54.3066C1.61057 53.9714 1.19363 53.113 0.793034 52.2259C0.429229 51.3348 0.0899488 50.4192 1.94341e-05 50.039C0.314772 49.9695 0.874788 50.3865 1.17319 50.5622C1.57787 50.8034 1.9662 51.0855 2.34227 51.3798C2.92681 51.8458 3.56041 52.3322 4.14086 52.8554C4.43518 53.1171 4.72131 53.3828 4.99928 53.6607C5.28133 53.9346 5.57156 54.2126 5.84543 54.5028C6.38501 55.071 6.90006 55.6964 7.40284 56.3504C7.88928 57.0045 8.27352 57.7116 8.55966 58.4556C8.61689 58.6191 8.67003 58.7785 8.72726 58.942C8.98478 59.7637 9.21778 60.6016 9.26684 61.4723L9.27092 61.4682Z" fill="url(#paint7_linear_2428_12)"/>
<path id="Vector_9" d="M8.61689 53.411C8.61689 53.411 8.65776 53.3456 8.71908 53.2516C8.78448 53.1617 8.87033 53.039 8.96025 52.9123C9.13603 52.663 9.34041 52.4054 9.36902 52.3564C9.8105 51.6901 10.1784 51.0851 10.3787 50.3412C10.5013 49.9365 10.6199 49.5318 10.7261 49.1271C10.8365 48.7224 10.9223 48.3259 11.0286 47.9253C11.1676 47.4062 11.2862 46.887 11.3883 46.372C11.4333 46.1145 11.4946 45.8569 11.5559 45.5994C11.6132 45.3419 11.6663 45.0844 11.7195 44.8268C11.7481 44.6838 11.7971 44.4263 11.8584 44.1156C11.932 43.8049 12.0179 43.437 12.1037 43.0732C12.1854 42.7053 12.2631 42.3415 12.3285 42.0431C12.4021 41.7365 12.4593 41.4831 12.4716 41.34C12.1691 41.3155 11.7072 41.6916 11.4538 41.8674C11.1063 42.1044 10.8038 42.3824 10.5095 42.6849C10.0476 43.1591 9.59385 43.6864 9.18099 44.2627C8.79266 44.8391 8.43703 45.4686 8.13454 46.1472L8.02417 46.4006C7.99147 46.4865 7.95877 46.5723 7.93015 46.6581C7.86884 46.8339 7.80752 47.0097 7.75438 47.1936C7.64401 47.5574 7.54591 47.9335 7.47233 48.3177C7.39058 48.702 7.37422 49.0903 7.37014 49.4827C7.37014 49.8711 7.40693 50.2635 7.48051 50.6436C7.50912 50.8072 7.55409 50.9707 7.59905 51.1342C7.70942 51.5389 7.84431 51.9394 8.00782 52.3237C8.08957 52.5158 8.1795 52.7038 8.27352 52.8878C8.37571 53.0677 8.49425 53.2434 8.6128 53.411H8.61689Z" fill="url(#paint8_linear_2428_12)"/>
<path id="Vector_10" d="M5.61678 48.8284C5.61678 48.8284 5.55547 48.7793 5.46554 48.718C5.37152 48.6526 5.24889 48.5668 5.12217 48.4768C4.86873 48.3011 4.60303 48.1089 4.55807 48.0721C4.2474 47.8105 3.95718 47.553 3.68739 47.2587C3.55658 47.1115 3.42169 46.9603 3.30723 46.7927C3.19278 46.6251 3.0865 46.4493 2.9843 46.2572C2.55101 45.4233 2.12997 44.5445 1.82339 43.6288C1.71711 43.3304 1.61901 43.0279 1.52499 42.7213C1.43098 42.4148 1.33696 42.1082 1.26747 41.7934C1.12031 41.168 0.989506 40.5303 0.870963 39.8886C0.805559 39.5288 0.682926 38.5969 0.568471 37.6485C0.503067 37.1743 0.490804 36.7002 0.466278 36.2955C0.449927 35.8908 0.441752 35.5556 0.454016 35.3635C0.744242 35.3798 1.12031 35.9235 1.33287 36.1688C1.61901 36.504 1.88062 36.8759 2.12589 37.2602C2.95569 38.4701 3.70374 39.7864 4.37412 41.1966C4.53354 41.5441 4.6807 41.9038 4.83603 42.2717C4.99545 42.6396 5.14261 43.0157 5.26933 43.3999C5.40013 43.7801 5.49006 44.1725 5.57999 44.5608C5.67401 44.9532 5.73532 45.3456 5.75576 45.7422C5.76394 45.9138 5.76803 46.0855 5.7762 46.2572C5.7762 46.6864 5.8089 47.1197 5.78438 47.5489C5.76394 47.9781 5.71489 48.4073 5.62496 48.8284H5.61678Z" fill="url(#paint9_linear_2428_12)"/>
<path id="Vector_11" d="M7.07151 40.9228C7.07151 40.9228 7.12465 40.8697 7.20232 40.8002C7.28407 40.7307 7.39035 40.6367 7.50072 40.5386C7.72146 40.3464 7.95037 40.1543 7.99125 40.1175C8.54309 39.5943 9.03361 39.112 9.4015 38.4416C9.59362 38.0778 9.81436 37.7181 10.0147 37.3583C10.215 36.9986 10.4071 36.6348 10.591 36.271C10.8445 35.8009 11.0938 35.3267 11.3227 34.8526C11.4413 34.6155 11.5394 34.3743 11.6661 34.1372C11.7846 33.9001 11.9032 33.6631 12.0217 33.426C12.1566 33.1603 12.4673 32.4776 12.8311 31.8154C13.0069 31.4802 13.1745 31.1491 13.3093 30.863C13.4483 30.5768 13.575 30.3479 13.6282 30.209C13.3707 30.1108 12.8638 30.3602 12.594 30.4706C12.2384 30.6177 11.8991 30.8139 11.5557 31.0306C11.2859 31.2023 11.0202 31.3862 10.7504 31.5865C10.4847 31.7868 10.215 31.9953 9.96969 32.2283C9.47508 32.6861 8.98864 33.2052 8.54309 33.7816C8.13432 34.3539 7.72146 34.9997 7.38627 35.7028C7.08786 36.41 6.85078 37.1703 6.78946 37.947C6.78537 38.1146 6.7772 38.2822 6.77311 38.4498C6.76085 38.8708 6.77311 39.2918 6.81399 39.7088C6.83034 39.9172 6.86713 40.1216 6.91209 40.326C6.95706 40.5304 7.0102 40.7307 7.07151 40.9228Z" fill="url(#paint10_linear_2428_12)"/>
<path id="Vector_12" d="M5.65323 35.6994C5.65323 35.6994 5.61235 35.6381 5.54695 35.5522C5.47746 35.4664 5.39571 35.3478 5.30986 35.2293C5.13818 34.9922 4.95832 34.7429 4.92971 34.6938C4.72941 34.3627 4.54955 34.0398 4.39422 33.6882C4.24706 33.3408 4.10399 32.9647 4.04268 32.5478C3.9691 32.094 3.90778 31.6321 3.85464 31.162C3.83012 30.929 3.80559 30.692 3.78515 30.4549C3.7688 30.2178 3.76471 29.9807 3.75654 29.7436C3.74427 29.1264 3.74836 28.4928 3.77698 27.8592C3.83012 27.2297 3.89552 26.592 3.97727 25.9543C4.00589 25.5905 4.17348 24.6789 4.34925 23.7592C4.39422 23.5262 4.44327 23.2973 4.48415 23.0766C4.5332 22.8558 4.59043 22.6474 4.64357 22.4552C4.74576 22.0669 4.83978 21.7522 4.90927 21.5723C5.15862 21.6581 5.32213 22.259 5.43658 22.5411C5.58783 22.9294 5.69411 23.3382 5.81674 23.7633C6.00477 24.4378 6.16828 25.1368 6.30318 25.848C6.37267 26.2241 6.43807 26.5879 6.49938 26.9394C6.5607 27.3073 6.61384 27.6834 6.65063 28.0595C6.71195 28.7953 6.81823 29.5964 6.81414 30.3895C6.80188 31.1825 6.78552 31.9918 6.59749 32.7644C6.55661 32.932 6.51573 33.0955 6.47077 33.2631C6.37675 33.6801 6.27456 34.1011 6.13558 34.5058C6.00477 34.9145 5.829 35.3111 5.65732 35.6912L5.65323 35.6994Z" fill="url(#paint11_linear_2428_12)"/>
<path id="Vector_13" d="M9.05861 28.4642C9.05861 28.4642 9.11993 28.4274 9.20986 28.3783C9.29979 28.3293 9.41833 28.268 9.54505 28.2026C9.79031 28.0718 10.0478 27.941 10.0887 27.9164C10.3912 27.7284 10.6896 27.5485 10.9717 27.3483C11.2537 27.148 11.5235 26.919 11.781 26.6411C11.92 26.4898 12.059 26.3386 12.1939 26.1873C12.3288 26.0361 12.48 25.8889 12.619 25.7377C12.9011 25.4393 13.1749 25.1327 13.4406 24.8261C13.5265 24.7239 13.6123 24.6258 13.6982 24.5236C13.7881 24.4255 13.878 24.3234 13.9679 24.2252C14.1437 24.0249 14.3195 23.8247 14.4912 23.6244C14.6628 23.4241 14.8304 23.2197 14.994 23.0112C15.1615 22.8068 15.3455 22.6106 15.5131 22.4103C15.6112 22.2959 15.7829 22.0956 15.9914 21.8503C16.0935 21.7277 16.208 21.5928 16.3265 21.4538C16.4451 21.3148 16.58 21.1799 16.7026 21.0368C16.9601 20.7548 17.2095 20.4768 17.418 20.2316C17.5201 20.1089 17.6142 19.9986 17.6918 19.9005C17.7736 19.8064 17.8431 19.7288 17.888 19.6675C17.6918 19.5162 17.1686 19.6429 16.9152 19.6961C16.5595 19.7615 16.1998 19.8718 15.836 20.0027C15.5499 20.1048 15.2556 20.2234 14.9612 20.3501C14.6628 20.4768 14.389 20.6322 14.0987 20.7916C13.8126 20.9551 13.5265 21.1309 13.2362 21.323C12.9501 21.5151 12.6599 21.7195 12.3983 21.9525C12.1326 22.1773 11.8669 22.4226 11.5971 22.6801C11.4622 22.8109 11.3314 22.9458 11.2006 23.0848C11.1352 23.1584 11.0698 23.2278 11.0084 23.2973C10.9471 23.375 10.8899 23.4486 10.8286 23.5222C10.5956 23.8247 10.3708 24.1435 10.1705 24.4787C9.97017 24.8139 9.78622 25.1613 9.66359 25.5292C9.61045 25.6886 9.55731 25.8481 9.50417 26.0075C9.37336 26.4081 9.25891 26.8128 9.17307 27.2215C9.10766 27.6344 9.06679 28.0513 9.0627 28.456L9.05861 28.4642Z" fill="url(#paint12_linear_2428_12)"/>
<path id="Vector_14" d="M9.31538 23.1213C9.31538 23.1213 9.29903 23.0518 9.26633 22.9537C9.23363 22.8556 9.19275 22.7248 9.14779 22.5899C9.05786 22.3201 8.98428 22.0421 8.97202 21.989C8.82077 21.2696 8.72675 20.5869 8.82894 19.7489C8.90252 19.3034 8.98837 18.8537 9.08238 18.4041C9.13144 18.1793 9.18049 17.9504 9.23363 17.7214C9.28677 17.4925 9.33991 17.2636 9.41349 17.0429C9.58926 16.4624 9.78956 15.8738 10.0062 15.2852C10.1084 14.9868 10.2392 14.7047 10.3659 14.4145C10.4967 14.1243 10.6275 13.8381 10.7583 13.552C10.836 13.3885 10.9709 13.0983 11.1344 12.7467C11.3143 12.4034 11.5309 11.9987 11.7557 11.594C11.9806 11.1893 12.2013 10.7805 12.4098 10.4453C12.6223 10.1142 12.8063 9.84445 12.9207 9.69729C13.1129 9.83219 13.0679 10.4167 13.0761 10.6988C13.0761 11.083 13.0679 11.5 13.0352 11.921C12.9861 12.5832 12.9126 13.2659 12.8063 13.9608C12.7204 14.6679 12.6019 15.3915 12.4343 16.1109C12.3444 16.4624 12.279 16.8426 12.189 17.2146C12.0991 17.5906 11.9969 17.9708 11.8743 18.3428C11.7476 18.7148 11.6331 19.099 11.4859 19.4669C11.3388 19.8389 11.1712 20.1986 10.975 20.542L10.8442 20.7627L10.7256 20.9916C10.5253 21.3677 10.3046 21.7397 10.0675 22.0953C9.94898 22.2711 9.82226 22.4468 9.69554 22.6144C9.56882 22.7861 9.44619 22.9537 9.31538 23.1172V23.1213Z" fill="url(#paint13_linear_2428_12)"/>
<path id="Vector_15" d="M14.4338 17.0265C14.4338 17.0265 14.4992 17.0061 14.5932 16.9775C14.6872 16.9529 14.814 16.9202 14.9407 16.8835C15.1982 16.8181 15.4598 16.7486 15.5089 16.7322C15.8359 16.6259 16.1384 16.5115 16.449 16.3807C16.7638 16.254 17.0704 16.0986 17.3851 15.8942C17.7285 15.6735 18.0555 15.4405 18.3948 15.2157C18.7422 14.9949 19.0815 14.7701 19.4167 14.5371C19.6334 14.3859 19.85 14.2346 20.0626 14.0752C20.2874 13.9199 20.504 13.7727 20.7207 13.6215C21.1621 13.319 21.5791 12.9961 22.0165 12.6895C22.2658 12.5219 22.9035 12.0927 23.5208 11.6512C24.1625 11.2343 24.8043 10.8214 25.0373 10.6252C24.9106 10.4494 24.4078 10.4739 24.1584 10.4658C23.8192 10.4535 23.4554 10.4821 23.0834 10.5271C22.9362 10.5434 22.7891 10.5639 22.6378 10.5884C22.4906 10.617 22.3435 10.6456 22.1963 10.6783C21.8979 10.7437 21.5954 10.8214 21.2848 10.9113C20.9741 11.0013 20.6594 11.1034 20.3405 11.2179C20.0258 11.3405 19.7192 11.4836 19.4044 11.6389C18.7913 11.9455 18.1209 12.2971 17.52 12.7712C16.9109 13.2331 16.3141 13.7564 15.8645 14.3981C15.7664 14.533 15.6683 14.672 15.5702 14.811C15.0715 15.4896 14.6913 16.258 14.4297 17.0184L14.4338 17.0265Z" fill="url(#paint14_linear_2428_12)"/>
<path id="Vector_16" d="M16.3222 12.08C16.3222 12.08 16.3304 12.0146 16.3304 11.9165C16.3304 11.8184 16.3385 11.6876 16.3426 11.5527C16.3508 11.287 16.3631 11.0049 16.3671 10.9518C16.4571 10.2487 16.6001 9.61101 16.9599 8.86705C17.058 8.66675 17.1561 8.46236 17.2624 8.26615C17.3768 8.06994 17.4913 7.87374 17.6016 7.68161C17.8346 7.29328 18.0758 6.90086 18.3292 6.51253C18.411 6.38581 18.4927 6.25909 18.5827 6.13646C18.6726 6.01383 18.7666 5.89529 18.8566 5.77266C19.0405 5.53148 19.2285 5.29031 19.4207 5.04913C19.6128 4.80796 19.809 4.56679 20.0093 4.3297C20.2096 4.08853 20.4262 3.87188 20.6388 3.64297C20.7614 3.51625 20.9781 3.28734 21.2397 3.00937C21.5095 2.7355 21.812 2.39622 22.1512 2.09373C22.8175 1.47649 23.5002 0.867418 23.7986 0.642595C23.9294 0.797927 23.7087 1.31707 23.631 1.57459C23.5206 1.92613 23.3694 2.28585 23.2059 2.64966C23.0751 2.93579 22.9361 3.22602 22.793 3.52034C22.654 3.82283 22.5069 4.1294 22.3515 4.43598C22.1962 4.74256 22.0327 5.04913 21.861 5.35571C21.7752 5.51104 21.6852 5.66229 21.5953 5.81762C21.5013 5.96887 21.4195 6.13646 21.3255 6.2918C21.1457 6.60246 20.9535 6.92539 20.7492 7.24423C20.647 7.40365 20.5407 7.56307 20.4344 7.72249C20.324 7.88191 20.2137 8.04133 20.1074 8.20484C19.8866 8.53186 19.6537 8.8507 19.4043 9.15727C19.2776 9.30852 19.1509 9.45976 19.016 9.60692C18.9506 9.6805 18.8811 9.74999 18.8116 9.82357L18.6072 10.0402C18.4887 10.1628 18.3701 10.2855 18.2475 10.4081C17.945 10.7106 17.6302 11.0049 17.3032 11.2829C16.9762 11.5568 16.6655 11.8388 16.3222 12.0759V12.08Z" fill="url(#paint15_linear_2428_12)"/>
</g>
<path id="Vector_17" d="M23.1856 7.21991C25.4706 6.48821 27.3632 5.10248 29.3989 3.92114C31.4469 2.77658 33.5602 1.65246 35.367 0.00511974C34.1039 -0.0357573 32.8939 0.172715 31.6839 0.46703C30.3554 0.810397 29.031 1.29275 27.8047 1.99992C25.8263 3.22214 24.1176 5.07387 23.1897 7.21991H23.1856Z" fill="url(#paint16_linear_2428_12)"/>
</g>
<defs>
<linearGradient id="paint0_linear_2428_12" x1="36.7237" y1="82.0207" x2="40.7624" y2="79.6907" gradientUnits="userSpaceOnUse">
<stop stop-color="#BF966E"/>
<stop offset="0.15" stop-color="#C39C76"/>
<stop offset="0.39" stop-color="#D0AC8E"/>
<stop offset="0.7" stop-color="#E5C8B4"/>
<stop offset="1" stop-color="#FFE9E2"/>
</linearGradient>
<linearGradient id="paint1_linear_2428_12" x1="24.3301" y1="90.9523" x2="36.3357" y2="84.0196" gradientUnits="userSpaceOnUse">
<stop stop-color="#BF966E"/>
<stop offset="0.15" stop-color="#C39C76"/>
<stop offset="0.39" stop-color="#D0AC8E"/>
<stop offset="0.7" stop-color="#E5C8B4"/>
<stop offset="1" stop-color="#FFE9E2"/>
</linearGradient>
<linearGradient id="paint2_linear_2428_12" x1="26.2264" y1="77.4137" x2="29.8481" y2="75.3208" gradientUnits="userSpaceOnUse">
<stop stop-color="#BF966E"/>
<stop offset="0.15" stop-color="#C39C76"/>
<stop offset="0.39" stop-color="#D0AC8E"/>
<stop offset="0.7" stop-color="#E5C8B4"/>
<stop offset="1" stop-color="#FFE9E2"/>
</linearGradient>
<linearGradient id="paint3_linear_2428_12" x1="14.1113" y1="82.0497" x2="23.4312" y2="76.6703" gradientUnits="userSpaceOnUse">
<stop stop-color="#BF966E"/>
<stop offset="0.15" stop-color="#C39C76"/>
<stop offset="0.39" stop-color="#D0AC8E"/>
<stop offset="0.7" stop-color="#E5C8B4"/>
<stop offset="1" stop-color="#FFE9E2"/>
</linearGradient>
<linearGradient id="paint4_linear_2428_12" x1="17.213" y1="70.0924" x2="22.3226" y2="67.1411" gradientUnits="userSpaceOnUse">
<stop stop-color="#BF966E"/>
<stop offset="0.15" stop-color="#C39C76"/>
<stop offset="0.39" stop-color="#D0AC8E"/>
<stop offset="0.7" stop-color="#E5C8B4"/>
<stop offset="1" stop-color="#FFE9E2"/>
</linearGradient>
<linearGradient id="paint5_linear_2428_12" x1="7.07227" y1="70.22" x2="13.0894" y2="66.7455" gradientUnits="userSpaceOnUse">
<stop stop-color="#BF966E"/>
<stop offset="0.15" stop-color="#C39C76"/>
<stop offset="0.39" stop-color="#D0AC8E"/>
<stop offset="0.7" stop-color="#E5C8B4"/>
<stop offset="1" stop-color="#FFE9E2"/>
</linearGradient>
<linearGradient id="paint6_linear_2428_12" x1="10.4974" y1="60.5723" x2="17.0908" y2="56.7626" gradientUnits="userSpaceOnUse">
<stop stop-color="#BF966E"/>
<stop offset="0.15" stop-color="#C39C76"/>
<stop offset="0.39" stop-color="#D0AC8E"/>
<stop offset="0.7" stop-color="#E5C8B4"/>
<stop offset="1" stop-color="#FFE9E2"/>
</linearGradient>
<linearGradient id="paint7_linear_2428_12" x1="3.09441" y1="56.6406" x2="6.50764" y2="54.6704" gradientUnits="userSpaceOnUse">
<stop stop-color="#BF966E"/>
<stop offset="0.15" stop-color="#C39C76"/>
<stop offset="0.39" stop-color="#D0AC8E"/>
<stop offset="0.7" stop-color="#E5C8B4"/>
<stop offset="1" stop-color="#FFE9E2"/>
</linearGradient>
<linearGradient id="paint8_linear_2428_12" x1="6.42997" y1="49.6953" x2="14.5808" y2="44.9904" gradientUnits="userSpaceOnUse">
<stop stop-color="#BF966E"/>
<stop offset="0.15" stop-color="#C39C76"/>
<stop offset="0.39" stop-color="#D0AC8E"/>
<stop offset="0.7" stop-color="#E5C8B4"/>
<stop offset="1" stop-color="#FFE9E2"/>
</linearGradient>
<linearGradient id="paint9_linear_2428_12" x1="1.1898" y1="43.1628" x2="4.51719" y2="41.2416" gradientUnits="userSpaceOnUse">
<stop stop-color="#BF966E"/>
<stop offset="0.15" stop-color="#C39C76"/>
<stop offset="0.39" stop-color="#D0AC8E"/>
<stop offset="0.7" stop-color="#E5C8B4"/>
<stop offset="1" stop-color="#FFE9E2"/>
</linearGradient>
<linearGradient id="paint10_linear_2428_12" x1="5.48957" y1="38.1759" x2="15.0425" y2="32.6616" gradientUnits="userSpaceOnUse">
<stop stop-color="#BF966E"/>
<stop offset="0.15" stop-color="#C39C76"/>
<stop offset="0.39" stop-color="#D0AC8E"/>
<stop offset="0.7" stop-color="#E5C8B4"/>
<stop offset="1" stop-color="#FFE9E2"/>
</linearGradient>
<linearGradient id="paint11_linear_2428_12" x1="2.38716" y1="30.3036" x2="8.1222" y2="26.9926" gradientUnits="userSpaceOnUse">
<stop stop-color="#BF966E"/>
<stop offset="0.15" stop-color="#C39C76"/>
<stop offset="0.39" stop-color="#D0AC8E"/>
<stop offset="0.7" stop-color="#E5C8B4"/>
<stop offset="1" stop-color="#FFE9E2"/>
</linearGradient>
<linearGradient id="paint12_linear_2428_12" x1="8.04078" y1="26.6983" x2="18.4603" y2="20.6812" gradientUnits="userSpaceOnUse">
<stop stop-color="#BF966E"/>
<stop offset="0.15" stop-color="#C39C76"/>
<stop offset="0.39" stop-color="#D0AC8E"/>
<stop offset="0.7" stop-color="#E5C8B4"/>
<stop offset="1" stop-color="#FFE9E2"/>
</linearGradient>
<linearGradient id="paint13_linear_2428_12" x1="6.85867" y1="18.866" x2="15.3979" y2="13.9403" gradientUnits="userSpaceOnUse">
<stop stop-color="#BF966E"/>
<stop offset="0.15" stop-color="#C39C76"/>
<stop offset="0.39" stop-color="#D0AC8E"/>
<stop offset="0.7" stop-color="#E5C8B4"/>
<stop offset="1" stop-color="#FFE9E2"/>
</linearGradient>
<linearGradient id="paint14_linear_2428_12" x1="14.0087" y1="16.2907" x2="24.7266" y2="10.102" gradientUnits="userSpaceOnUse">
<stop stop-color="#BF966E"/>
<stop offset="0.15" stop-color="#C39C76"/>
<stop offset="0.39" stop-color="#D0AC8E"/>
<stop offset="0.7" stop-color="#E5C8B4"/>
<stop offset="1" stop-color="#FFE9E2"/>
</linearGradient>
<linearGradient id="paint15_linear_2428_12" x1="14.7811" y1="9.41071" x2="25.3437" y2="3.31186" gradientUnits="userSpaceOnUse">
<stop stop-color="#BF966E"/>
<stop offset="0.15" stop-color="#C39C76"/>
<stop offset="0.39" stop-color="#D0AC8E"/>
<stop offset="0.7" stop-color="#E5C8B4"/>
<stop offset="1" stop-color="#FFE9E2"/>
</linearGradient>
<linearGradient id="paint16_linear_2428_12" x1="22.7114" y1="6.39828" x2="34.9705" y2="-0.681609" gradientUnits="userSpaceOnUse">
<stop stop-color="#BF966E"/>
<stop offset="0.15" stop-color="#C39C76"/>
<stop offset="0.39" stop-color="#D0AC8E"/>
<stop offset="0.7" stop-color="#E5C8B4"/>
<stop offset="1" stop-color="#FFE9E2"/>
</linearGradient>
</defs>
</svg>
