<svg preserveAspectRatio="none" width="100%" height="100%" overflow="visible" style="display: block;" viewBox="0 0 105 14" fill="none" xmlns="http://www.w3.org/2000/svg">
<g id="Group">
<path id="Vector" d="M8.72074 8.50743H8.70123L8.62319 8.23433C8.46711 7.71496 8.19154 7.33701 7.80135 7.10293C7.40872 6.86885 6.86002 6.75181 6.15524 6.75181H3.72631V13.1891H6.97464C7.75746 13.1891 8.42322 13.0111 8.97192 12.6526C9.52062 12.2942 10.001 11.7261 10.4205 10.9458L10.7131 10.4191H10.8692C10.7912 10.8873 10.7034 11.4018 10.6058 11.9601C10.5083 12.5185 10.4205 13.0257 10.3425 13.4817H10.323L10.2839 13.7548H0V13.5207L0.234114 13.5012C0.702341 13.4744 1.04132 13.3378 1.24861 13.0915C1.45589 12.8453 1.56076 12.4551 1.56076 11.9211V1.99214C1.56076 1.45814 1.45589 1.06801 1.24861 0.821734C1.04132 0.57546 0.702341 0.438906 0.234114 0.412084L0 0.392581V0.158501H10.2815V3.49417H10.1254L9.94983 2.96748C9.68889 2.18721 9.31334 1.61907 8.8256 1.26063C8.33542 0.902196 7.70137 0.724193 6.91855 0.724193H3.74826V6.24463H6.17719C6.88197 6.24463 7.42579 6.13978 7.81355 5.93252C8.19886 5.72526 8.47687 5.38633 8.64514 4.91817L8.72317 4.68409H8.89876V8.50743H8.72317H8.72074Z" fill="var(--fill-0, #1D1E1C)"/>
<path id="Vector_2" d="M25.4208 10.0875L25.4404 10.107C25.4916 10.1192 25.5379 10.1338 25.5769 10.146C25.6672 10.1972 25.7135 10.2362 25.7135 10.263C25.6355 10.758 25.5452 11.2945 25.4404 11.8724C25.3355 12.4502 25.2453 12.9867 25.1672 13.4817L25.1282 13.7548H14.8272V13.5207L15.0613 13.5012C15.5295 13.4744 15.8685 13.3378 16.0758 13.0915C16.2831 12.8453 16.388 12.4551 16.388 11.9211V1.99214C16.388 1.45814 16.2831 1.06801 16.0758 0.821734C15.8685 0.57546 15.5295 0.438906 15.0613 0.412084L14.8272 0.392581V0.158501H20.1143V0.392581L19.8802 0.412084C19.4119 0.438906 19.073 0.57546 18.8657 0.821734C18.6584 1.06801 18.5535 1.45814 18.5535 1.99214V13.1891H22.0067C22.7212 13.1891 23.3114 13.0257 23.7723 12.7014C24.2332 12.3771 24.6283 11.8553 24.9526 11.1408L25.4208 10.0875Z" fill="var(--fill-0, #1D1E1C)"/>
<path id="Vector_3" d="M33.7709 13.7353L33.8294 13.4622L34.0635 13.4427C34.4928 13.4158 34.8073 13.2964 35.0098 13.0818C35.2122 12.8672 35.3243 12.5332 35.3512 12.0772L35.3317 7.92222L31.7029 1.95313C31.3786 1.41913 31.0591 1.02899 30.7469 0.782719C30.4348 0.536445 30.1031 0.399899 29.752 0.373077L29.5959 0.353566V0.119486H35.078V0.353566L34.8244 0.373077C34.3294 0.399899 34.0465 0.538878 33.9758 0.792467C33.905 1.04606 34.0245 1.43376 34.3367 1.95313L37.2802 6.81033L40.3456 2.10918C40.6968 1.52398 40.8163 1.09726 40.7065 0.831482C40.5968 0.565701 40.2554 0.419403 39.6823 0.392581L39.3701 0.373077V0.13899H43.4866V0.373077L43.272 0.392581C42.855 0.419403 42.4721 0.558389 42.121 0.811978C41.7698 1.06557 41.4113 1.45327 41.0479 1.97264L37.4972 7.25899V11.9016C37.4972 12.4356 37.6021 12.8258 37.8094 13.072C38.0167 13.3183 38.3556 13.4548 38.8239 13.4817L39.058 13.5012V13.7353H33.7709Z" fill="var(--fill-0, #1D1E1C)"/>
<path id="Vector_4" d="M55.8361 4.23543L55.6605 4.21592C55.5703 3.96965 55.4679 3.69899 55.3581 3.40638C55.2484 3.11378 55.1411 2.84313 55.0362 2.59686C54.8533 2.10187 54.5753 1.68247 54.1973 1.33866C53.8193 0.994856 53.4096 0.775405 52.9682 0.685186C52.9682 0.672994 52.9195 0.658363 52.8219 0.646172C52.7244 0.63398 52.6146 0.619349 52.4902 0.607157C52.3659 0.594965 52.1952 0.580334 51.9732 0.568143C51.0758 0.568143 50.354 0.811978 49.8077 1.29965C49.2614 1.78732 48.9883 2.43348 48.9883 3.24058C48.9883 3.50148 49.0834 3.76483 49.2712 4.03061C49.459 4.29639 49.7223 4.55485 50.0613 4.80112C50.4003 5.0474 50.8124 5.27905 51.3002 5.49362C51.7879 5.7082 52.3244 5.90082 52.9097 6.06907C53.4828 6.22513 53.9998 6.43726 54.4607 6.70305C54.9216 6.96883 55.3191 7.27605 55.6508 7.61986C55.9824 7.96367 56.2385 8.33431 56.4214 8.73176C56.6043 9.12921 56.6945 9.54129 56.6945 9.97044C56.6945 10.5556 56.5848 11.0848 56.3629 11.5602C56.141 12.0357 55.8288 12.4405 55.4264 12.7794C55.024 13.1184 54.5387 13.3768 53.973 13.5597C53.4072 13.7426 52.7804 13.8328 52.0903 13.8328C51.6489 13.8328 51.2026 13.8108 50.7539 13.7645C50.3052 13.7182 49.876 13.6548 49.4663 13.5695C49.0566 13.4841 48.6761 13.3817 48.325 13.2573C47.9738 13.133 47.669 13.0013 47.408 12.8575V9.61932H47.5836C47.6226 9.73636 47.669 9.86559 47.7202 10.0095C47.7714 10.1533 47.8177 10.2826 47.8567 10.3996C48.1567 11.1799 48.6249 11.8309 49.2614 12.3503C49.8979 12.8696 50.5881 13.1622 51.3294 13.2281C51.4733 13.2403 51.5904 13.25 51.6806 13.2573C51.7708 13.2647 51.8562 13.2671 51.9342 13.2671H52.0708C52.9951 13.2671 53.7364 13.0452 54.2949 12.6039C54.8533 12.1601 55.1338 11.5749 55.1338 10.8458C55.1338 10.5459 55.0387 10.2509 54.8509 9.95581C54.6631 9.66321 54.3949 9.38279 54.051 9.11457C53.7071 8.84879 53.2901 8.60009 52.8024 8.37332C52.3147 8.14411 51.7781 7.94661 51.1929 7.77836C50.6344 7.62231 50.1223 7.41748 49.6614 7.16389C49.2005 6.9103 48.8054 6.62258 48.481 6.30315C48.1567 5.98373 47.9055 5.63505 47.7299 5.2571C47.5543 4.87916 47.4666 4.49633 47.4666 4.10376C47.4666 3.49173 47.5763 2.93091 47.7982 2.42373C48.0201 1.91655 48.3274 1.48253 48.7249 1.12409C49.1224 0.765649 49.6028 0.490114 50.1686 0.292607C50.7344 0.0975388 51.3611 1.5729e-06 52.0513 1.5729e-06C52.6878 1.5729e-06 53.3511 0.0902246 54.0412 0.270663C54.7314 0.451101 55.3289 0.692499 55.8361 0.994855V4.23299V4.23543Z" fill="var(--fill-0, #1D1E1C)"/>
<path id="Vector_5" d="M65.864 13.5012V13.7353H60.5769V13.5012L60.811 13.4817C61.2793 13.4548 61.6182 13.3183 61.8255 13.072C62.0328 12.8258 62.1377 12.4356 62.1377 11.9016V1.97264C62.1377 1.43864 62.0328 1.0485 61.8255 0.802223C61.6182 0.555949 61.2793 0.419403 60.811 0.392581L60.5769 0.373077V0.13899H65.864V0.373077L65.6299 0.392581C65.1617 0.419403 64.8227 0.555949 64.6154 0.802223C64.4081 1.0485 64.3032 1.43864 64.3032 1.97264V11.9016C64.3032 12.4356 64.4081 12.8258 64.6154 13.072C64.8227 13.3183 65.1617 13.4548 65.6299 13.4817L65.864 13.5012Z" fill="var(--fill-0, #1D1E1C)"/>
<path id="Vector_6" d="M83.4028 0.138992L83.4223 0.37308L83.1491 0.392583C82.6297 0.419405 82.2517 0.575463 82.0176 0.860751C81.7835 1.14604 81.6664 1.58981 81.6664 2.18721V9.87291C81.6664 10.4703 81.5713 11.0141 81.3835 11.5017C81.1957 11.9894 80.8982 12.4064 80.4958 12.7502C80.0935 13.094 79.5691 13.3622 78.9253 13.5499C78.2815 13.7377 77.5036 13.8328 76.5939 13.8328C75.6843 13.8328 74.8381 13.7231 74.1748 13.5012C73.5114 13.2793 72.9676 12.9721 72.5457 12.5746C72.1238 12.1772 71.8141 11.6968 71.619 11.1311C71.4239 10.5654 71.3264 9.93875 71.3264 9.24869V1.97264C71.3264 1.43864 71.2215 1.0485 71.0142 0.802225C70.8069 0.555951 70.468 0.419405 69.9997 0.392583L69.7656 0.37308V0.138992H75.0527V0.37308L74.8186 0.392583C74.3504 0.419405 74.0114 0.555951 73.8041 0.802225C73.5968 1.0485 73.4919 1.43864 73.4919 1.97264V9.67784C73.4919 10.7044 73.7553 11.531 74.2821 12.1552C74.8088 12.7794 75.6843 13.0915 76.9061 13.0915C77.6475 13.0915 78.2742 13.0062 78.7888 12.838C79.3033 12.6697 79.7228 12.4356 80.0471 12.1357C80.3715 11.8358 80.6105 11.4749 80.7592 11.0531C80.908 10.6312 80.9836 10.1582 80.9836 9.63883V2.18721C80.9836 1.58981 80.8592 1.14604 80.6129 0.860751C80.3666 0.575463 79.9691 0.419405 79.4228 0.392583L79.1302 0.37308V0.138992H83.4028Z" fill="var(--fill-0, #1D1E1C)"/>
<path id="Vector_7" d="M104.337 0.373077L104.395 0.353566L104.142 0.373077C103.7 0.399899 103.383 0.531566 103.195 0.772964C103.008 1.01436 102.92 1.38743 102.932 1.89461L103.381 11.8821C103.408 12.4161 103.527 12.8063 103.742 13.0525C103.956 13.2988 104.29 13.4353 104.746 13.4622L105 13.4817V13.7158H99.7324V13.4817L99.9666 13.4622C100.423 13.4353 100.747 13.2964 100.942 13.0428C101.137 12.7892 101.227 12.4015 101.215 11.8821L100.903 1.79708L95.772 13.8328H95.2062L89.9387 2.83094L89.607 11.5895C89.5802 12.2259 89.707 12.6941 89.9875 12.994C90.2679 13.2939 90.7264 13.4548 91.3629 13.4817L91.7726 13.5012V13.7353H87.3049V13.5012L87.5585 13.4817C88.0146 13.4548 88.3462 13.3159 88.5535 13.0623C88.7608 12.8087 88.8779 12.421 88.9047 11.9016L89.2949 1.71905C89.2827 0.872937 88.8657 0.431594 88.0463 0.392581L87.8122 0.373077V0.13899H91.0702L96.1817 11.2384L96.2207 11.2969L100.805 0.13899H104.337V0.373077Z" fill="var(--fill-0, #1D1E1C)"/>
</g>
</svg>
