<svg preserveAspectRatio="none" width="100%" height="100%" overflow="visible" style="display: block;" viewBox="0 0 27 54" fill="none" xmlns="http://www.w3.org/2000/svg">
<g id="Group">
<g id="Group_2">
<path id="Vector" d="M1.23827e-06 51.0768C1.23827e-06 51.0768 0.00731536 51.0647 0.0170701 51.0427C0.0268248 51.0208 0.0390205 50.9891 0.0536526 50.9501C0.0829168 50.872 0.119498 50.7696 0.160955 50.6623C0.236555 50.4502 0.317032 50.2283 0.329225 50.1893C0.436527 49.9259 0.541388 49.6797 0.658445 49.4529C0.716974 49.3383 0.777942 49.231 0.846225 49.1262C0.91207 49.0189 0.98523 48.9189 1.06327 48.8214C1.23398 48.6092 1.40712 48.4166 1.57783 48.2142C1.74854 48.0143 1.91924 47.8216 2.08995 47.6363C2.30943 47.3852 2.53379 47.156 2.75815 46.9292C2.87033 46.8146 2.98007 46.7024 3.09225 46.5927C3.20443 46.4854 3.31661 46.3757 3.42635 46.266C3.55073 46.1416 3.86776 45.8319 4.17015 45.515C4.24819 45.4369 4.32379 45.3613 4.39695 45.2882C4.47011 45.2126 4.54083 45.1419 4.60424 45.0761C4.73349 44.9468 4.84079 44.8493 4.91151 44.803C5.03345 45.0248 5.00906 45.4589 5.00662 45.6905C5.00662 46.0026 4.97736 46.3123 4.92614 46.6122C4.77007 47.5559 4.46036 48.5093 3.94092 49.3115C3.68973 49.7138 3.38002 50.0966 3.01909 50.4209C2.83863 50.5819 2.64354 50.7184 2.43869 50.833C2.23384 50.95 2.01679 51.0354 1.79244 51.0842C1.69489 51.1061 1.59734 51.1256 1.49979 51.1427C1.25592 51.1939 1.0023 51.2036 0.751117 51.1988C0.624305 51.1939 0.49993 51.1866 0.375557 51.1671C0.248745 51.1451 0.124373 51.1159 0.00243858 51.0793L1.23827e-06 51.0768Z" fill="var(--fill-0, #1D1E1C)"/>
<path id="Vector_2" d="M3.34131 51.9473C3.34131 51.9473 3.3535 51.9547 3.37301 51.9693C3.39252 51.9839 3.41934 52.0059 3.45105 52.0327C3.51445 52.0839 3.60225 52.1522 3.69004 52.2229C3.86806 52.3643 4.05584 52.5106 4.08998 52.5325C4.33141 52.6935 4.5704 52.8422 4.81427 52.9568C5.06058 53.0714 5.3142 53.1592 5.59465 53.2104C5.89949 53.2689 6.20433 53.3031 6.5116 53.3323C6.66524 53.347 6.82131 53.3591 6.97738 53.3665C7.13346 53.3738 7.2871 53.3762 7.44317 53.3762C7.64558 53.3762 7.85043 53.3738 8.05284 53.364C8.25769 53.3543 8.45766 53.3323 8.66251 53.3128C8.86492 53.2909 9.07222 53.2665 9.27463 53.2348C9.47704 53.2007 9.67945 53.1641 9.8843 53.1251C9.99892 53.1007 10.2062 53.0665 10.4525 53.008C10.6988 52.9495 10.9915 52.8788 11.2865 52.8032C11.5792 52.7252 11.8669 52.635 12.1108 52.5545C12.2328 52.513 12.3449 52.4765 12.4376 52.4399C12.5303 52.4033 12.6059 52.3692 12.6595 52.3399C12.5376 52.1278 12.0816 51.9839 11.8572 51.8815C11.5524 51.7474 11.2378 51.6377 10.9232 51.5401C10.6769 51.4645 10.4257 51.389 10.1721 51.3158C9.91844 51.2451 9.66482 51.1793 9.41363 51.1207C9.16245 51.0647 8.90395 51.0013 8.65032 50.9549C8.3967 50.9062 8.14551 50.8696 7.89189 50.8354C6.89691 50.7087 5.82632 50.6282 4.9484 50.9915C4.85329 51.0305 4.75818 51.0695 4.66307 51.111C4.19241 51.3207 3.73394 51.5767 3.33887 51.9449L3.34131 51.9473Z" fill="var(--fill-0, #1D1E1C)"/>
<path id="Vector_3" d="M7.07422 48.7458C7.07422 48.7458 7.07666 48.7336 7.08154 48.7092C7.08397 48.6873 7.08885 48.6531 7.09373 48.6141C7.10104 48.5361 7.11323 48.4312 7.12299 48.3215C7.1425 48.1069 7.16201 47.885 7.16688 47.846C7.2498 47.3169 7.32296 46.8317 7.53757 46.3976C7.76193 45.9149 7.99848 45.4638 8.2326 45.0151C8.30819 44.8712 8.38867 44.7323 8.46671 44.5908C8.54474 44.4494 8.62278 44.3104 8.70326 44.1739C8.86665 43.9056 9.02273 43.6301 9.18612 43.3692C9.28123 43.2253 9.49827 42.8303 9.72263 42.4597C9.93479 42.072 10.1567 41.7087 10.2591 41.577C10.425 41.7404 10.5079 42.1549 10.5567 42.3646C10.6274 42.6499 10.6688 42.9376 10.6932 43.2278C10.7713 44.1446 10.6932 45.0931 10.4006 45.988C10.1079 46.8512 9.60069 47.7802 8.78617 48.2289C8.70082 48.2801 8.60815 48.3215 8.52036 48.3654C8.296 48.4751 8.06433 48.5702 7.82046 48.6361C7.57659 48.6995 7.3254 48.7385 7.07422 48.7458Z" fill="var(--fill-0, #1D1E1C)"/>
<path id="Vector_4" d="M10.4697 48.5556C10.4697 48.5556 10.4819 48.558 10.5039 48.5653C10.5258 48.5727 10.5551 48.5849 10.5941 48.5995C10.6673 48.6287 10.7673 48.6653 10.8697 48.7043C11.0721 48.7824 11.2891 48.8604 11.3257 48.8701C11.5915 48.9433 11.85 49.0042 12.111 49.0359C12.3719 49.0701 12.6377 49.0798 12.9109 49.0359C13.2084 48.9921 13.5059 48.9408 13.8058 48.875C14.1009 48.8043 14.3936 48.7263 14.6887 48.6385C15.0715 48.5215 15.4398 48.3727 15.8153 48.2167C16.1836 48.0533 16.5445 47.8704 16.9079 47.6802C17.0078 47.6241 17.1859 47.5217 17.4029 47.3998C17.6199 47.2755 17.8784 47.1267 18.1272 46.9633C18.3759 46.8024 18.6271 46.639 18.8344 46.4903C19.0368 46.3391 19.2002 46.2099 19.2856 46.127C19.1222 45.9685 18.6637 45.9709 18.4369 45.9466C18.1272 45.9197 17.8053 45.91 17.4907 45.9149C17.242 45.9173 16.9908 45.9246 16.742 45.9392C16.4933 45.9514 16.2372 45.9636 15.986 45.9856C15.7348 46.0051 15.4885 46.0368 15.2398 46.0685C14.9886 46.1002 14.7423 46.1367 14.4984 46.1831C14.3789 46.205 14.2594 46.2318 14.1375 46.2587C14.0156 46.283 13.8912 46.3099 13.7693 46.3391C13.5254 46.3976 13.2864 46.4684 13.0499 46.5488C12.8133 46.6269 12.5841 46.7171 12.3719 46.8292C12.1597 46.9414 11.95 47.0609 11.7647 47.2121C11.6842 47.2755 11.6062 47.3413 11.5281 47.4096C11.1257 47.7314 10.7648 48.1142 10.4722 48.5532L10.4697 48.5556Z" fill="var(--fill-0, #1D1E1C)"/>
<path id="Vector_5" d="M13.2271 44.525C13.2271 44.525 13.2271 44.5128 13.2271 44.4908C13.2246 44.4689 13.2197 44.4396 13.2149 44.4006C13.2051 44.3275 13.1905 44.2275 13.1758 44.1251C13.1441 43.9227 13.1124 43.713 13.1076 43.6764C13.0807 43.418 13.0588 43.1717 13.0539 42.9352C13.0515 42.6987 13.071 42.4695 13.1149 42.2305C13.1661 41.9745 13.2222 41.7258 13.2783 41.4795C13.3319 41.2283 13.388 40.9845 13.4514 40.7431C13.5319 40.431 13.6099 40.1164 13.7026 39.8165C13.7904 39.5117 13.8782 39.2094 13.9733 38.9168C14.0001 38.8339 14.0416 38.6827 14.0928 38.4998C14.1196 38.4096 14.1489 38.3096 14.1781 38.2072C14.2098 38.1048 14.2416 37.9999 14.2659 37.8927C14.3781 37.4611 14.5001 37.0466 14.5757 36.8954C14.7659 37.0002 14.9244 37.3562 15.0195 37.5367C15.1487 37.7829 15.2512 38.039 15.339 38.3047C15.4072 38.512 15.4731 38.729 15.5243 38.946C15.5731 39.1606 15.6145 39.3801 15.6462 39.6044C15.7145 40.053 15.7267 40.5066 15.6926 40.965C15.6779 41.1918 15.6462 41.4185 15.6023 41.6477C15.556 41.8769 15.5024 42.111 15.4243 42.3329C15.2634 42.7742 15.0414 43.201 14.7098 43.5253C14.6391 43.596 14.5683 43.6667 14.4952 43.735C14.1269 44.0715 13.705 44.3641 13.2246 44.5225L13.2271 44.525Z" fill="var(--fill-0, #1D1E1C)"/>
<path id="Vector_6" d="M16.3563 43.318C16.3563 43.318 16.3684 43.318 16.3904 43.318C16.4123 43.318 16.444 43.318 16.4806 43.3229C16.5562 43.3278 16.6562 43.3326 16.7611 43.3375C16.9659 43.3448 17.1805 43.3497 17.2195 43.3473C17.7487 43.3204 18.2365 43.2644 18.7218 43.0254C19.2559 42.7718 19.7607 42.4646 20.263 42.1281C20.5776 41.9013 20.8849 41.655 21.1873 41.399C21.3361 41.2698 21.4921 41.1405 21.6336 41.0016C21.775 40.8626 21.9165 40.7212 22.0555 40.5773C22.1335 40.4968 22.2749 40.3505 22.4457 40.1725C22.531 40.0823 22.6261 39.9872 22.7188 39.8824C22.809 39.7751 22.9041 39.6653 22.9992 39.5532C23.3724 39.1045 23.7503 38.6461 23.8528 38.434C23.6674 38.334 23.2626 38.4754 23.0431 38.5169C22.7505 38.5803 22.4603 38.6681 22.175 38.7656C21.2873 39.0826 20.3533 39.441 19.5192 39.9141C19.0925 40.1384 18.6608 40.392 18.2755 40.687C18.0804 40.8333 17.8853 40.9845 17.7146 41.1527C17.6292 41.2356 17.5463 41.3234 17.4683 41.4136C17.3878 41.5014 17.3122 41.5941 17.2439 41.6916C17.183 41.7745 17.1269 41.8599 17.0684 41.9452C16.9269 42.1598 16.7879 42.3768 16.666 42.606C16.544 42.8352 16.4465 43.079 16.3611 43.3229L16.3563 43.318Z" fill="var(--fill-0, #1D1E1C)"/>
<path id="Vector_7" d="M17.9731 38.7436C17.9731 38.7436 17.9707 38.7315 17.9634 38.7119C17.956 38.6924 17.9438 38.6656 17.9317 38.6315C17.9048 38.5656 17.8682 38.4754 17.8292 38.3852C17.7536 38.2048 17.6732 38.0195 17.661 37.9853C17.4927 37.5171 17.3756 37.1075 17.3464 36.6296C17.3195 36.1151 17.3317 35.6225 17.3171 35.1227C17.3122 34.7984 17.3317 34.4863 17.3415 34.1693C17.3464 33.8523 17.361 33.5378 17.3805 33.2305C17.3829 33.1866 17.3878 33.1281 17.3927 33.055C17.3927 32.9818 17.3951 32.894 17.3976 32.7989C17.4 32.6087 17.4073 32.3868 17.4147 32.1674C17.4195 32.0577 17.4244 31.9479 17.4293 31.8431C17.4293 31.7358 17.4293 31.6334 17.4317 31.5407C17.4366 31.3554 17.4439 31.2042 17.461 31.1189C17.6561 31.1604 17.8853 31.4554 18.0121 31.6017C18.1853 31.7968 18.3462 32.0162 18.4828 32.2405C18.695 32.5941 18.8901 32.9745 19.0534 33.3817C19.0949 33.4841 19.1339 33.5865 19.1705 33.6914C19.2022 33.7938 19.2339 33.8986 19.2632 34.0035C19.3193 34.2156 19.368 34.4326 19.4046 34.6545C19.4241 34.7642 19.4388 34.874 19.4534 34.9886C19.468 35.1032 19.4802 35.2178 19.4827 35.3299C19.4924 35.5592 19.49 35.7932 19.4705 36.0273C19.4485 36.259 19.4217 36.4979 19.3558 36.7198C19.29 36.9417 19.2046 37.1587 19.0949 37.3635C19.0486 37.4513 18.9974 37.5391 18.9486 37.6244C18.8291 37.8439 18.673 38.0438 18.5096 38.234C18.3438 38.4218 18.1658 38.5973 17.9682 38.7485L17.9731 38.7436Z" fill="var(--fill-0, #1D1E1C)"/>
<path id="Vector_8" d="M20.5459 36.6662C20.5459 36.6662 20.5923 36.6491 20.6605 36.6296C20.7288 36.6101 20.8215 36.5833 20.9166 36.5564C21.1044 36.5028 21.3019 36.4443 21.3361 36.4321C21.5726 36.3419 21.8043 36.2492 22.014 36.1297C22.2237 36.0102 22.4237 35.8664 22.6164 35.6835C22.8236 35.4836 23.0309 35.2787 23.2285 35.0617C23.4187 34.8423 23.604 34.6155 23.7845 34.3814C23.9015 34.2302 24.0162 34.0742 24.1308 33.9157C24.2405 33.7548 24.3405 33.5914 24.4405 33.4232C24.5405 33.2573 24.6405 33.0867 24.738 32.916C24.8331 32.7429 24.9356 32.5722 25.0185 32.3942C25.116 32.1942 25.3648 31.6822 25.6037 31.153C25.8208 30.6215 26.0232 30.0753 26.0769 29.8485C25.8891 29.8071 25.555 30.0558 25.377 30.1606C25.1355 30.3045 24.9039 30.4727 24.6795 30.6483C24.3308 30.9263 23.9528 31.2164 23.6065 31.5286C23.4309 31.6846 23.2602 31.8431 23.0943 32.0089C22.9261 32.1723 22.7529 32.3381 22.5895 32.5112C22.2676 32.8501 21.9604 33.2232 21.6604 33.6133C21.3702 34.0035 21.141 34.4253 20.9702 34.8691C20.9361 34.9666 20.9044 35.0617 20.8703 35.1593C20.7166 35.6494 20.5776 36.1492 20.5484 36.6686L20.5459 36.6662Z" fill="var(--fill-0, #1D1E1C)"/>
<path id="Vector_9" d="M20.9364 31.8602C20.9364 31.8602 20.912 31.8212 20.8754 31.7651C20.8364 31.7114 20.7852 31.6383 20.7315 31.5627C20.6267 31.4139 20.5048 31.2603 20.4877 31.2311C20.2243 30.8336 20.0048 30.4727 19.8853 30.029C19.8122 29.7876 19.7414 29.5462 19.678 29.3048C19.6122 29.0634 19.561 28.8269 19.4976 28.5879C19.4147 28.2782 19.3439 27.9685 19.283 27.6613C19.2561 27.5077 19.2196 27.3541 19.183 27.2005C19.1488 27.0469 19.1171 26.8932 19.0854 26.7396C19.0684 26.6543 19.0391 26.5007 19.0025 26.3153C18.9586 26.13 18.9074 25.9106 18.8562 25.6936C18.8074 25.4741 18.7611 25.2571 18.7221 25.0791C18.6782 24.8962 18.644 24.745 18.6367 24.6597C18.8172 24.6451 19.0928 24.8694 19.244 24.9742C19.4512 25.1157 19.6317 25.2815 19.8073 25.4619C20.0829 25.7448 20.3536 26.0593 20.5999 26.4031C20.8315 26.7469 21.0437 27.1224 21.2242 27.5272L21.29 27.6784C21.3095 27.7296 21.329 27.7808 21.3461 27.832C21.3827 27.9369 21.4193 28.0417 21.451 28.1514C21.5168 28.3684 21.5753 28.5928 21.6192 28.822C21.668 29.0512 21.6778 29.2828 21.6802 29.5169C21.6802 29.7485 21.6582 29.9826 21.6144 30.2094C21.5973 30.3069 21.5705 30.4045 21.5436 30.502C21.4778 30.7434 21.3973 30.9824 21.2998 31.2116C21.251 31.3262 21.1973 31.4383 21.1412 31.5481C21.0803 31.6553 21.0096 31.7602 20.9388 31.8602H20.9364Z" fill="var(--fill-0, #1D1E1C)"/>
<path id="Vector_10" d="M22.7265 29.1268C22.7265 29.1268 22.7631 29.0975 22.8168 29.0609C22.8728 29.0219 22.946 28.9707 23.0216 28.9171C23.1728 28.8122 23.3313 28.6976 23.3581 28.6757C23.5435 28.5196 23.7166 28.366 23.8776 28.1904C23.9556 28.1027 24.0361 28.0124 24.1044 27.9125C24.1727 27.8125 24.2361 27.7076 24.297 27.593C24.5555 27.0956 24.8067 26.5714 24.9896 26.0252C25.053 25.8472 25.1116 25.6667 25.1677 25.4839C25.2237 25.301 25.2798 25.1181 25.3213 24.9304C25.4091 24.5573 25.4871 24.1769 25.5578 23.7941C25.5969 23.5795 25.67 23.0236 25.7383 22.4579C25.7773 22.175 25.7846 21.8922 25.7993 21.6508C25.809 21.4094 25.8139 21.2094 25.8066 21.0948C25.6334 21.1046 25.4091 21.4289 25.2823 21.5752C25.1116 21.7751 24.9555 21.997 24.8092 22.2262C24.3141 22.948 23.8678 23.7331 23.4679 24.5744C23.3728 24.7816 23.285 24.9962 23.1923 25.2156C23.0972 25.4351 23.0094 25.6594 22.9338 25.8886C22.8558 26.1154 22.8021 26.3495 22.7485 26.5811C22.6924 26.8152 22.6558 27.0493 22.6436 27.2858C22.6387 27.3882 22.6363 27.4906 22.6314 27.593C22.6314 27.8491 22.6119 28.1075 22.6265 28.3636C22.6387 28.6196 22.668 28.8756 22.7217 29.1268H22.7265Z" fill="var(--fill-0, #1D1E1C)"/>
<path id="Vector_11" d="M21.8579 24.411C21.8579 24.411 21.8262 24.3793 21.7799 24.3378C21.7311 24.2964 21.6677 24.2403 21.6019 24.1818C21.4702 24.0672 21.3336 23.9526 21.3092 23.9306C20.98 23.6185 20.6874 23.3308 20.4679 22.9309C20.3533 22.7139 20.2216 22.4993 20.1021 22.2847C19.9826 22.0702 19.868 21.8532 19.7582 21.6361C19.607 21.3557 19.4583 21.0729 19.3217 20.79C19.251 20.6486 19.1924 20.5047 19.1168 20.3633C19.0461 20.2219 18.9754 20.0805 18.9047 19.939C18.8242 19.7806 18.6389 19.3733 18.4218 18.9783C18.317 18.7784 18.217 18.5809 18.1365 18.4102C18.0536 18.2395 17.978 18.103 17.9463 18.0201C18.0999 17.9615 18.4023 18.1103 18.5633 18.1761C18.7754 18.2639 18.9778 18.3809 19.1827 18.5102C19.3436 18.6126 19.5022 18.7223 19.6631 18.8418C19.8216 18.9613 19.9826 19.0856 20.1289 19.2246C20.424 19.4977 20.7142 19.8074 20.98 20.1512C21.2239 20.4926 21.4702 20.8778 21.6701 21.2972C21.8482 21.719 21.9896 22.1726 22.0262 22.6359C22.0286 22.7358 22.0335 22.8358 22.036 22.9358C22.0433 23.1869 22.036 23.4381 22.0116 23.6868C22.0018 23.8112 21.9799 23.9331 21.953 24.055C21.9262 24.1769 21.8945 24.2964 21.8579 24.411Z" fill="var(--fill-0, #1D1E1C)"/>
<path id="Vector_12" d="M22.7042 21.2948C22.7042 21.2948 22.7285 21.2582 22.7676 21.207C22.809 21.1558 22.8578 21.0851 22.909 21.0144C23.0114 20.8729 23.1187 20.7242 23.1358 20.6949C23.2553 20.4974 23.3626 20.3048 23.4553 20.0951C23.5431 19.8878 23.6284 19.6635 23.665 19.4148C23.7089 19.1441 23.7455 18.8686 23.7772 18.5882C23.7918 18.4492 23.8064 18.3078 23.8186 18.1664C23.8284 18.0249 23.8308 17.8835 23.8357 17.7421C23.843 17.3739 23.8406 16.996 23.8235 16.618C23.7918 16.2425 23.7528 15.8621 23.704 15.4817C23.6869 15.2647 23.587 14.721 23.4821 14.1723C23.4553 14.0334 23.426 13.8968 23.4016 13.7651C23.3724 13.6335 23.3382 13.5091 23.3065 13.3945C23.2455 13.1629 23.1895 12.9751 23.148 12.8678C22.9992 12.919 22.8993 13.2775 22.8334 13.4457C22.7432 13.6774 22.6798 13.9212 22.6066 14.1748C22.4944 14.5771 22.3969 14.9941 22.3164 15.4183C22.2749 15.6427 22.2359 15.8597 22.1993 16.0694C22.1628 16.2888 22.1311 16.5132 22.1091 16.7375C22.0725 17.1764 22.0091 17.6543 22.0116 18.1273C22.0189 18.6004 22.0286 19.0832 22.1408 19.544C22.1652 19.644 22.1896 19.7415 22.2164 19.8415C22.2725 20.0902 22.3335 20.3414 22.4164 20.5828C22.4944 20.8266 22.5993 21.0631 22.7017 21.2899L22.7042 21.2948Z" fill="var(--fill-0, #1D1E1C)"/>
<path id="Vector_13" d="M20.6727 16.9789C20.6727 16.9789 20.6361 16.9569 20.5825 16.9277C20.5288 16.8984 20.4581 16.8618 20.3825 16.8228C20.2362 16.7448 20.0826 16.6668 20.0582 16.6521C19.8777 16.54 19.6997 16.4327 19.5314 16.3132C19.3632 16.1937 19.2022 16.0572 19.0486 15.8914C18.9656 15.8012 18.8827 15.7109 18.8023 15.6207C18.7218 15.5305 18.6315 15.4427 18.5486 15.3525C18.3804 15.1745 18.217 14.9916 18.0585 14.8087C18.0072 14.7478 17.956 14.6893 17.9048 14.6283C17.8512 14.5698 17.7975 14.5088 17.7439 14.4503C17.639 14.3308 17.5341 14.2114 17.4317 14.0919C17.3293 13.9724 17.2293 13.8505 17.1318 13.7261C17.0318 13.6042 16.922 13.4872 16.822 13.3677C16.7635 13.2994 16.6611 13.1799 16.5367 13.0336C16.4758 12.9605 16.4075 12.88 16.3367 12.7971C16.266 12.7142 16.1856 12.6337 16.1124 12.5484C15.9588 12.3801 15.81 12.2143 15.6856 12.068C15.6247 11.9949 15.5686 11.929 15.5222 11.8705C15.4735 11.8144 15.432 11.7681 15.4052 11.7315C15.5222 11.6413 15.8344 11.7169 15.9856 11.7486C16.1977 11.7876 16.4123 11.8535 16.6294 11.9315C16.8001 11.9924 16.9757 12.0632 17.1513 12.1387C17.3293 12.2143 17.4927 12.307 17.6658 12.4021C17.8365 12.4996 18.0072 12.6045 18.1804 12.7191C18.3511 12.8337 18.5242 12.9556 18.6803 13.0946C18.8388 13.2287 18.9974 13.375 19.1583 13.5286C19.2388 13.6066 19.3168 13.6871 19.3949 13.77C19.4339 13.8139 19.4729 13.8554 19.5095 13.8968C19.5461 13.9431 19.5802 13.987 19.6168 14.0309C19.7558 14.2114 19.8899 14.4015 20.0094 14.6015C20.1289 14.8014 20.2386 15.0087 20.3118 15.2281C20.3435 15.3232 20.3752 15.4183 20.4069 15.5134C20.4849 15.7524 20.5532 15.9938 20.6044 16.2376C20.6435 16.4839 20.6679 16.7326 20.6703 16.974L20.6727 16.9789Z" fill="var(--fill-0, #1D1E1C)"/>
<path id="Vector_14" d="M20.5191 13.792C20.5191 13.792 20.5289 13.7505 20.5484 13.692C20.5679 13.6335 20.5923 13.5554 20.6191 13.475C20.6727 13.314 20.7166 13.1482 20.7239 13.1165C20.8142 12.6874 20.8703 12.2802 20.8093 11.7803C20.7654 11.5145 20.7142 11.2463 20.6581 10.9781C20.6288 10.844 20.5996 10.7074 20.5679 10.5709C20.5362 10.4343 20.5045 10.2978 20.4606 10.1661C20.3557 9.81987 20.2362 9.46875 20.107 9.11763C20.046 8.93963 19.968 8.77138 19.8924 8.59826C19.8143 8.42513 19.7363 8.25445 19.6582 8.08376C19.6119 7.98623 19.5314 7.81311 19.4339 7.60341C19.3266 7.39859 19.1973 7.15719 19.0632 6.91579C18.9291 6.67439 18.7974 6.43056 18.673 6.23061C18.5462 6.03311 18.4365 5.87218 18.3682 5.78439C18.2536 5.86486 18.2804 6.21355 18.2755 6.38179C18.2755 6.611 18.2804 6.85971 18.2999 7.11086C18.3292 7.50587 18.3731 7.91308 18.4365 8.3276C18.4877 8.74943 18.5584 9.18102 18.6584 9.61017C18.712 9.81987 18.751 10.0466 18.8047 10.2685C18.8583 10.4929 18.9193 10.7196 18.9925 10.9415C19.0681 11.1634 19.1364 11.3926 19.2241 11.6121C19.3119 11.834 19.4119 12.0485 19.529 12.2534L19.607 12.385L19.6777 12.5216C19.7972 12.7459 19.9289 12.9678 20.0704 13.1799C20.1411 13.2848 20.2167 13.3896 20.2923 13.4896C20.3679 13.592 20.4411 13.692 20.5191 13.7895V13.792Z" fill="var(--fill-0, #1D1E1C)"/>
<path id="Vector_15" d="M17.4656 10.1564C17.4656 10.1564 17.4266 10.1442 17.3705 10.1271C17.3144 10.1125 17.2388 10.093 17.1632 10.071C17.0096 10.032 16.8535 9.99056 16.8242 9.9808C16.6291 9.91741 16.4487 9.84913 16.2633 9.77111C16.0755 9.69552 15.8926 9.60286 15.7049 9.48094C15.5 9.34927 15.3049 9.21028 15.1025 9.07618C14.8952 8.9445 14.6928 8.81039 14.4928 8.67141C14.3636 8.58119 14.2343 8.49097 14.1075 8.39587C13.9734 8.30322 13.8441 8.21544 13.7149 8.12522C13.4515 7.94478 13.2028 7.75215 12.9418 7.56927C12.7931 7.4693 12.4126 7.21327 12.0444 6.94993C11.6615 6.70122 11.2787 6.45494 11.1396 6.3379C11.2152 6.23305 11.5152 6.24768 11.664 6.24281C11.8664 6.23549 12.0834 6.25256 12.3053 6.27938C12.3931 6.28914 12.4809 6.30133 12.5712 6.31596C12.6589 6.33303 12.7467 6.35009 12.8345 6.3696C13.0126 6.40861 13.193 6.45494 13.3784 6.50859C13.5637 6.56223 13.7515 6.62319 13.9417 6.69146C14.1295 6.76461 14.3124 6.84996 14.5002 6.94261C14.866 7.12549 15.2659 7.33519 15.6244 7.61804C15.9878 7.89357 16.3438 8.20568 16.6121 8.5885C16.6706 8.66897 16.7291 8.75187 16.7876 8.83478C17.0852 9.23955 17.312 9.69796 17.468 10.1515L17.4656 10.1564Z" fill="var(--fill-0, #1D1E1C)"/>
<path id="Vector_16" d="M16.3392 7.20596C16.3392 7.20596 16.3343 7.16694 16.3343 7.10842C16.3343 7.0499 16.3294 6.97187 16.327 6.89141C16.3221 6.73291 16.3148 6.56467 16.3124 6.53297C16.2587 6.11357 16.1734 5.73319 15.9588 5.28941C15.9002 5.16993 15.8417 5.04801 15.7783 4.93097C15.71 4.81393 15.6417 4.69689 15.5759 4.58229C15.4369 4.35064 15.293 4.11656 15.1418 3.88492C15.093 3.80933 15.0442 3.73374 14.9906 3.66059C14.9369 3.58744 14.8809 3.51672 14.8272 3.44357C14.7175 3.29971 14.6053 3.15585 14.4907 3.01198C14.376 2.86812 14.259 2.72426 14.1395 2.58283C14.02 2.43897 13.8907 2.30974 13.7639 2.17319C13.6908 2.0976 13.5615 1.96105 13.4054 1.79525C13.2445 1.63188 13.064 1.42949 12.8616 1.24905C12.4641 0.880862 12.0569 0.517547 11.8788 0.383437C11.8008 0.476095 11.9325 0.785766 11.9788 0.939382C12.0447 1.14908 12.1349 1.36366 12.2324 1.58067C12.3105 1.75135 12.3934 1.92448 12.4788 2.10004C12.5617 2.28048 12.6495 2.46335 12.7421 2.64623C12.8348 2.82911 12.9323 3.01198 13.0348 3.19486C13.086 3.28752 13.1396 3.37774 13.1933 3.4704C13.2494 3.56061 13.2981 3.66059 13.3542 3.75324C13.4615 3.93856 13.5762 4.13119 13.6981 4.32138C13.7591 4.41648 13.8225 4.51157 13.8859 4.60667C13.9517 4.70176 14.0176 4.79686 14.081 4.89439C14.2127 5.08946 14.3517 5.27966 14.5004 5.46253C14.576 5.55275 14.6516 5.64297 14.7321 5.73075C14.7711 5.77464 14.8126 5.81609 14.854 5.85998L14.976 5.98922C15.0467 6.06237 15.1174 6.13552 15.1906 6.20867C15.371 6.38911 15.5588 6.56467 15.7539 6.73048C15.949 6.89385 16.1343 7.06209 16.3392 7.20352V7.20596Z" fill="var(--fill-0, #1D1E1C)"/>
</g>
<path id="Vector_17" d="M12.2446 4.30675C10.8814 3.87029 9.7523 3.04368 8.53784 2.339C7.31606 1.65626 6.05526 0.985711 4.97736 0.00305398C5.73091 -0.0213296 6.45276 0.103027 7.17461 0.278588C7.96719 0.48341 8.75732 0.771136 9.48892 1.19297C10.6692 1.92204 11.6886 3.02661 12.2422 4.30675H12.2446Z" fill="var(--fill-0, #1D1E1C)"/>
</g>
</svg>
