<svg preserveAspectRatio="none" width="100%" height="100%" overflow="visible" style="display: block;" viewBox="0 0 27 54" fill="none" xmlns="http://www.w3.org/2000/svg">
<g id="Group">
<g id="Group_2">
<path id="Vector" d="M26.0766 51.0768C26.0766 51.0768 26.0693 51.0647 26.0595 51.0427C26.0498 51.0208 26.0376 50.9891 26.023 50.9501C25.9937 50.872 25.9571 50.7696 25.9157 50.6623C25.8401 50.4502 25.7596 50.2283 25.7474 50.1893C25.6401 49.9259 25.5352 49.6797 25.4182 49.4529C25.3596 49.3383 25.2987 49.231 25.2304 49.1262C25.1645 49.0189 25.0914 48.9189 25.0133 48.8214C24.8426 48.6092 24.6695 48.4166 24.4988 48.2142C24.3281 48.0143 24.1574 47.8216 23.9867 47.6363C23.7672 47.3852 23.5428 47.156 23.3185 46.9292C23.2063 46.8146 23.0965 46.7024 22.9844 46.5927C22.8722 46.4854 22.76 46.3757 22.6503 46.266C22.5259 46.1416 22.2089 45.8319 21.9065 45.515C21.8284 45.4369 21.7528 45.3613 21.6797 45.2882C21.6065 45.2126 21.5358 45.1419 21.4724 45.0761C21.3431 44.9468 21.2358 44.8493 21.1651 44.803C21.0432 45.0248 21.0676 45.4589 21.07 45.6905C21.07 46.0026 21.0993 46.3123 21.1505 46.6122C21.3065 47.5559 21.6163 48.5093 22.1357 49.3115C22.3869 49.7138 22.6966 50.0966 23.0575 50.4209C23.238 50.5819 23.4331 50.7184 23.6379 50.833C23.8428 50.95 24.0598 51.0354 24.2842 51.0842C24.3817 51.1061 24.4793 51.1256 24.5768 51.1427C24.8207 51.1939 25.0743 51.2036 25.3255 51.1988C25.4523 51.1939 25.5767 51.1866 25.7011 51.1671C25.8279 51.1451 25.9522 51.1159 26.0742 51.0793L26.0766 51.0768Z" fill="var(--fill-0, #1D1E1C)"/>
<path id="Vector_2" d="M22.7359 51.9473C22.7359 51.9473 22.7237 51.9547 22.7042 51.9693C22.6846 51.9839 22.6578 52.0059 22.6261 52.0327C22.5627 52.0839 22.4749 52.1522 22.3871 52.2229C22.2091 52.3643 22.0213 52.5106 21.9872 52.5325C21.7458 52.6935 21.5068 52.8422 21.2629 52.9568C21.0166 53.0714 20.763 53.1592 20.4825 53.2104C20.1777 53.2689 19.8728 53.3031 19.5656 53.3323C19.4119 53.347 19.2559 53.3591 19.0998 53.3665C18.9437 53.3738 18.7901 53.3762 18.634 53.3762C18.4316 53.3762 18.2267 53.3738 18.0219 53.364C17.817 53.3543 17.6171 53.3323 17.4122 53.3128C17.2098 53.2909 17.0025 53.2665 16.8001 53.2348C16.5977 53.2007 16.3953 53.1641 16.1904 53.1251C16.0758 53.1007 15.8685 53.0665 15.6222 53.008C15.3759 52.9495 15.0833 52.8788 14.7882 52.8032C14.4955 52.7252 14.2078 52.635 13.9639 52.5545C13.842 52.513 13.7298 52.4765 13.6371 52.4399C13.5445 52.4033 13.4689 52.3692 13.4152 52.3399C13.5371 52.1278 13.9932 51.9839 14.2175 51.8815C14.5224 51.7474 14.837 51.6377 15.1515 51.5401C15.3979 51.4645 15.649 51.389 15.9027 51.3158C16.1563 51.2451 16.4099 51.1793 16.6611 51.1207C16.9123 51.0647 17.1708 51.0013 17.4244 50.9549C17.678 50.9062 17.9292 50.8696 18.1828 50.8354C19.1778 50.7087 20.2484 50.6282 21.1263 50.9915C21.2214 51.0305 21.3165 51.0695 21.4117 51.111C21.8823 51.3207 22.3408 51.5767 22.7359 51.9449V51.9473Z" fill="var(--fill-0, #1D1E1C)"/>
<path id="Vector_3" d="M19.0019 48.7458C19.0019 48.7458 18.9995 48.7336 18.9946 48.7092C18.9922 48.6873 18.9873 48.6531 18.9824 48.6141C18.9751 48.5361 18.9629 48.4312 18.9531 48.3215C18.9336 48.1069 18.9141 47.885 18.9092 47.846C18.8263 47.3169 18.7532 46.8317 18.5386 46.3976C18.3142 45.9149 18.0776 45.4638 17.8435 45.0151C17.7679 44.8712 17.6875 44.7323 17.6094 44.5908C17.5314 44.4494 17.4533 44.3104 17.3729 44.1739C17.2095 43.9056 17.0534 43.6301 16.89 43.3692C16.7949 43.2253 16.5779 42.8303 16.3535 42.4597C16.1413 42.072 15.9194 41.7087 15.817 41.577C15.6512 41.7404 15.5682 42.1549 15.5195 42.3646C15.4487 42.6499 15.4073 42.9376 15.3829 43.2278C15.3049 44.1446 15.3829 45.0931 15.6755 45.988C15.9682 46.8512 16.4754 47.7802 17.29 48.2289C17.3753 48.2801 17.468 48.3215 17.5558 48.3654C17.7801 48.4751 18.0118 48.5702 18.2557 48.6361C18.4995 48.6995 18.7507 48.7385 19.0019 48.7458Z" fill="var(--fill-0, #1D1E1C)"/>
<path id="Vector_4" d="M15.6078 48.5556C15.6078 48.5556 15.5956 48.558 15.5737 48.5653C15.5517 48.5727 15.5225 48.5849 15.4835 48.5995C15.4103 48.6287 15.3103 48.6653 15.2079 48.7043C15.0055 48.7824 14.7884 48.8604 14.7519 48.8701C14.486 48.9433 14.2275 49.0042 13.9666 49.0359C13.7057 49.0701 13.4398 49.0798 13.1667 49.0359C12.8692 48.9921 12.5717 48.9408 12.2717 48.875C11.9766 48.8043 11.684 48.7263 11.3889 48.6385C11.006 48.5215 10.6378 48.3727 10.2622 48.2167C9.894 48.0533 9.53307 47.8704 9.16971 47.6802C9.06972 47.6241 8.8917 47.5217 8.67466 47.3998C8.45761 47.2755 8.19911 47.1267 7.95037 46.9633C7.70162 46.8024 7.45044 46.639 7.24315 46.4903C7.04074 46.3391 6.87735 46.2099 6.79199 46.127C6.95538 45.9685 7.41386 45.9709 7.64066 45.9466C7.95037 45.9197 8.27227 45.91 8.58686 45.9149C8.83561 45.9173 9.08679 45.9246 9.33554 45.9392C9.58429 45.9514 9.84035 45.9636 10.0915 45.9856C10.3427 46.0051 10.589 46.0368 10.8378 46.0685C11.089 46.1002 11.3353 46.1367 11.5791 46.1831C11.6986 46.205 11.8181 46.2318 11.9401 46.2587C12.062 46.283 12.1864 46.3099 12.3083 46.3391C12.5522 46.3976 12.7912 46.4684 13.0277 46.5488C13.2643 46.6269 13.4935 46.7171 13.7057 46.8292C13.9178 46.9414 14.1276 47.0609 14.3129 47.2121C14.3934 47.2755 14.4714 47.3413 14.5494 47.4096C14.9518 47.7314 15.3128 48.1142 15.6054 48.5532L15.6078 48.5556Z" fill="var(--fill-0, #1D1E1C)"/>
<path id="Vector_5" d="M12.847 44.525C12.847 44.525 12.847 44.5128 12.847 44.4908C12.8494 44.4689 12.8543 44.4396 12.8592 44.4006C12.8689 44.3275 12.8836 44.2275 12.8982 44.1251C12.9299 43.9227 12.9616 43.713 12.9665 43.6764C12.9933 43.418 13.0153 43.1717 13.0201 42.9352C13.0226 42.6987 13.0031 42.4695 12.9592 42.2305C12.908 41.9745 12.8519 41.7258 12.7958 41.4795C12.7421 41.2283 12.686 40.9845 12.6226 40.7431C12.5422 40.431 12.4641 40.1164 12.3714 39.8165C12.2837 39.5117 12.1959 39.2094 12.1008 38.9168C12.0739 38.8339 12.0325 38.6827 11.9813 38.4998C11.9544 38.4096 11.9252 38.3096 11.8959 38.2072C11.8642 38.1048 11.8325 37.9999 11.8081 37.8927C11.6959 37.4611 11.574 37.0466 11.4984 36.8954C11.3082 37.0002 11.1497 37.3562 11.0546 37.5367C10.9253 37.7829 10.8229 38.039 10.7351 38.3047C10.6668 38.512 10.601 38.729 10.5498 38.946C10.501 39.1606 10.4595 39.3801 10.4278 39.6044C10.3595 40.053 10.3473 40.5066 10.3815 40.965C10.3961 41.1918 10.4278 41.4185 10.4717 41.6477C10.518 41.8769 10.5717 42.111 10.6497 42.3329C10.8107 42.7742 11.0326 43.201 11.3643 43.5253C11.435 43.596 11.5057 43.6667 11.5789 43.735C11.9471 44.0715 12.369 44.3641 12.8494 44.5225L12.847 44.525Z" fill="var(--fill-0, #1D1E1C)"/>
<path id="Vector_6" d="M9.72015 43.318C9.72015 43.318 9.70796 43.318 9.68601 43.318C9.66406 43.318 9.63236 43.318 9.59578 43.3229C9.52018 43.3277 9.42019 43.3326 9.31533 43.3375C9.11048 43.3448 8.89587 43.3497 8.85685 43.3473C8.32766 43.3204 7.83992 43.2644 7.35463 43.0254C6.82055 42.7718 6.31575 42.4646 5.81338 42.1281C5.49879 41.9013 5.19151 41.655 4.88912 41.399C4.74036 41.2698 4.58428 41.1405 4.44284 41.0016C4.30139 40.8626 4.15995 40.7211 4.02094 40.5773C3.94291 40.4968 3.80146 40.3505 3.63075 40.1725C3.5454 40.0823 3.45029 39.9872 3.35762 39.8824C3.26739 39.7751 3.17228 39.6653 3.07717 39.5532C2.70405 39.1045 2.32606 38.6461 2.22363 38.434C2.40897 38.334 2.81379 38.4754 3.03328 38.5169C3.32592 38.5803 3.61612 38.6681 3.90145 38.7656C4.78913 39.0826 5.72314 39.441 6.55717 39.9141C6.98394 40.1384 7.41559 40.392 7.80091 40.687C7.996 40.8333 8.19109 40.9845 8.3618 41.1527C8.44716 41.2356 8.53007 41.3234 8.60811 41.4136C8.68859 41.5014 8.76418 41.5941 8.83247 41.6916C8.89344 41.7745 8.94953 41.8599 9.00805 41.9452C9.1495 42.1598 9.2885 42.3768 9.41044 42.606C9.53237 42.8352 9.62992 43.079 9.71527 43.3229L9.72015 43.318Z" fill="var(--fill-0, #1D1E1C)"/>
<path id="Vector_7" d="M8.10106 38.7436C8.10106 38.7436 8.1035 38.7315 8.11081 38.7119C8.11813 38.6924 8.13032 38.6656 8.14251 38.6315C8.16934 38.5656 8.20592 38.4754 8.24494 38.3852C8.32054 38.2048 8.40102 38.0194 8.41321 37.9853C8.57904 37.5171 8.69853 37.1075 8.7278 36.6296C8.75462 36.1151 8.74243 35.6225 8.75706 35.1227C8.76194 34.7984 8.74243 34.4863 8.73268 34.1693C8.7278 33.8523 8.71317 33.5378 8.69366 33.2305C8.69122 33.1866 8.68634 33.1281 8.68146 33.055C8.68146 32.9818 8.67903 32.894 8.67659 32.7989C8.67415 32.6087 8.66683 32.3868 8.65952 32.1674C8.65464 32.0577 8.64976 31.9479 8.64488 31.8431C8.64488 31.7358 8.64488 31.6334 8.64245 31.5407C8.63757 31.3554 8.63025 31.2042 8.61318 31.1189C8.41809 31.1604 8.18885 31.4554 8.06204 31.6017C7.88889 31.7968 7.72794 32.0162 7.59137 32.2405C7.37921 32.5941 7.18411 32.9745 7.02072 33.3817C6.97926 33.4841 6.94024 33.5865 6.90366 33.6914C6.87196 33.7938 6.84026 33.8986 6.81099 34.0035C6.7549 34.2156 6.70613 34.4326 6.66955 34.6545C6.65004 34.7642 6.63541 34.874 6.62078 34.9886C6.60614 35.1032 6.59395 35.2178 6.59151 35.3299C6.58176 35.5591 6.5842 35.7932 6.6037 36.0273C6.62565 36.259 6.65248 36.4979 6.71832 36.7198C6.78417 36.9417 6.86952 37.1587 6.97926 37.3635C7.0256 37.4513 7.07681 37.5391 7.12558 37.6244C7.24508 37.8439 7.40116 38.0438 7.56455 38.234C7.73038 38.4218 7.9084 38.5973 8.10594 38.7485L8.10106 38.7436Z" fill="var(--fill-0, #1D1E1C)"/>
<path id="Vector_8" d="M5.53094 36.6662C5.53094 36.6662 5.4846 36.6491 5.41632 36.6296C5.34804 36.6101 5.25537 36.5833 5.16026 36.5564C4.97248 36.5028 4.77495 36.4443 4.7408 36.4321C4.50425 36.3419 4.27258 36.2492 4.06285 36.1297C3.85312 36.0102 3.65315 35.8664 3.46049 35.6835C3.25321 35.4836 3.04592 35.2787 2.84838 35.0617C2.65817 34.8423 2.47283 34.6155 2.29236 34.3814C2.17531 34.2302 2.06069 34.0742 1.94607 33.9157C1.83633 33.7548 1.73634 33.5914 1.63636 33.4232C1.53637 33.2573 1.43639 33.0867 1.33884 32.916C1.24373 32.7429 1.14131 32.5722 1.05839 32.3942C0.960843 32.1942 0.712097 31.6822 0.473106 31.153C0.256063 30.6215 0.0536516 30.0753 5.09174e-07 29.8485C0.187779 29.8071 0.52188 30.0558 0.699904 30.1606C0.941333 30.3045 1.17301 30.4727 1.39737 30.6483C1.7461 30.9263 2.1241 31.2164 2.47039 31.5286C2.64597 31.6846 2.81668 31.8431 2.98251 32.0089C3.15078 32.1723 3.32393 32.3381 3.48732 32.5112C3.80923 32.8501 4.1165 33.2232 4.41646 33.6133C4.70666 34.0035 4.9359 34.4253 5.10661 34.8691C5.14075 34.9666 5.17245 35.0617 5.20659 35.1593C5.36023 35.6494 5.49924 36.1492 5.5285 36.6686L5.53094 36.6662Z" fill="var(--fill-0, #1D1E1C)"/>
<path id="Vector_9" d="M5.14028 31.8602C5.14028 31.8602 5.16467 31.8212 5.20125 31.7651C5.24027 31.7114 5.29148 31.6383 5.34513 31.5627C5.45 31.4139 5.57193 31.2603 5.589 31.2311C5.85238 30.8336 6.07186 30.4727 6.19136 30.029C6.26452 29.7876 6.33524 29.5462 6.39865 29.3048C6.46449 29.0634 6.5157 28.8269 6.57911 28.5879C6.66202 28.2782 6.73275 27.9685 6.79371 27.6613C6.82054 27.5077 6.85712 27.3541 6.8937 27.2005C6.92784 27.0469 6.95954 26.8932 6.99125 26.7396C7.00832 26.6543 7.03758 26.5007 7.07416 26.3153C7.11806 26.13 7.16927 25.9106 7.22048 25.6936C7.26926 25.4741 7.31559 25.2571 7.35461 25.0791C7.39851 24.8962 7.43265 24.745 7.43996 24.6597C7.2595 24.6451 6.98393 24.8694 6.83273 24.9742C6.62544 25.1157 6.44498 25.2815 6.26939 25.4619C5.99382 25.7448 5.72313 26.0593 5.47682 26.4031C5.24515 26.7469 5.03298 27.1224 4.85252 27.5272L4.78668 27.6784C4.76717 27.7296 4.74766 27.7808 4.73059 27.832C4.69401 27.9369 4.65742 28.0417 4.62572 28.1514C4.55988 28.3684 4.50135 28.5928 4.45745 28.822C4.40868 29.0512 4.39892 29.2828 4.39648 29.5169C4.39648 29.7485 4.41843 29.9826 4.46233 30.2094C4.4794 30.3069 4.50623 30.4045 4.53305 30.502C4.5989 30.7434 4.67937 30.9824 4.77692 31.2116C4.82569 31.3262 4.87935 31.4383 4.93544 31.5481C4.9964 31.6553 5.06712 31.7602 5.13785 31.8602H5.14028Z" fill="var(--fill-0, #1D1E1C)"/>
<path id="Vector_10" d="M3.35116 29.1268C3.35116 29.1268 3.31458 29.0975 3.26093 29.0609C3.20484 29.0219 3.13168 28.9707 3.05608 28.9171C2.90488 28.8122 2.74637 28.6976 2.71954 28.6757C2.5342 28.5196 2.36105 28.366 2.2001 28.1904C2.12206 28.1027 2.04159 28.0124 1.9733 27.9125C1.90502 27.8125 1.84161 27.7076 1.78065 27.593C1.52215 27.0956 1.27096 26.5714 1.08806 26.0252C1.02465 25.8472 0.966127 25.6667 0.910037 25.4839C0.853948 25.301 0.797857 25.1181 0.756399 24.9304C0.668606 24.5573 0.59057 24.1769 0.519848 23.7941C0.480829 23.5795 0.407667 23.0236 0.339384 22.4579C0.300365 22.175 0.293049 21.8922 0.278417 21.6508C0.268662 21.4094 0.263785 21.2094 0.271101 21.0948C0.444248 21.1046 0.668607 21.4289 0.795419 21.5752C0.966127 21.7751 1.1222 21.997 1.26852 22.2262C1.76358 22.948 2.20986 23.7331 2.6098 24.5744C2.70491 24.7816 2.7927 24.9962 2.88537 25.2156C2.98048 25.4351 3.06827 25.6594 3.14387 25.8886C3.22191 26.1154 3.27556 26.3495 3.32921 26.5811C3.3853 26.8152 3.42188 27.0493 3.43408 27.2858C3.43895 27.3882 3.44139 27.4906 3.44627 27.593C3.44627 27.8491 3.46578 28.1075 3.45115 28.3636C3.43895 28.6196 3.40969 28.8756 3.35604 29.1268H3.35116Z" fill="var(--fill-0, #1D1E1C)"/>
<path id="Vector_11" d="M4.21892 24.411C4.21892 24.411 4.25063 24.3793 4.29696 24.3378C4.34574 24.2964 4.40914 24.2403 4.47499 24.1818C4.60667 24.0672 4.74324 23.9526 4.76763 23.9306C5.09685 23.6185 5.38949 23.3308 5.60897 22.9309C5.72359 22.7139 5.85528 22.4993 5.97478 22.2847C6.09427 22.0702 6.20889 21.8532 6.31863 21.6361C6.46983 21.3557 6.61859 21.0729 6.75516 20.79C6.82588 20.6486 6.88441 20.5047 6.96001 20.3633C7.03073 20.2219 7.10145 20.0805 7.17217 19.939C7.25265 19.7806 7.43799 19.3733 7.65503 18.9783C7.75989 18.7784 7.85988 18.5809 7.94036 18.4102C8.02327 18.2395 8.09887 18.103 8.13057 18.0201C7.97694 17.9615 7.67454 18.1103 7.51359 18.1761C7.30142 18.2639 7.09901 18.3809 6.89416 18.5102C6.73321 18.6126 6.57469 18.7223 6.41374 18.8418C6.25523 18.9613 6.09427 19.0856 5.94795 19.2246C5.65287 19.4977 5.36267 19.8074 5.09685 20.1512C4.85298 20.4926 4.60667 20.8778 4.4067 21.2972C4.22868 21.719 4.08724 22.1726 4.05065 22.6359C4.04822 22.7358 4.04334 22.8358 4.0409 22.9358C4.03358 23.1869 4.0409 23.4381 4.06529 23.6868C4.07504 23.8112 4.09699 23.9331 4.12382 24.055C4.15064 24.1769 4.18234 24.2964 4.21892 24.411Z" fill="var(--fill-0, #1D1E1C)"/>
<path id="Vector_12" d="M3.3727 21.2948C3.3727 21.2948 3.34831 21.2582 3.3093 21.207C3.26784 21.1558 3.21907 21.0851 3.16785 21.0144C3.06543 20.8729 2.95813 20.7242 2.94106 20.6949C2.82156 20.4974 2.71426 20.3048 2.62159 20.0951C2.53379 19.8878 2.44844 19.6635 2.41186 19.4148C2.36796 19.1441 2.33138 18.8686 2.29968 18.5882C2.28505 18.4492 2.27042 18.3078 2.25822 18.1664C2.24847 18.0249 2.24603 17.8835 2.24115 17.7421C2.23384 17.3739 2.23628 16.996 2.25335 16.618C2.28505 16.2425 2.32407 15.8621 2.37284 15.4817C2.38991 15.2647 2.4899 14.721 2.59476 14.1723C2.62159 14.0334 2.65085 13.8968 2.67524 13.7651C2.7045 13.6335 2.73864 13.5091 2.77035 13.3945C2.83131 13.1629 2.8874 12.9751 2.92886 12.8678C3.07762 12.919 3.17517 13.2775 3.24345 13.4457C3.33368 13.6774 3.39709 13.9212 3.47025 14.1748C3.58243 14.5771 3.67998 14.9941 3.76045 15.4183C3.80191 15.6427 3.84093 15.8597 3.87751 16.0694C3.91409 16.2888 3.94579 16.5132 3.96774 16.7375C4.00432 17.1764 4.06773 17.6543 4.06529 18.1273C4.05797 18.6004 4.04822 19.0832 3.93604 19.544C3.91165 19.644 3.88726 19.7415 3.86044 19.8415C3.80435 20.0902 3.74338 20.3414 3.66047 20.5828C3.58243 20.8266 3.47757 21.0631 3.37514 21.2899L3.3727 21.2948Z" fill="var(--fill-0, #1D1E1C)"/>
<path id="Vector_13" d="M5.40413 16.9789C5.40413 16.9789 5.44071 16.9569 5.49436 16.9277C5.54801 16.8984 5.61873 16.8618 5.69433 16.8228C5.84065 16.7448 5.99429 16.6668 6.01867 16.6521C6.19914 16.54 6.37716 16.4327 6.54543 16.3132C6.7137 16.1937 6.87465 16.0572 7.02829 15.8914C7.1112 15.8012 7.19412 15.7109 7.2746 15.6207C7.35507 15.5305 7.4453 15.4427 7.52822 15.3525C7.69649 15.1745 7.85988 14.9916 8.0184 14.8087C8.06961 14.7478 8.12082 14.6893 8.17203 14.6283C8.22568 14.5698 8.27934 14.5088 8.33299 14.4503C8.43785 14.3308 8.54271 14.2114 8.64514 14.0919C8.74756 13.9724 8.84755 13.8505 8.9451 13.7261C9.04508 13.6042 9.15482 13.4872 9.25481 13.3677C9.31334 13.2994 9.41576 13.1799 9.54013 13.0336C9.6011 12.9605 9.66938 12.88 9.74011 12.7971C9.81083 12.7142 9.8913 12.6337 9.96447 12.5484C10.1181 12.3801 10.2669 12.2143 10.3912 12.068C10.4522 11.9949 10.5083 11.929 10.5546 11.8705C10.6034 11.8144 10.6449 11.7681 10.6717 11.7315C10.5546 11.6413 10.2425 11.7169 10.0913 11.7486C9.87911 11.7876 9.66451 11.8535 9.44747 11.9315C9.27676 11.9924 9.10117 12.0632 8.92559 12.1387C8.74756 12.2143 8.58417 12.307 8.41102 12.4021C8.24032 12.4996 8.06961 12.6045 7.89646 12.7191C7.72575 12.8337 7.55261 12.9556 7.39653 13.0946C7.23802 13.2287 7.0795 13.375 6.91855 13.5286C6.83807 13.6066 6.76003 13.6871 6.682 13.77C6.64298 13.8139 6.60396 13.8554 6.56738 13.8968C6.5308 13.9431 6.49666 13.987 6.46008 14.0309C6.32107 14.2114 6.18694 14.4015 6.06745 14.6015C5.94795 14.8014 5.83821 15.0087 5.76505 15.2281C5.73335 15.3232 5.70164 15.4183 5.66994 15.5134C5.5919 15.7524 5.52362 15.9938 5.47241 16.2376C5.43339 16.4839 5.409 16.7326 5.40657 16.974L5.40413 16.9789Z" fill="var(--fill-0, #1D1E1C)"/>
<path id="Vector_14" d="M5.55776 13.792C5.55776 13.792 5.54801 13.7505 5.5285 13.692C5.50899 13.6335 5.4846 13.5554 5.45778 13.475C5.40413 13.314 5.36023 13.1482 5.35291 13.1165C5.26268 12.6874 5.20659 12.2802 5.26756 11.7803C5.31145 11.5145 5.36267 11.2463 5.41876 10.9781C5.44802 10.844 5.47729 10.7074 5.50899 10.5709C5.54069 10.4343 5.57239 10.2978 5.61629 10.1661C5.72115 9.81987 5.84065 9.46875 5.9699 9.11763C6.03087 8.93963 6.1089 8.77138 6.1845 8.59826C6.26254 8.42513 6.34058 8.25445 6.41862 8.08376C6.46495 7.98623 6.54543 7.81311 6.64298 7.60341C6.75028 7.39859 6.87953 7.15719 7.01366 6.91579C7.14778 6.67439 7.27947 6.43056 7.40385 6.23061C7.53066 6.03311 7.6404 5.87218 7.70868 5.78439C7.8233 5.86486 7.79648 6.21355 7.80135 6.38179C7.80135 6.611 7.79647 6.85971 7.77696 7.11086C7.7477 7.50587 7.7038 7.91308 7.6404 8.3276C7.58919 8.74943 7.51847 9.18102 7.41848 9.61017C7.36483 9.81987 7.32581 10.0466 7.27216 10.2685C7.21851 10.4929 7.15754 10.7196 7.08438 10.9415C7.00878 11.1634 6.9405 11.3926 6.8527 11.6121C6.76491 11.834 6.66492 12.0485 6.54787 12.2534L6.46983 12.385L6.39911 12.5216C6.27961 12.7459 6.14792 12.9678 6.00648 13.1799C5.93576 13.2848 5.86016 13.3896 5.78456 13.4896C5.70896 13.592 5.6358 13.692 5.55776 13.7895V13.792Z" fill="var(--fill-0, #1D1E1C)"/>
<path id="Vector_15" d="M8.611 10.1564C8.611 10.1564 8.65002 10.1442 8.70611 10.1271C8.7622 10.1125 8.83779 10.093 8.91339 10.071C9.06703 10.032 9.22311 9.99056 9.25237 9.9808C9.44746 9.91741 9.62793 9.84913 9.81327 9.77111C10.001 9.69552 10.1839 9.60286 10.3717 9.48094C10.5766 9.34927 10.7717 9.21028 10.9741 9.07617C11.1814 8.9445 11.3838 8.81039 11.5838 8.67141C11.713 8.58119 11.8423 8.49097 11.9691 8.39587C12.1032 8.30322 12.2324 8.21544 12.3617 8.12522C12.6251 7.94478 12.8738 7.75215 13.1348 7.56927C13.2835 7.4693 13.6639 7.21327 14.0322 6.94993C14.4151 6.70122 14.7979 6.45494 14.9369 6.3379C14.8613 6.23305 14.5614 6.24768 14.4126 6.24281C14.2102 6.23549 13.9932 6.25256 13.7713 6.27938C13.6835 6.28913 13.5957 6.30133 13.5054 6.31596C13.4176 6.33302 13.3298 6.35009 13.2421 6.3696C13.064 6.40861 12.8836 6.45494 12.6982 6.50859C12.5129 6.56223 12.3251 6.62319 12.1349 6.69146C11.9471 6.76461 11.7642 6.84996 11.5764 6.94261C11.2106 7.12549 10.8107 7.33519 10.4522 7.61804C10.0888 7.89357 9.73279 8.20568 9.46454 8.5885C9.40601 8.66897 9.34748 8.75187 9.28895 8.83478C8.99143 9.23954 8.76463 9.69796 8.60856 10.1515L8.611 10.1564Z" fill="var(--fill-0, #1D1E1C)"/>
<path id="Vector_16" d="M9.73731 7.20596C9.73731 7.20596 9.74218 7.16694 9.74218 7.10842C9.74218 7.0499 9.74706 6.97187 9.7495 6.89141C9.75438 6.73291 9.76169 6.56467 9.76413 6.53297C9.81778 6.11357 9.90314 5.73319 10.1177 5.28941C10.1763 5.16993 10.2348 5.04801 10.2982 4.93097C10.3665 4.81393 10.4348 4.69689 10.5006 4.58229C10.6396 4.35064 10.7835 4.11656 10.9347 3.88492C10.9835 3.80933 11.0322 3.73374 11.0859 3.66059C11.1395 3.58744 11.1956 3.51672 11.2493 3.44357C11.359 3.29971 11.4712 3.15585 11.5858 3.01198C11.7004 2.86812 11.8175 2.72426 11.937 2.58283C12.0565 2.43897 12.1857 2.30974 12.3126 2.17319C12.3857 2.0976 12.515 1.96105 12.671 1.79525C12.832 1.63188 13.0125 1.42949 13.2149 1.24905C13.6124 0.880862 14.0196 0.517547 14.1977 0.383437C14.2757 0.476095 14.144 0.785766 14.0977 0.939382C14.0318 1.14908 13.9416 1.36366 13.844 1.58067C13.766 1.75135 13.6831 1.92448 13.5977 2.10004C13.5148 2.28048 13.427 2.46335 13.3344 2.64623C13.2417 2.82911 13.1441 3.01198 13.0417 3.19486C12.9905 3.28752 12.9369 3.37774 12.8832 3.4704C12.8271 3.56061 12.7783 3.66059 12.7223 3.75324C12.615 3.93856 12.5003 4.13119 12.3784 4.32138C12.3174 4.41648 12.254 4.51157 12.1906 4.60667C12.1248 4.70176 12.0589 4.79686 11.9955 4.89439C11.8638 5.08946 11.7248 5.27966 11.5761 5.46253C11.5005 5.55275 11.4249 5.64297 11.3444 5.73075C11.3054 5.77464 11.2639 5.81609 11.2225 5.85998L11.1005 5.98922C11.0298 6.06237 10.9591 6.13552 10.8859 6.20867C10.7055 6.38911 10.5177 6.56467 10.3226 6.73048C10.1275 6.89385 9.94216 7.06209 9.73731 7.20352V7.20596Z" fill="var(--fill-0, #1D1E1C)"/>
</g>
<path id="Vector_17" d="M13.8322 4.30675C15.1954 3.87029 16.3246 3.04368 17.539 2.339C18.7608 1.65626 20.0216 0.985711 21.0995 0.00305398C20.3459 -0.0213296 19.6241 0.103027 18.9022 0.278588C18.1097 0.48341 17.3195 0.771136 16.5879 1.19297C15.4076 1.92204 14.3882 3.02661 13.8347 4.30675H13.8322Z" fill="var(--fill-0, #1D1E1C)"/>
</g>
</svg>
