<svg preserveAspectRatio="none" width="100%" height="100%" overflow="visible" style="display: block;" viewBox="0 0 21 56" fill="none" xmlns="http://www.w3.org/2000/svg">
<g id="Group">
<g id="Group_2">
<path id="Vector" d="M5.63331 18.9379C5.61455 18.9379 5.60204 18.9254 5.36133 18.7285C5.12375 18.5346 4.89867 18.3221 4.6861 18.1001C4.02649 17.4124 3.47942 16.6027 3.13868 15.7086C2.42593 13.8299 2.86358 11.7948 3.85456 10.1067C4.4829 9.0313 5.37384 8.15287 6.27103 7.29944C7.17447 6.43976 8.16857 5.6176 8.6156 4.41405C9.14704 2.97917 8.98136 1.41612 8.46555 0C8.49994 0.0969091 8.73127 0.234457 8.80317 0.306358C9.09077 0.584581 9.35962 0.887812 9.60658 1.20355C10.7757 2.70408 11.1352 4.48595 11.1352 4.48595C11.4791 6.20531 11.1978 7.81525 10.2724 9.31265C9.79414 10.0848 9.21269 10.8007 8.60935 11.4759C8.05291 12.098 7.40268 12.6294 6.88375 13.2859C6.10222 14.2769 5.82087 15.4554 5.72396 16.6934C5.71146 16.8497 5.72396 18.9254 5.63331 18.9348V18.9379Z" fill="var(--fill-0, #1B1C1A)"/>
<path id="Vector_2" d="M9.73486 19.7069C9.49415 19.6069 8.35 19.1067 7.90296 17.8813C7.29338 16.2119 8.40314 14.5082 9.51603 13.3484C10.26 12.5731 11.176 12.0167 11.9263 11.2539C12.6953 10.4724 13.4268 9.51269 13.805 8.47482C14.2615 7.21501 14.2021 6.08336 14.1177 5.44251C14.1302 5.54254 14.3865 5.75512 14.4521 5.83952C14.6022 6.03334 14.746 6.23654 14.8742 6.44599C15.2024 6.98055 15.4494 7.56513 15.5807 8.18097C15.887 9.59397 15.4744 11.107 14.7491 12.3262C14.1833 13.2765 13.4205 14.0924 12.5765 14.802C11.8043 15.4523 10.9071 15.9931 10.4195 16.909C9.86616 17.95 9.74736 18.9879 9.73798 19.71L9.73486 19.7069Z" fill="var(--fill-0, #1B1C1A)"/>
<path id="Vector_3" d="M12.1106 19.1036C12.0262 19.1036 12.5139 17.6468 12.5576 17.5655C12.9421 16.8246 13.4611 16.3088 14.1863 15.893C14.8115 15.5335 15.4868 15.2459 16.0307 14.7708C16.8654 14.0424 17.2999 12.9389 17.4343 11.8416C18.2784 13.3359 17.9908 15.1084 17.0405 16.4776C15.268 19.0285 12.1137 19.1067 12.1137 19.1067L12.1106 19.1036Z" fill="var(--fill-0, #1B1C1A)"/>
</g>
<path id="Vector_4" d="M19.3006 22.5954V21.5357H8.31393e-05V22.5954C8.31393e-05 22.5954 1.55688 22.9737 2.01016 24.1085C2.46345 25.2433 3.14494 28.0411 5.33633 28.7226C7.53085 29.4041 7.49647 30.4638 7.49647 30.4638C7.83409 30.3544 8.27486 30.2075 8.7938 30.0387C9.9442 29.6573 10.9946 29.3791 12.0606 28.9758C13.2297 28.5319 13.8706 28.2881 14.6271 27.7004C15.5149 27.0158 16.0776 26.2374 16.2433 26.0029C16.7466 25.2808 17.1467 24.4836 17.1467 24.4836C17.4875 23.8021 17.525 23.5645 17.8032 23.2644C17.9752 23.08 18.4097 22.6924 19.3006 22.5986V22.5954Z" fill="var(--fill-0, #1B1C1A)"/>
<g id="Group_3">
<path id="Vector_5" d="M5.48037 42.3118C5.40222 41.9398 4.8614 41.4553 4.68009 41.0989C4.27995 40.3205 4.08613 39.5233 4.07363 38.6605C4.04862 37.0037 4.9333 35.4625 6.34943 34.3278C8.50643 32.599 11.3699 32.0832 13.9052 31.1423C14.8305 30.7984 15.734 30.3264 16.3686 29.5448C17.0251 28.7352 17.2501 27.7098 17.5377 26.7313C17.5377 26.7313 18.1723 27.9912 18.3224 28.9727C18.5225 30.2763 17.9379 31.4049 17.7784 31.6581C16.9125 33.0398 15.2682 33.9057 13.627 34.5059C11.917 35.1312 10.0945 35.5657 8.50331 36.441C8.00001 36.7192 7.07468 37.2288 6.43383 37.929C4.97394 39.5265 5.35532 41.7147 5.48349 42.3118H5.48037Z" fill="var(--fill-0, #1B1C1A)"/>
<path id="Vector_6" d="M20.2231 46.1069C20.1918 46.1913 20.1043 46.4164 19.9636 46.679C19.3228 47.8982 18.2443 48.7141 16.7719 49.5081C14.9525 50.4897 14.8618 50.1802 12.6767 51.2775C11.545 51.8464 10.7354 52.2591 9.82256 53.0375C8.78782 53.919 8.12196 54.8475 7.71869 55.5071C6.26506 54.8569 5.38037 53.994 4.91458 53.4595C4.6895 53.2031 4.20808 52.6217 3.77668 51.7651C3.62976 51.4744 2.99828 50.1771 2.91075 48.5828C2.74194 45.5161 4.68325 43.2309 4.90833 42.9683C7.04971 40.5206 10.6478 39.6453 11.0605 39.489C12.6548 38.895 13.5332 38.6637 14.5305 37.8978C15.4026 37.2288 15.931 36.4879 16.2436 35.9565C16.3717 36.3722 16.528 37.1069 16.328 37.9978C15.3182 42.4462 8.72842 41.8742 6.32133 45.2097C6.01497 45.6349 5.17092 47.2386 5.61795 49.0579C5.92431 50.3084 6.72772 51.1337 7.19038 51.5338C8.15635 50.8429 9.65375 49.877 11.6294 49.0142C13.13 48.3577 13.8896 48.2076 14.7837 47.8356C16.3405 47.1885 18.4037 45.8318 20.3825 42.6619C20.5701 43.3559 20.7889 44.6439 20.2231 46.1069Z" fill="var(--fill-0, #1B1C1A)"/>
</g>
</g>
</svg>
