<svg preserveAspectRatio="none" width="100%" height="100%" overflow="visible" style="display: block;" viewBox="0 0 44 90" fill="none" xmlns="http://www.w3.org/2000/svg">
<g id="Group">
<g id="Group_2">
<path id="Vector" d="M0.000116604 85.6261C0.000116604 85.6261 0.0123765 85.6057 0.0287273 85.5689C0.0450781 85.5321 0.0655203 85.479 0.0900465 85.4136C0.139099 85.2827 0.200415 85.1111 0.269906 84.9312C0.396625 84.5756 0.53152 84.2036 0.551959 84.1382C0.731817 83.6967 0.907585 83.2839 1.10379 82.9037C1.2019 82.7116 1.30409 82.5317 1.41855 82.3559C1.52892 82.1761 1.65155 82.0085 1.78235 81.845C2.06849 81.4894 2.35872 81.1664 2.64486 80.8272C2.931 80.492 3.21713 80.169 3.50327 79.8584C3.87117 79.4373 4.24724 79.0531 4.6233 78.6729C4.81134 78.4808 4.99528 78.2928 5.18332 78.1088C5.37135 77.929 5.55939 77.745 5.74334 77.5611C5.95181 77.3526 6.48321 76.8335 6.99009 76.3021C7.12089 76.1713 7.24761 76.0445 7.37024 75.9219C7.49287 75.7952 7.61142 75.6766 7.7177 75.5663C7.93434 75.3496 8.1142 75.1861 8.23274 75.1085C8.43713 75.4804 8.39625 76.2081 8.39216 76.5964C8.39216 77.1196 8.34311 77.6387 8.25727 78.1415C7.99566 79.7235 7.47652 81.3218 6.60584 82.6666C6.18481 83.3411 5.66567 83.9829 5.06069 84.5265C4.7582 84.7963 4.43118 85.0252 4.08782 85.2173C3.74445 85.4135 3.38065 85.5566 3.00458 85.6384C2.84107 85.6752 2.67756 85.7079 2.51405 85.7365C2.10528 85.8223 1.68016 85.8387 1.25913 85.8305C1.04657 85.8223 0.838092 85.8101 0.62962 85.7774C0.417059 85.7406 0.208587 85.6915 0.00420206 85.6302L0.000116604 85.6261Z" fill="url(#paint0_linear_2428_34)"/>
<path id="Vector_2" d="M5.60082 87.0851C5.60082 87.0851 5.62126 87.0974 5.65397 87.1219C5.68667 87.1465 5.73163 87.1832 5.78477 87.2282C5.89105 87.3141 6.03821 87.4285 6.18537 87.547C6.48377 87.7841 6.79852 88.0294 6.85575 88.0662C7.26043 88.336 7.66103 88.5853 8.0698 88.7775C8.48266 88.9696 8.90777 89.1167 9.37786 89.2026C9.88882 89.3007 10.3998 89.3579 10.9148 89.407C11.1724 89.4315 11.434 89.4519 11.6956 89.4642C11.9572 89.4764 12.2147 89.4805 12.4763 89.4805C12.8156 89.4805 13.159 89.4764 13.4983 89.4601C13.8416 89.4437 14.1768 89.407 14.5202 89.3743C14.8595 89.3375 15.2069 89.2966 15.5462 89.2434C15.8855 89.1862 16.2248 89.1249 16.5681 89.0595C16.7602 89.0186 17.1077 88.9614 17.5206 88.8633C17.9334 88.7652 18.4239 88.6466 18.9185 88.5199C19.4091 88.3891 19.8914 88.2379 20.3002 88.103C20.5046 88.0335 20.6926 87.9722 20.8479 87.9109C21.0033 87.8495 21.13 87.7923 21.2199 87.7433C21.0155 87.3876 20.2511 87.1465 19.8751 86.9748C19.3641 86.75 18.8368 86.566 18.3095 86.4025C17.8966 86.2758 17.4756 86.1491 17.0505 86.0264C16.6253 85.9079 16.2002 85.7975 15.7792 85.6994C15.3582 85.6054 14.9249 85.4991 14.4997 85.4214C14.0746 85.3397 13.6536 85.2784 13.2285 85.2212C11.5607 85.0086 9.76619 84.8737 8.29462 85.4828C8.1352 85.5482 7.97578 85.6136 7.81636 85.6831C7.02743 86.0346 6.25895 86.4638 5.59674 87.0811L5.60082 87.0851Z" fill="url(#paint1_linear_2428_34)"/>
<path id="Vector_3" d="M11.8586 81.7182C11.8586 81.7182 11.8627 81.6978 11.8709 81.6569C11.875 81.6201 11.8832 81.5629 11.8913 81.4975C11.9036 81.3667 11.924 81.1909 11.9404 81.007C11.9731 80.6472 12.0058 80.2753 12.014 80.2099C12.1529 79.3228 12.2756 78.5094 12.6353 77.7818C13.0114 76.9724 13.4079 76.2162 13.8003 75.464C13.927 75.2229 14.0619 74.9899 14.1927 74.7528C14.3235 74.5157 14.4543 74.2827 14.5892 74.0538C14.8631 73.6041 15.1247 73.1422 15.3986 72.7048C15.558 72.4637 15.9218 71.8015 16.2979 71.1801C16.6535 70.5302 17.0255 69.9211 17.1972 69.7004C17.4751 69.9743 17.6141 70.6692 17.6959 71.0207C17.8144 71.499 17.8839 71.9813 17.9248 72.4678C18.0556 74.0047 17.9248 75.5948 17.4343 77.095C16.9437 78.5421 16.0935 80.0995 14.7282 80.8516C14.5851 80.9375 14.4298 81.007 14.2826 81.0805C13.9066 81.2645 13.5182 81.4239 13.1095 81.5343C12.7007 81.6406 12.2797 81.706 11.8586 81.7182Z" fill="url(#paint2_linear_2428_34)"/>
<path id="Vector_4" d="M17.5489 81.3997C17.5489 81.3997 17.5693 81.4038 17.6061 81.416C17.6429 81.4283 17.692 81.4487 17.7574 81.4733C17.88 81.5223 18.0476 81.5836 18.2193 81.649C18.5586 81.7798 18.9224 81.9107 18.9837 81.927C19.4292 82.0496 19.8625 82.1518 20.2999 82.205C20.7373 82.2622 21.1829 82.2785 21.6407 82.205C22.1394 82.1314 22.6381 82.0455 23.1409 81.9352C23.6355 81.8166 24.126 81.6858 24.6206 81.5387C25.2624 81.3425 25.8796 81.0931 26.5091 80.8315C27.1264 80.5576 27.7313 80.2511 28.3404 79.9322C28.508 79.8382 28.8064 79.6665 29.1702 79.4621C29.534 79.2536 29.9673 79.0043 30.3843 78.7304C30.8012 78.4606 31.2223 78.1868 31.5697 77.9374C31.909 77.684 32.1829 77.4673 32.3259 77.3283C32.052 77.0626 31.2836 77.0667 30.9034 77.0259C30.3843 76.9809 29.8447 76.9645 29.3174 76.9727C28.9004 76.9768 28.4794 76.9891 28.0625 77.0136C27.6455 77.034 27.2163 77.0545 26.7953 77.0913C26.3742 77.124 25.9614 77.1771 25.5444 77.2302C25.1234 77.2834 24.7105 77.3447 24.3018 77.4224C24.1015 77.4592 23.9012 77.5041 23.6968 77.5491C23.4924 77.59 23.2839 77.6349 23.0795 77.684C22.6708 77.7821 22.2702 77.9006 21.8737 78.0355C21.4772 78.1663 21.0929 78.3176 20.7373 78.5056C20.3817 78.6936 20.0301 78.8939 19.7195 79.1474C19.5846 79.2537 19.4538 79.364 19.3229 79.4785C18.6485 80.0181 18.0435 80.6598 17.553 81.3956L17.5489 81.3997Z" fill="url(#paint3_linear_2428_34)"/>
<path id="Vector_5" d="M22.1764 74.642C22.1764 74.642 22.1764 74.6215 22.1764 74.5847C22.1723 74.5479 22.1641 74.4989 22.1559 74.4335C22.1396 74.3109 22.1151 74.1433 22.0905 73.9716C22.0374 73.6323 21.9842 73.2808 21.9761 73.2194C21.9311 72.7861 21.8943 72.3733 21.8861 71.9768C21.8821 71.5803 21.9148 71.196 21.9883 70.7954C22.0742 70.3662 22.1682 69.9493 22.2622 69.5364C22.3521 69.1154 22.4462 68.7066 22.5524 68.3019C22.6873 67.7787 22.8181 67.2514 22.9735 66.7486C23.1206 66.2377 23.2678 65.7308 23.4272 65.2403C23.4722 65.1013 23.5417 64.8478 23.6275 64.5413C23.6725 64.39 23.7215 64.2224 23.7706 64.0507C23.8237 63.879 23.8769 63.7033 23.9177 63.5234C24.1058 62.7999 24.3101 62.105 24.4369 61.8516C24.7557 62.0273 25.0214 62.6241 25.1808 62.9266C25.3975 63.3395 25.5692 63.7687 25.7163 64.2142C25.8308 64.5617 25.9411 64.9255 26.027 65.2893C26.1087 65.649 26.1782 66.0169 26.2314 66.393C26.3458 67.1451 26.3663 67.9054 26.309 68.6739C26.2845 69.0541 26.2314 69.4342 26.1578 69.8185C26.0801 70.2027 25.9902 70.5951 25.8594 70.9671C25.5896 71.707 25.2176 72.4223 24.6617 72.966C24.5431 73.0845 24.4246 73.2031 24.302 73.3175C23.6847 73.8816 22.9775 74.3722 22.1723 74.6379L22.1764 74.642Z" fill="url(#paint4_linear_2428_34)"/>
<path id="Vector_6" d="M27.4161 72.6195C27.4161 72.6195 27.4365 72.6195 27.4733 72.6195C27.5101 72.6195 27.5632 72.6195 27.6245 72.6276C27.7513 72.6358 27.9189 72.644 28.0946 72.6522C28.438 72.6644 28.7977 72.6726 28.8631 72.6685C29.7501 72.6235 30.5677 72.5295 31.3811 72.1289C32.2763 71.7038 33.1225 71.1888 33.9646 70.6247C34.4919 70.2445 35.0069 69.8316 35.5138 69.4024C35.7632 69.1858 36.0248 68.9691 36.2619 68.7361C36.4989 68.5031 36.736 68.2661 36.969 68.0249C37.0998 67.89 37.3369 67.6447 37.6231 67.3463C37.7661 67.1951 37.9255 67.0357 38.0809 66.8599C38.2321 66.68 38.3915 66.4961 38.551 66.308C39.1764 65.5559 39.81 64.7874 39.9817 64.4318C39.671 64.2642 38.9924 64.5013 38.6245 64.5708C38.134 64.6771 37.6476 64.8242 37.1693 64.9877C35.6814 65.5191 34.1158 66.12 32.7178 66.913C32.0025 67.2891 31.2789 67.7142 30.6331 68.2088C30.3061 68.4541 29.9791 68.7075 29.6929 68.9896C29.5498 69.1286 29.4109 69.2757 29.2801 69.427C29.1452 69.5741 29.0184 69.7295 28.904 69.893C28.8018 70.0319 28.7078 70.175 28.6097 70.3181C28.3726 70.6778 28.1396 71.0416 27.9352 71.4259C27.7308 71.8101 27.5673 72.2189 27.4242 72.6276L27.4161 72.6195Z" fill="url(#paint5_linear_2428_34)"/>
<path id="Vector_7" d="M30.1265 64.9501C30.1265 64.9501 30.1224 64.9297 30.1101 64.897C30.0979 64.8643 30.0774 64.8193 30.057 64.7621C30.012 64.6517 29.9507 64.5004 29.8853 64.3492C29.7586 64.0467 29.6237 63.736 29.6033 63.6788C29.3212 62.894 29.125 62.2072 29.076 61.4061C29.031 60.5436 29.0514 59.7178 29.0269 58.8799C29.0187 58.3362 29.0514 57.813 29.0678 57.2816C29.0759 56.7502 29.1005 56.2229 29.1332 55.7078C29.1373 55.6342 29.1454 55.5361 29.1536 55.4135C29.1536 55.2909 29.1577 55.1437 29.1618 54.9843C29.1659 54.6654 29.1781 54.2935 29.1904 53.9256C29.1986 53.7416 29.2068 53.5577 29.2149 53.3819C29.2149 53.202 29.2149 53.0304 29.219 52.875C29.2272 52.5644 29.2395 52.3109 29.2681 52.1679C29.5951 52.2373 29.9793 52.732 30.1919 52.9772C30.4821 53.3042 30.7519 53.6721 30.9808 54.0482C31.3365 54.6409 31.6635 55.2786 31.9373 55.9612C32.0068 56.1329 32.0722 56.3046 32.1335 56.4804C32.1867 56.6521 32.2398 56.8278 32.2889 57.0036C32.3829 57.3592 32.4647 57.723 32.526 58.095C32.5587 58.279 32.5832 58.4629 32.6077 58.655C32.6322 58.8472 32.6527 59.0393 32.6568 59.2273C32.6731 59.6116 32.669 60.004 32.6363 60.3964C32.5996 60.7847 32.5546 61.1853 32.4442 61.5573C32.3338 61.9293 32.1908 62.2931 32.0068 62.6365C31.9292 62.7836 31.8433 62.9308 31.7616 63.0738C31.5613 63.4417 31.2997 63.7769 31.0258 64.0958C30.7478 64.4105 30.4494 64.7048 30.1183 64.9583L30.1265 64.9501Z" fill="url(#paint6_linear_2428_34)"/>
<path id="Vector_8" d="M34.4395 61.4682C34.4395 61.4682 34.5172 61.4396 34.6316 61.4069C34.7461 61.3742 34.9014 61.3292 35.0608 61.2842C35.3756 61.1943 35.7067 61.0962 35.7639 61.0758C36.1604 60.9245 36.5488 60.7692 36.9003 60.5689C37.2518 60.3686 37.587 60.1274 37.91 59.8208C38.2574 59.4856 38.6049 59.1423 38.936 58.7785C39.2548 58.4106 39.5655 58.0304 39.868 57.638C40.0642 57.3846 40.2563 57.123 40.4484 56.8573C40.6324 56.5875 40.8 56.3136 40.9676 56.0315C41.1352 55.7536 41.3028 55.4674 41.4663 55.1813C41.6257 54.8911 41.7974 54.6049 41.9364 54.3065C42.0999 53.9713 42.5168 53.1129 42.9174 52.2259C43.2812 51.3348 43.6205 50.4191 43.7104 50.039C43.3957 49.9695 42.8356 50.3864 42.5372 50.5622C42.1326 50.8034 41.7442 51.0854 41.3682 51.3797C40.7836 51.8457 40.15 52.3322 39.5696 52.8554C39.2753 53.117 38.9891 53.3827 38.7112 53.6607C38.4291 53.9346 38.1389 54.2125 37.865 54.5027C37.3254 55.0709 36.8104 55.6964 36.3076 56.3504C35.8212 57.0044 35.4369 57.7116 35.1508 58.4555C35.0935 58.6191 35.0404 58.7785 34.9832 58.942C34.7256 59.7636 34.4927 60.6016 34.4436 61.4723L34.4395 61.4682Z" fill="url(#paint7_linear_2428_34)"/>
<path id="Vector_9" d="M35.093 53.411C35.093 53.411 35.0522 53.3456 34.9908 53.2516C34.9254 53.1616 34.8396 53.039 34.7497 52.9123C34.5739 52.6629 34.3695 52.4054 34.3409 52.3563C33.8994 51.6901 33.5315 51.0851 33.3312 50.3411C33.2086 49.9364 33.0901 49.5318 32.9838 49.1271C32.8734 48.7224 32.7876 48.3259 32.6813 47.9253C32.5423 47.4061 32.4238 46.887 32.3216 46.372C32.2766 46.1144 32.2153 45.8569 32.154 45.5994C32.0968 45.3419 32.0436 45.0843 31.9905 44.8268C31.9619 44.6837 31.9128 44.4262 31.8515 44.1155C31.7779 43.8049 31.6921 43.437 31.6062 43.0732C31.5245 42.7053 31.4468 42.3415 31.3814 42.0431C31.3078 41.7365 31.2506 41.4831 31.2383 41.34C31.5408 41.3155 32.0027 41.6915 32.2562 41.8673C32.6036 42.1044 32.9061 42.3824 33.2004 42.6849C33.6623 43.159 34.1161 43.6863 34.5289 44.2627C34.9173 44.8391 35.2729 45.4686 35.5754 46.1471L35.6857 46.4006C35.7184 46.4864 35.7512 46.5723 35.7798 46.6581C35.8411 46.8339 35.9024 47.0096 35.9555 47.1936C36.0659 47.5574 36.164 47.9335 36.2376 48.3177C36.3193 48.7019 36.3357 49.0903 36.3398 49.4827C36.3398 49.871 36.303 50.2634 36.2294 50.6436C36.2008 50.8071 36.1558 50.9706 36.1109 51.1341C36.0005 51.5388 35.8656 51.9394 35.7021 52.3236C35.6203 52.5158 35.5304 52.7038 35.4364 52.8878C35.3342 53.0676 35.2157 53.2434 35.0971 53.411H35.093Z" fill="url(#paint8_linear_2428_34)"/>
<path id="Vector_10" d="M38.0937 48.8283C38.0937 48.8283 38.155 48.7793 38.2449 48.718C38.3389 48.6526 38.4615 48.5667 38.5883 48.4768C38.8417 48.301 39.1074 48.1089 39.1524 48.0721C39.463 47.8105 39.7533 47.553 40.0231 47.2586C40.1539 47.1115 40.2888 46.9602 40.4032 46.7927C40.5177 46.6251 40.6239 46.4493 40.7261 46.2572C41.1594 45.4233 41.5805 44.5444 41.887 43.6288C41.9933 43.3304 42.0914 43.0279 42.1854 42.7213C42.2795 42.4147 42.3735 42.1081 42.443 41.7934C42.5901 41.168 42.7209 40.5303 42.8395 39.8885C42.9049 39.5288 43.0275 38.5968 43.142 37.6485C43.2074 37.1743 43.2196 36.7001 43.2442 36.2954C43.2605 35.8908 43.2687 35.5556 43.2564 35.3634C42.9662 35.3798 42.5901 35.9235 42.3776 36.1687C42.0914 36.5039 41.8298 36.8759 41.5846 37.2601C40.7548 38.4701 40.0067 39.7863 39.3363 41.1966C39.1769 41.544 39.0297 41.9038 38.8744 42.2717C38.715 42.6395 38.5678 43.0156 38.4411 43.3999C38.3103 43.78 38.2204 44.1724 38.1304 44.5608C38.0364 44.9532 37.9751 45.3456 37.9547 45.7421C37.9465 45.9138 37.9424 46.0855 37.9342 46.2572C37.9342 46.6864 37.9015 47.1197 37.9261 47.5489C37.9465 47.9781 37.9956 48.4073 38.0855 48.8283H38.0937Z" fill="url(#paint9_linear_2428_34)"/>
<path id="Vector_11" d="M36.6388 40.9228C36.6388 40.9228 36.5856 40.8696 36.508 40.8001C36.4262 40.7306 36.3199 40.6366 36.2095 40.5385C35.9888 40.3464 35.7599 40.1543 35.719 40.1175C35.1672 39.5943 34.6767 39.1119 34.3088 38.4415C34.1166 38.0777 33.8959 37.718 33.6956 37.3583C33.4953 36.9986 33.3032 36.6348 33.1192 36.271C32.8658 35.8009 32.6165 35.3267 32.3876 34.8525C32.269 34.6154 32.1709 34.3743 32.0442 34.1372C31.9256 33.9001 31.8071 33.663 31.6886 33.4259C31.5537 33.1602 31.243 32.4776 30.8792 31.8154C30.7034 31.4802 30.5358 31.1491 30.4009 30.8629C30.2619 30.5768 30.1352 30.3479 30.0821 30.2089C30.3396 30.1108 30.8465 30.3602 31.1163 30.4705C31.4719 30.6177 31.8112 30.8139 32.1546 31.0305C32.4243 31.2022 32.69 31.3862 32.9598 31.5865C33.2255 31.7868 33.4953 31.9952 33.7406 32.2282C34.2352 32.6861 34.7216 33.2052 35.1672 33.7816C35.576 34.3538 35.9888 34.9997 36.324 35.7028C36.6224 36.4099 36.8595 37.1703 36.9208 37.9469C36.9249 38.1145 36.9331 38.2821 36.9372 38.4497C36.9494 38.8707 36.9372 39.2918 36.8963 39.7087C36.8799 39.9172 36.8431 40.1216 36.7982 40.326C36.7532 40.5304 36.7001 40.7306 36.6388 40.9228Z" fill="url(#paint10_linear_2428_34)"/>
<path id="Vector_12" d="M38.0566 35.6993C38.0566 35.6993 38.0975 35.638 38.1629 35.5522C38.2323 35.4663 38.3141 35.3478 38.4 35.2293C38.5716 34.9922 38.7515 34.7428 38.7801 34.6938C38.9804 34.3627 39.1603 34.0397 39.3156 33.6882C39.4627 33.3407 39.6058 32.9647 39.6671 32.5477C39.7407 32.094 39.802 31.6321 39.8552 31.162C39.8797 30.929 39.9042 30.6919 39.9247 30.4548C39.941 30.2177 39.9451 29.9806 39.9533 29.7436C39.9655 29.1263 39.9615 28.4927 39.9328 27.8591C39.8797 27.2296 39.8143 26.5919 39.7325 25.9543C39.7039 25.5905 39.5363 24.6789 39.3606 23.7592C39.3156 23.5262 39.2665 23.2973 39.2257 23.0765C39.1766 22.8558 39.1194 22.6473 39.0662 22.4552C38.9641 22.0669 38.87 21.7521 38.8005 21.5723C38.5512 21.6581 38.3836 22.259 38.2732 22.541C38.122 22.9294 38.0157 23.3381 37.8931 23.7633C37.705 24.4377 37.5415 25.1367 37.4066 25.848C37.3372 26.2241 37.2717 26.5879 37.2104 26.9394C37.1491 27.3073 37.096 27.6834 37.0592 28.0594C36.9979 28.7952 36.8916 29.5964 36.8957 30.3894C36.9079 31.1824 36.9243 31.9918 37.1123 32.7644C37.1532 32.932 37.1941 33.0955 37.239 33.2631C37.3331 33.68 37.4353 34.1011 37.5742 34.5057C37.705 34.9145 37.8808 35.311 38.0525 35.6912L38.0566 35.6993Z" fill="url(#paint11_linear_2428_34)"/>
<path id="Vector_13" d="M34.6517 28.4641C34.6517 28.4641 34.5904 28.4274 34.5005 28.3783C34.4106 28.3293 34.292 28.2679 34.1653 28.2025C33.92 28.0717 33.6625 27.9409 33.6217 27.9164C33.3192 27.7284 33.0208 27.5485 32.7387 27.3482C32.4567 27.1479 32.1869 26.919 31.9293 26.641C31.7904 26.4898 31.6514 26.3385 31.5165 26.1873C31.3816 26.0361 31.2303 25.8889 31.0914 25.7377C30.8093 25.4393 30.5354 25.1327 30.2697 24.8261C30.1839 24.7239 30.0981 24.6258 30.0122 24.5236C29.9223 24.4255 29.8324 24.3233 29.7424 24.2252C29.5667 24.0249 29.3909 23.8246 29.2192 23.6243C29.0475 23.424 28.8799 23.2196 28.7164 23.0112C28.5488 22.8068 28.3649 22.6106 28.1973 22.4103C28.0992 22.2958 27.9275 22.0955 27.719 21.8502C27.6168 21.7276 27.5024 21.5927 27.3838 21.4537C27.2653 21.3148 27.1304 21.1799 27.0078 21.0368C26.7502 20.7547 26.5009 20.4768 26.2924 20.2315C26.1902 20.1089 26.0962 19.9985 26.0185 19.9004C25.9368 19.8064 25.8673 19.7287 25.8223 19.6674C26.0185 19.5162 26.5417 19.6429 26.7952 19.696C27.1508 19.7614 27.5105 19.8718 27.8743 20.0026C28.1605 20.1048 28.4548 20.2233 28.7491 20.3501C29.0475 20.4768 29.3214 20.6321 29.6116 20.7915C29.8978 20.955 30.1839 21.1308 30.4741 21.3229C30.7603 21.5151 31.0505 21.7194 31.3121 21.9524C31.5778 22.1773 31.8435 22.4225 32.1133 22.6801C32.2482 22.8109 32.379 22.9458 32.5098 23.0847C32.5752 23.1583 32.6406 23.2278 32.7019 23.2973C32.7632 23.375 32.8205 23.4485 32.8818 23.5221C33.1148 23.8246 33.3396 24.1434 33.5399 24.4786C33.7402 24.8138 33.9241 25.1613 34.0468 25.5292C34.0999 25.6886 34.153 25.848 34.2062 26.0074C34.337 26.408 34.4514 26.8127 34.5373 27.2215C34.6027 27.6343 34.6436 28.0513 34.6477 28.456L34.6517 28.4641Z" fill="url(#paint12_linear_2428_34)"/>
<path id="Vector_14" d="M34.3935 23.1213C34.3935 23.1213 34.4099 23.0518 34.4426 22.9537C34.4753 22.8556 34.5162 22.7248 34.5611 22.5899C34.6511 22.3201 34.7247 22.0421 34.7369 21.989C34.8882 21.2695 34.9822 20.5869 34.88 19.7489C34.8064 19.3033 34.7206 18.8537 34.6265 18.4041C34.5775 18.1792 34.5284 17.9503 34.4753 17.7214C34.4222 17.4925 34.369 17.2636 34.2954 17.0429C34.1197 16.4624 33.9194 15.8738 33.7027 15.2851C33.6005 14.9867 33.4697 14.7047 33.343 14.4145C33.2122 14.1242 33.0814 13.8381 32.9506 13.552C32.8729 13.3884 32.738 13.0982 32.5745 12.7467C32.3947 12.4033 32.178 11.9986 31.9532 11.5939C31.7284 11.1893 31.5076 10.7805 31.2992 10.4453C31.0866 10.1142 30.9027 9.84441 30.7882 9.69725C30.5961 9.83215 30.641 10.4167 30.6329 10.6987C30.6329 11.083 30.641 11.4999 30.6738 11.921C30.7228 12.5832 30.7964 13.2658 30.9027 13.9607C30.9885 14.6679 31.107 15.3914 31.2746 16.1109C31.3646 16.4624 31.43 16.8426 31.5199 17.2145C31.6098 17.5906 31.712 17.9708 31.8347 18.3427C31.9614 18.7147 32.0758 19.099 32.223 19.4669C32.3701 19.8388 32.5377 20.1986 32.7339 20.5419L32.8648 20.7627L32.9833 20.9916C33.1836 21.3676 33.4043 21.7396 33.6414 22.0952C33.76 22.271 33.8867 22.4468 34.0134 22.6144C34.1401 22.7861 34.2627 22.9537 34.3935 23.1172V23.1213Z" fill="url(#paint13_linear_2428_34)"/>
<path id="Vector_15" d="M29.2764 17.0265C29.2764 17.0265 29.211 17.006 29.117 16.9774C29.023 16.9529 28.8963 16.9202 28.7695 16.8834C28.512 16.818 28.2504 16.7485 28.2013 16.7322C27.8743 16.6259 27.5718 16.5114 27.2612 16.3806C26.9464 16.2539 26.6398 16.0986 26.3251 15.8942C25.9817 15.6735 25.6547 15.4405 25.3154 15.2156C24.968 14.9949 24.6287 14.7701 24.2935 14.5371C24.0768 14.3858 23.8602 14.2346 23.6476 14.0752C23.4228 13.9198 23.2062 13.7727 22.9895 13.6214C22.548 13.3189 22.1311 12.996 21.6937 12.6894C21.4444 12.5218 20.8067 12.0926 20.1894 11.6512C19.5477 11.2342 18.9059 10.8214 18.6729 10.6251C18.7996 10.4494 19.3024 10.4739 19.5518 10.4657C19.891 10.4535 20.2548 10.4821 20.6268 10.527C20.774 10.5434 20.9211 10.5638 21.0724 10.5884C21.2195 10.617 21.3667 10.6456 21.5139 10.6783C21.8123 10.7437 22.1148 10.8214 22.4254 10.9113C22.7361 11.0012 23.0508 11.1034 23.3697 11.2179C23.6844 11.3405 23.991 11.4836 24.3058 11.6389C24.9189 11.9455 25.5893 12.297 26.1902 12.7712C26.7993 13.2331 27.3961 13.7563 27.8457 14.3981C27.9438 14.533 28.0419 14.672 28.14 14.811C28.6387 15.4895 29.0189 16.258 29.2805 17.0183L29.2764 17.0265Z" fill="url(#paint14_linear_2428_34)"/>
<path id="Vector_16" d="M27.3879 12.0799C27.3879 12.0799 27.3797 12.0145 27.3797 11.9164C27.3797 11.8183 27.3715 11.6875 27.3674 11.5526C27.3593 11.2869 27.347 11.0049 27.3429 10.9517C27.253 10.2486 27.1099 9.61097 26.7502 8.86701C26.6521 8.66671 26.554 8.46232 26.4477 8.26611C26.3333 8.0699 26.2188 7.87369 26.1084 7.68157C25.8754 7.29324 25.6343 6.90082 25.3808 6.51249C25.2991 6.38577 25.2173 6.25905 25.1274 6.13642C25.0375 6.01379 24.9434 5.89525 24.8535 5.77262C24.6696 5.53144 24.4815 5.29027 24.2894 5.04909C24.0973 4.80792 23.9011 4.56674 23.7008 4.32966C23.5005 4.08848 23.2838 3.87184 23.0713 3.64292C22.9486 3.51621 22.732 3.28729 22.4704 3.00933C22.2006 2.73546 21.8981 2.39618 21.5588 2.09369C20.8925 1.47644 20.2099 0.867377 19.9115 0.642553C19.7807 0.797886 20.0014 1.31702 20.0791 1.57455C20.1894 1.92609 20.3407 2.28581 20.5042 2.64961C20.635 2.93575 20.774 3.22598 20.9171 3.52029C21.056 3.82278 21.2032 4.12936 21.3585 4.43594C21.5139 4.74252 21.6774 5.04909 21.8491 5.35567C21.9349 5.511 22.0248 5.66225 22.1148 5.81758C22.2088 5.96883 22.2905 6.13642 22.3845 6.29175C22.5644 6.60242 22.7565 6.92535 22.9609 7.24419C23.0631 7.40361 23.1694 7.56303 23.2757 7.72245C23.386 7.88187 23.4964 8.04129 23.6027 8.2048C23.8234 8.53181 24.0564 8.85065 24.3058 9.15723C24.4325 9.30848 24.5592 9.45972 24.6941 9.60688C24.7595 9.68046 24.829 9.74995 24.8985 9.82353L25.1029 10.0402C25.2214 10.1628 25.3399 10.2854 25.4626 10.4081C25.7651 10.7106 26.0798 11.0049 26.4068 11.2828C26.7339 11.5567 27.0445 11.8388 27.3879 12.0758V12.0799Z" fill="url(#paint15_linear_2428_34)"/>
</g>
<path id="Vector_17" d="M20.5251 7.21991C18.2401 6.48821 16.3475 5.10248 14.3118 3.92114C12.2639 2.77658 10.1505 1.65246 8.34375 0.00511974C9.60685 -0.0357573 10.8168 0.172715 12.0268 0.46703C13.3553 0.810397 14.6797 1.29275 15.906 1.99992C17.8844 3.22214 19.5931 5.07387 20.521 7.21991H20.5251Z" fill="url(#paint16_linear_2428_34)"/>
</g>
<defs>
<linearGradient id="paint0_linear_2428_34" x1="-0.825599" y1="84.1913" x2="9.90052" y2="77.9985" gradientUnits="userSpaceOnUse">
<stop stop-color="#BF966E"/>
<stop offset="0.15" stop-color="#C39C76"/>
<stop offset="0.39" stop-color="#D0AC8E"/>
<stop offset="0.7" stop-color="#E5C8B4"/>
<stop offset="1" stop-color="#FFE9E2"/>
</linearGradient>
<linearGradient id="paint1_linear_2428_34" x1="7.65694" y1="90.6455" x2="19.0902" y2="84.048" gradientUnits="userSpaceOnUse">
<stop stop-color="#BF966E"/>
<stop offset="0.15" stop-color="#C39C76"/>
<stop offset="0.39" stop-color="#D0AC8E"/>
<stop offset="0.7" stop-color="#E5C8B4"/>
<stop offset="1" stop-color="#FFE9E2"/>
</linearGradient>
<linearGradient id="paint2_linear_2428_34" x1="10.0968" y1="78.6647" x2="19.3269" y2="73.3344" gradientUnits="userSpaceOnUse">
<stop stop-color="#BF966E"/>
<stop offset="0.15" stop-color="#C39C76"/>
<stop offset="0.39" stop-color="#D0AC8E"/>
<stop offset="0.7" stop-color="#E5C8B4"/>
<stop offset="1" stop-color="#FFE9E2"/>
</linearGradient>
<linearGradient id="paint3_linear_2428_34" x1="18.3542" y1="82.7936" x2="31.1936" y2="75.3785" gradientUnits="userSpaceOnUse">
<stop stop-color="#BF966E"/>
<stop offset="0.15" stop-color="#C39C76"/>
<stop offset="0.39" stop-color="#D0AC8E"/>
<stop offset="0.7" stop-color="#E5C8B4"/>
<stop offset="1" stop-color="#FFE9E2"/>
</linearGradient>
<linearGradient id="paint4_linear_2428_34" x1="19.7115" y1="70.3785" x2="27.0612" y2="66.1396" gradientUnits="userSpaceOnUse">
<stop stop-color="#BF966E"/>
<stop offset="0.15" stop-color="#C39C76"/>
<stop offset="0.39" stop-color="#D0AC8E"/>
<stop offset="0.7" stop-color="#E5C8B4"/>
<stop offset="1" stop-color="#FFE9E2"/>
</linearGradient>
<linearGradient id="paint5_linear_2428_34" x1="27.2403" y1="72.3129" x2="40.2106" y2="64.8242" gradientUnits="userSpaceOnUse">
<stop stop-color="#BF966E"/>
<stop offset="0.15" stop-color="#C39C76"/>
<stop offset="0.39" stop-color="#D0AC8E"/>
<stop offset="0.7" stop-color="#E5C8B4"/>
<stop offset="1" stop-color="#FFE9E2"/>
</linearGradient>
<linearGradient id="paint6_linear_2428_34" x1="27.2528" y1="59.9713" x2="32.62" y2="56.8728" gradientUnits="userSpaceOnUse">
<stop stop-color="#BF966E"/>
<stop offset="0.15" stop-color="#C39C76"/>
<stop offset="0.39" stop-color="#D0AC8E"/>
<stop offset="0.7" stop-color="#E5C8B4"/>
<stop offset="1" stop-color="#FFE9E2"/>
</linearGradient>
<linearGradient id="paint7_linear_2428_34" x1="33.1968" y1="59.314" x2="45.0961" y2="52.4466" gradientUnits="userSpaceOnUse">
<stop stop-color="#BF966E"/>
<stop offset="0.15" stop-color="#C39C76"/>
<stop offset="0.39" stop-color="#D0AC8E"/>
<stop offset="0.7" stop-color="#E5C8B4"/>
<stop offset="1" stop-color="#FFE9E2"/>
</linearGradient>
<linearGradient id="paint8_linear_2428_34" x1="31.8597" y1="48.1297" x2="35.5631" y2="45.9918" gradientUnits="userSpaceOnUse">
<stop stop-color="#BF966E"/>
<stop offset="0.15" stop-color="#C39C76"/>
<stop offset="0.39" stop-color="#D0AC8E"/>
<stop offset="0.7" stop-color="#E5C8B4"/>
<stop offset="1" stop-color="#FFE9E2"/>
</linearGradient>
<linearGradient id="paint9_linear_2428_34" x1="35.8127" y1="44.8837" x2="45.5169" y2="39.2795" gradientUnits="userSpaceOnUse">
<stop stop-color="#BF966E"/>
<stop offset="0.15" stop-color="#C39C76"/>
<stop offset="0.39" stop-color="#D0AC8E"/>
<stop offset="0.7" stop-color="#E5C8B4"/>
<stop offset="1" stop-color="#FFE9E2"/>
</linearGradient>
<linearGradient id="paint10_linear_2428_34" x1="32.8249" y1="35.8745" x2="35.5514" y2="34.3007" gradientUnits="userSpaceOnUse">
<stop stop-color="#BF966E"/>
<stop offset="0.15" stop-color="#C39C76"/>
<stop offset="0.39" stop-color="#D0AC8E"/>
<stop offset="0.7" stop-color="#E5C8B4"/>
<stop offset="1" stop-color="#FFE9E2"/>
</linearGradient>
<linearGradient id="paint11_linear_2428_34" x1="35.093" y1="30.5611" x2="41.7723" y2="26.7064" gradientUnits="userSpaceOnUse">
<stop stop-color="#BF966E"/>
<stop offset="0.15" stop-color="#C39C76"/>
<stop offset="0.39" stop-color="#D0AC8E"/>
<stop offset="0.7" stop-color="#E5C8B4"/>
<stop offset="1" stop-color="#FFE9E2"/>
</linearGradient>
<linearGradient id="paint12_linear_2428_34" x1="28.8309" y1="24.8833" x2="32.5384" y2="22.7414" gradientUnits="userSpaceOnUse">
<stop stop-color="#BF966E"/>
<stop offset="0.15" stop-color="#C39C76"/>
<stop offset="0.39" stop-color="#D0AC8E"/>
<stop offset="0.7" stop-color="#E5C8B4"/>
<stop offset="1" stop-color="#FFE9E2"/>
</linearGradient>
<linearGradient id="paint13_linear_2428_34" x1="30.8863" y1="17.3903" x2="34.2055" y2="15.4732" gradientUnits="userSpaceOnUse">
<stop stop-color="#BF966E"/>
<stop offset="0.15" stop-color="#C39C76"/>
<stop offset="0.39" stop-color="#D0AC8E"/>
<stop offset="0.7" stop-color="#E5C8B4"/>
<stop offset="1" stop-color="#FFE9E2"/>
</linearGradient>
<linearGradient id="paint14_linear_2428_34" x1="21.379" y1="15.3178" x2="26.7012" y2="12.2439" gradientUnits="userSpaceOnUse">
<stop stop-color="#BF966E"/>
<stop offset="0.15" stop-color="#C39C76"/>
<stop offset="0.39" stop-color="#D0AC8E"/>
<stop offset="0.7" stop-color="#E5C8B4"/>
<stop offset="1" stop-color="#FFE9E2"/>
</linearGradient>
<linearGradient id="paint15_linear_2428_34" x1="22.7279" y1="6.89265" x2="24.9189" y2="5.62546" gradientUnits="userSpaceOnUse">
<stop stop-color="#BF966E"/>
<stop offset="0.15" stop-color="#C39C76"/>
<stop offset="0.39" stop-color="#D0AC8E"/>
<stop offset="0.7" stop-color="#E5C8B4"/>
<stop offset="1" stop-color="#FFE9E2"/>
</linearGradient>
<linearGradient id="paint16_linear_2428_34" x1="11.43" y1="5.34366" x2="17.4961" y2="1.8405" gradientUnits="userSpaceOnUse">
<stop stop-color="#BF966E"/>
<stop offset="0.15" stop-color="#C39C76"/>
<stop offset="0.39" stop-color="#D0AC8E"/>
<stop offset="0.7" stop-color="#E5C8B4"/>
<stop offset="1" stop-color="#FFE9E2"/>
</linearGradient>
</defs>
</svg>
