<svg width="1216" height="71" viewBox="0 0 1216 71" fill="none" xmlns="http://www.w3.org/2000/svg">
<line y1="-0.5" x2="519" y2="-0.5" transform="matrix(-1 0 0 1 519 35)" stroke="url(#paint0_linear_2390_525)"/>
<line x1="697" y1="34.5" x2="1216" y2="34.5" stroke="url(#paint1_linear_2390_525)"/>
<path d="M600.84 56.7864C600.84 56.7864 600.833 56.7457 600.824 56.6707C600.843 56.727 600.846 56.7676 600.84 56.7864Z" fill="#1B1C1A"/>
<path d="M603.819 19.5357C603.8 19.5357 603.788 19.5232 603.547 19.3262C603.309 19.1324 603.084 18.9198 602.872 18.6979C602.212 18.0102 601.665 17.2005 601.324 16.3064C600.612 14.4276 601.049 12.3926 602.04 10.7045C602.669 9.62908 603.559 8.75064 604.457 7.89722C605.36 7.03754 606.354 6.21538 606.801 5.01183C607.333 3.57695 607.167 2.0139 606.651 0.597778C606.686 0.694687 606.917 0.832236 606.989 0.904136C607.276 1.18236 607.545 1.48559 607.792 1.80133C608.961 3.30185 609.321 5.08373 609.321 5.08373C609.665 6.80309 609.383 8.41303 608.458 9.91043C607.98 10.6826 607.398 11.3985 606.795 12.0737C606.239 12.6958 605.588 13.2272 605.069 13.8837C604.288 14.8747 604.006 16.0532 603.91 17.2911C603.897 17.4475 603.91 19.5232 603.819 19.5326V19.5357Z" fill="#1B1C1A"/>
<path d="M607.92 20.3047C607.68 20.2046 606.536 19.7045 606.089 18.479C605.479 16.8097 606.589 15.106 607.702 13.9462C608.446 13.1709 609.362 12.6145 610.112 11.8517C610.881 11.0702 611.612 10.1105 611.991 9.0726C612.447 7.81278 612.388 6.68113 612.303 6.04028C612.316 6.14032 612.572 6.35289 612.638 6.4373C612.788 6.63112 612.932 6.83431 613.06 7.04376C613.388 7.57832 613.635 8.1629 613.766 8.77875C614.073 10.1917 613.66 11.7048 612.935 12.924C612.369 13.8743 611.606 14.6902 610.762 15.3998C609.99 16.0501 609.093 16.5909 608.605 17.5068C608.052 18.5478 607.933 19.5857 607.924 20.3078L607.92 20.3047Z" fill="#1B1C1A"/>
<path d="M610.296 19.7013C610.212 19.7013 610.7 18.2446 610.743 18.1633C611.128 17.4224 611.647 16.9066 612.372 16.4908C612.997 16.1313 613.672 15.8437 614.216 15.3685C615.051 14.6402 615.486 13.5367 615.62 12.4394C616.464 13.9337 616.176 15.7062 615.226 17.0754C613.454 19.6263 610.299 19.7044 610.299 19.7044L610.296 19.7013Z" fill="#1B1C1A"/>
<path d="M617.486 23.1932V22.1335H598.186V23.1932C598.186 23.1932 599.742 23.5715 600.196 24.7063C600.649 25.841 601.331 28.6389 603.522 29.3204C605.716 30.0019 605.682 31.0616 605.682 31.0616C606.02 30.9522 606.46 30.8053 606.979 30.6365C608.13 30.2551 609.18 29.9769 610.246 29.5736C611.415 29.1297 612.056 28.8859 612.813 28.2982C613.7 27.6135 614.263 26.8351 614.429 26.6007C614.932 25.8786 615.332 25.0814 615.332 25.0814C615.673 24.3999 615.711 24.1623 615.989 23.8622C616.161 23.6778 616.595 23.2901 617.486 23.1964V23.1932Z" fill="#1B1C1A"/>
<path d="M603.666 42.9096C603.588 42.5376 603.047 42.0531 602.866 41.6967C602.466 40.9183 602.272 40.1212 602.259 39.2584C602.234 37.6015 603.119 36.0604 604.535 34.9256C606.692 33.1969 609.556 32.681 612.091 31.7401C613.016 31.3962 613.92 30.9242 614.554 30.1427C615.211 29.333 615.436 28.3076 615.723 27.3292C615.723 27.3292 616.358 28.589 616.508 29.5706C616.708 30.8742 616.123 32.0027 615.964 32.2559C615.098 33.6376 613.454 34.5036 611.813 35.1038C610.103 35.729 608.28 36.1635 606.689 37.0388C606.186 37.317 605.26 37.8266 604.619 38.5268C603.16 40.1243 603.541 42.3126 603.669 42.9096H603.666Z" fill="#1B1C1A"/>
<path d="M618.409 46.7047C618.377 46.7891 618.29 47.0142 618.149 47.2768C617.508 48.496 616.43 49.3119 614.958 50.1059C613.138 51.0875 613.047 50.778 610.862 51.8753C609.731 52.4442 608.921 52.8569 608.008 53.6353C606.973 54.5168 606.308 55.4453 605.904 56.1049C604.451 55.4547 603.566 54.5918 603.1 54.0573C602.875 53.8009 602.394 53.2195 601.962 52.3629C601.815 52.0722 601.184 50.7749 601.096 49.1806C600.928 46.1139 602.869 43.8287 603.094 43.5661C605.235 41.1184 608.833 40.2431 609.246 40.0868C610.84 39.4928 611.719 39.2615 612.716 38.4956C613.588 37.8266 614.117 37.0857 614.429 36.5543C614.557 36.97 614.714 37.7047 614.514 38.5956C613.504 43.044 606.914 42.472 604.507 45.8075C604.201 46.2327 603.357 47.8364 603.804 49.6557C604.11 50.9062 604.913 51.7315 605.376 52.1316C606.342 51.4407 607.839 50.4748 609.815 49.612C611.316 48.9555 612.075 48.8054 612.969 48.4334C614.526 47.7863 616.589 46.4296 618.568 43.2597C618.756 43.9537 618.975 45.2417 618.409 46.7047Z" fill="#1B1C1A"/>
<path d="M614.573 65.4832C614.573 65.4832 614.582 65.4676 614.594 65.4394C614.607 65.4113 614.623 65.3707 614.641 65.3207C614.679 65.2206 614.726 65.0893 614.779 64.9518C614.876 64.6798 614.979 64.3953 614.995 64.3453C615.132 64.0077 615.267 63.692 615.417 63.4012C615.492 63.2543 615.57 63.1168 615.657 62.9823C615.742 62.8448 615.835 62.7166 615.935 62.5916C616.154 62.3196 616.376 62.0726 616.595 61.8132C616.814 61.5568 617.033 61.3099 617.252 61.0723C617.533 60.7503 617.821 60.4564 618.108 60.1657C618.252 60.0188 618.393 59.875 618.536 59.7343C618.68 59.5968 618.824 59.4561 618.965 59.3154C619.124 59.156 619.531 58.759 619.918 58.3526C620.018 58.2525 620.115 58.1556 620.209 58.0619C620.303 57.9649 620.393 57.8743 620.475 57.7899C620.64 57.6242 620.778 57.4992 620.868 57.4398C621.025 57.7242 620.994 58.2807 620.99 58.5777C620.99 58.9778 620.953 59.3748 620.887 59.7593C620.687 60.9691 620.29 62.1914 619.624 63.2199C619.302 63.7357 618.905 64.2265 618.443 64.6423C618.211 64.8486 617.961 65.0237 617.699 65.1706C617.436 65.3207 617.158 65.4301 616.87 65.4926C616.745 65.5207 616.62 65.5457 616.495 65.5676C616.182 65.6333 615.857 65.6458 615.535 65.6395C615.373 65.6333 615.213 65.6239 615.054 65.5989C614.891 65.5707 614.732 65.5332 614.576 65.4863L614.573 65.4832Z" fill="#1B1C1A"/>
<path d="M618.855 66.5992C618.855 66.5992 618.871 66.6086 618.896 66.6273C618.921 66.6461 618.955 66.6742 618.996 66.7086C619.077 66.7743 619.19 66.8618 619.302 66.9525C619.53 67.1338 619.771 67.3213 619.815 67.3495C620.124 67.5558 620.431 67.7465 620.743 67.8934C621.059 68.0403 621.384 68.1529 621.744 68.2185C622.135 68.2936 622.525 68.3373 622.919 68.3748C623.116 68.3936 623.316 68.4092 623.516 68.4186C623.716 68.428 623.913 68.4311 624.113 68.4311C624.373 68.4311 624.635 68.428 624.895 68.4155C625.157 68.403 625.414 68.3748 625.676 68.3498C625.936 68.3217 626.202 68.2904 626.461 68.2498C626.721 68.206 626.98 68.1591 627.243 68.1091C627.389 68.0779 627.655 68.0341 627.971 67.9591C628.287 67.884 628.662 67.7934 629.04 67.6965C629.415 67.5964 629.784 67.4808 630.097 67.3776C630.253 67.3245 630.397 67.2776 630.516 67.2307C630.634 67.1838 630.731 67.14 630.8 67.1025C630.644 66.8305 630.059 66.6461 629.772 66.5148C629.381 66.3429 628.978 66.2022 628.574 66.0772C628.259 65.9802 627.937 65.8833 627.611 65.7896C627.286 65.6989 626.961 65.6145 626.639 65.5395C626.317 65.4676 625.986 65.3863 625.661 65.3269C625.336 65.2644 625.014 65.2175 624.689 65.1737C623.413 65.0112 622.041 64.908 620.915 65.3738C620.793 65.4238 620.671 65.4738 620.55 65.527C619.946 65.7958 619.359 66.124 618.852 66.5961L618.855 66.5992Z" fill="#1B1C1A"/>
<path d="M623.641 62.4946C623.641 62.4946 623.644 62.479 623.65 62.4477C623.653 62.4196 623.659 62.3758 623.666 62.3258C623.675 62.2258 623.691 62.0914 623.703 61.9507C623.728 61.6756 623.753 61.3911 623.76 61.3411C623.866 60.6627 623.96 60.0406 624.235 59.4842C624.522 58.8652 624.826 58.2869 625.126 57.7117C625.223 57.5273 625.326 57.3491 625.426 57.1678C625.526 56.9864 625.626 56.8082 625.729 56.6332C625.938 56.2893 626.139 55.9361 626.348 55.6016C626.47 55.4171 626.748 54.9107 627.036 54.4355C627.308 53.9385 627.592 53.4727 627.723 53.3039C627.936 53.5133 628.042 54.0448 628.105 54.3136C628.195 54.6794 628.249 55.0483 628.28 55.4203C628.38 56.5957 628.28 57.8117 627.905 58.959C627.53 60.0656 626.879 61.2567 625.835 61.8319C625.726 61.8975 625.607 61.9507 625.495 62.007C625.207 62.1476 624.91 62.2695 624.597 62.3539C624.285 62.4352 623.963 62.4852 623.641 62.4946Z" fill="#1B1C1A"/>
<path d="M627.992 62.2508C627.992 62.2508 628.008 62.2539 628.036 62.2633C628.064 62.2727 628.102 62.2883 628.152 62.3071C628.246 62.3446 628.374 62.3915 628.505 62.4415C628.764 62.5416 629.043 62.6416 629.09 62.6541C629.43 62.7479 629.762 62.826 630.096 62.8667C630.431 62.9104 630.771 62.9229 631.122 62.8667C631.503 62.8104 631.884 62.7447 632.269 62.6603C632.647 62.5697 633.022 62.4696 633.4 62.3571C633.891 62.2071 634.363 62.0164 634.845 61.8163C635.317 61.6068 635.779 61.3724 636.245 61.1286C636.373 61.0567 636.602 60.9254 636.88 60.7691C637.158 60.6096 637.489 60.4189 637.808 60.2095C638.127 60.0032 638.449 59.7937 638.715 59.603C638.974 59.4092 639.184 59.2435 639.293 59.1372C639.084 58.934 638.496 58.9372 638.205 58.9059C637.808 58.8715 637.396 58.859 636.992 58.8653C636.673 58.8684 636.351 58.8778 636.033 58.8965C635.714 58.9122 635.386 58.9278 635.064 58.9559C634.742 58.9809 634.426 59.0216 634.107 59.0622C633.785 59.1028 633.469 59.1497 633.157 59.2091C633.003 59.2373 632.85 59.2717 632.694 59.306C632.538 59.3373 632.378 59.3717 632.222 59.4092C631.909 59.4842 631.603 59.5749 631.3 59.678C630.996 59.7781 630.703 59.8937 630.431 60.0375C630.159 60.1813 629.89 60.3345 629.652 60.5283C629.549 60.6096 629.449 60.694 629.349 60.7816C628.833 61.1942 628.371 61.685 627.995 62.2477L627.992 62.2508Z" fill="#1B1C1A"/>
<path d="M631.531 57.0833C631.531 57.0833 631.531 57.0677 631.531 57.0396C631.528 57.0114 631.522 56.9739 631.515 56.9239C631.503 56.8301 631.484 56.7019 631.465 56.5706C631.425 56.3112 631.384 56.0423 631.378 55.9954C631.343 55.6641 631.315 55.3483 631.309 55.0451C631.306 54.7419 631.331 54.448 631.387 54.1417C631.453 53.8134 631.525 53.4946 631.597 53.1788C631.665 52.8568 631.737 52.5442 631.819 52.2347C631.922 51.8346 632.022 51.4313 632.141 51.0468C632.253 50.6561 632.366 50.2684 632.488 49.8933C632.522 49.787 632.575 49.5932 632.641 49.3587C632.675 49.2431 632.713 49.1149 632.75 48.9836C632.791 48.8523 632.831 48.7179 632.863 48.5803C633.006 48.027 633.163 47.4956 633.26 47.3018C633.503 47.4362 633.707 47.8926 633.829 48.1239C633.994 48.4397 634.126 48.7679 634.238 49.1086C634.326 49.3744 634.41 49.6526 634.476 49.9308C634.538 50.2059 634.591 50.4872 634.632 50.7748C634.72 51.3501 634.735 51.9315 634.691 52.5192C634.673 52.8099 634.632 53.1007 634.576 53.3945C634.516 53.6884 634.448 53.9885 634.348 54.273C634.141 54.8388 633.857 55.3858 633.432 55.8016C633.341 55.8923 633.25 55.9829 633.157 56.0705C632.684 56.5019 632.144 56.877 631.528 57.0802L631.531 57.0833Z" fill="#1B1C1A"/>
<path d="M635.539 55.5359C635.539 55.5359 635.555 55.5359 635.583 55.5359C635.611 55.5359 635.652 55.5359 635.699 55.5422C635.796 55.5484 635.924 55.5547 636.058 55.561C636.321 55.5703 636.596 55.5766 636.646 55.5735C637.324 55.5391 637.949 55.4672 638.571 55.1608C639.256 54.8357 639.903 54.4418 640.547 54.0104C640.95 53.7197 641.344 53.4039 641.732 53.0757C641.923 52.91 642.123 52.7443 642.304 52.5662C642.485 52.388 642.667 52.2066 642.845 52.0222C642.945 51.919 643.126 51.7315 643.345 51.5033C643.454 51.3876 643.576 51.2657 643.695 51.1313C643.811 50.9937 643.933 50.853 644.055 50.7092C644.533 50.134 645.018 49.5463 645.149 49.2744C644.911 49.1462 644.392 49.3275 644.111 49.3807C643.736 49.4619 643.364 49.5745 642.998 49.6995C641.86 50.1059 640.663 50.5654 639.594 51.1719C639.047 51.4595 638.493 51.7846 637.999 52.1629C637.749 52.3504 637.499 52.5443 637.28 52.76C637.171 52.8663 637.065 52.9788 636.965 53.0945C636.862 53.207 636.765 53.3258 636.677 53.4508C636.599 53.5571 636.527 53.6665 636.452 53.776C636.271 54.051 636.093 54.3293 635.936 54.6231C635.78 54.917 635.655 55.2296 635.545 55.5422L635.539 55.5359Z" fill="#1B1C1A"/>
<path d="M637.612 49.6714C637.612 49.6714 637.609 49.6557 637.599 49.6307C637.59 49.6057 637.574 49.5713 637.559 49.5276C637.524 49.4432 637.477 49.3275 637.427 49.2118C637.331 48.9805 637.227 48.7429 637.212 48.6992C636.996 48.0989 636.846 47.5738 636.808 46.961C636.774 46.3014 636.79 45.67 636.771 45.0291C636.765 44.6133 636.79 44.2132 636.802 43.8068C636.808 43.4004 636.827 42.9971 636.852 42.6033C636.855 42.547 636.862 42.472 636.868 42.3782C636.868 42.2844 636.871 42.1719 636.874 42.0499C636.877 41.8061 636.887 41.5216 636.896 41.2403C636.902 41.0996 636.908 40.9589 636.915 40.8245C636.915 40.687 636.915 40.5557 636.918 40.4369C636.924 40.1993 636.934 40.0055 636.955 39.8961C637.205 39.9492 637.499 40.3275 637.662 40.515C637.884 40.7651 638.09 41.0465 638.265 41.3341C638.537 41.7873 638.787 42.275 638.997 42.7971C639.05 42.9284 639.1 43.0597 639.147 43.1941C639.187 43.3254 639.228 43.4598 639.266 43.5942C639.337 43.8662 639.4 44.1444 639.447 44.4289C639.472 44.5696 639.491 44.7103 639.509 44.8572C639.528 45.0041 639.544 45.151 639.547 45.2948C639.559 45.5887 639.556 45.8888 639.531 46.1889C639.503 46.4859 639.469 46.7922 639.384 47.0767C639.3 47.3612 639.191 47.6394 639.05 47.902C638.99 48.0145 638.925 48.1271 638.862 48.2365C638.709 48.5178 638.509 48.7742 638.3 49.018C638.087 49.2587 637.859 49.4838 637.606 49.6776L637.612 49.6714Z" fill="#1B1C1A"/>
<path d="M640.909 47.0079C640.909 47.0079 640.969 46.986 641.056 46.961C641.144 46.936 641.263 46.9016 641.384 46.8672C641.625 46.7985 641.878 46.7234 641.922 46.7078C642.225 46.5921 642.522 46.4733 642.791 46.3202C643.06 46.167 643.316 45.9825 643.563 45.7481C643.829 45.4917 644.095 45.2292 644.348 44.9509C644.592 44.6696 644.829 44.3789 645.061 44.0787C645.211 43.8849 645.358 43.6849 645.505 43.4817C645.645 43.2753 645.774 43.0659 645.902 42.8502C646.03 42.6376 646.158 42.4188 646.283 42.2C646.405 41.978 646.536 41.7592 646.643 41.531C646.768 41.2746 647.086 40.6182 647.393 39.9398C647.671 39.2583 647.931 38.5581 647.999 38.2673C647.759 38.2142 647.33 38.533 647.102 38.6675C646.793 38.8519 646.496 39.0676 646.208 39.2927C645.761 39.6491 645.276 40.0211 644.833 40.4212C644.607 40.6213 644.389 40.8245 644.176 41.0371C643.96 41.2465 643.738 41.4591 643.529 41.681C643.116 42.1156 642.722 42.5939 642.338 43.094C641.966 43.5942 641.672 44.135 641.453 44.704C641.409 44.829 641.369 44.9509 641.325 45.076C641.128 45.7043 640.95 46.3452 640.912 47.011L640.909 47.0079Z" fill="#1B1C1A"/>
<path d="M641.41 40.8464C641.41 40.8464 641.379 40.7964 641.332 40.7245C641.282 40.6557 641.216 40.5619 641.147 40.465C641.013 40.2743 640.857 40.0774 640.835 40.0398C640.497 39.5303 640.216 39.0676 640.063 38.4987C639.969 38.1892 639.878 37.8797 639.797 37.5702C639.713 37.2607 639.647 36.9575 639.566 36.6512C639.459 36.2541 639.369 35.8571 639.291 35.4632C639.256 35.2663 639.209 35.0693 639.162 34.8724C639.119 34.6755 639.078 34.4785 639.037 34.2816C639.015 34.1722 638.978 33.9752 638.931 33.7376C638.875 33.5 638.809 33.2187 638.743 32.9405C638.681 32.6591 638.622 32.3809 638.572 32.1527C638.515 31.9182 638.471 31.7244 638.462 31.615C638.693 31.5963 639.047 31.8839 639.24 32.0183C639.506 32.1996 639.738 32.4122 639.963 32.6435C640.316 33.0061 640.663 33.4094 640.979 33.8502C641.276 34.291 641.548 34.7724 641.779 35.2913L641.863 35.4851C641.888 35.5508 641.913 35.6164 641.935 35.6821C641.982 35.8165 642.029 35.9509 642.07 36.0916C642.154 36.3698 642.229 36.6574 642.285 36.9513C642.348 37.2451 642.36 37.5421 642.363 37.8422C642.363 38.1392 642.335 38.4393 642.279 38.73C642.257 38.8551 642.223 38.9801 642.188 39.1051C642.104 39.4146 642.001 39.721 641.876 40.0148C641.813 40.1618 641.744 40.3056 641.673 40.4462C641.594 40.5838 641.504 40.7182 641.413 40.8464H641.41Z" fill="#1B1C1A"/>
<path d="M643.705 37.342C643.705 37.342 643.752 37.3045 643.82 37.2576C643.892 37.2076 643.986 37.142 644.083 37.0732C644.277 36.9388 644.48 36.7919 644.514 36.7637C644.752 36.5637 644.974 36.3667 645.18 36.1416C645.28 36.0291 645.383 35.9134 645.471 35.7853C645.558 35.6571 645.64 35.5227 645.718 35.3757C646.049 34.738 646.371 34.0659 646.606 33.3657C646.687 33.1374 646.762 32.9061 646.834 32.6717C646.906 32.4372 646.978 32.2027 647.031 31.962C647.143 31.4837 647.243 30.9961 647.334 30.5053C647.384 30.2302 647.478 29.5174 647.565 28.7922C647.615 28.4295 647.625 28.0669 647.644 27.7574C647.656 27.4479 647.662 27.1916 647.653 27.0447C647.431 27.0572 647.143 27.473 646.981 27.6605C646.762 27.9169 646.562 28.2013 646.374 28.4952C645.74 29.4205 645.168 30.4271 644.655 31.5056C644.533 31.7713 644.421 32.0464 644.302 32.3278C644.18 32.6091 644.067 32.8967 643.97 33.1906C643.87 33.4813 643.802 33.7814 643.733 34.0784C643.661 34.3785 643.614 34.6786 643.598 34.9818C643.592 35.1131 643.589 35.2444 643.583 35.3757C643.583 35.704 643.558 36.0353 643.576 36.3636C643.592 36.6918 643.63 37.0201 643.698 37.342H643.705Z" fill="#1B1C1A"/>
<path d="M642.592 31.2961C642.592 31.2961 642.551 31.2555 642.492 31.2024C642.429 31.1492 642.348 31.0773 642.263 31.0023C642.095 30.8554 641.92 30.7084 641.888 30.6803C641.466 30.2802 641.091 29.9113 640.81 29.3986C640.663 29.1204 640.494 28.8453 640.341 28.5702C640.188 28.2951 640.041 28.0169 639.9 27.7386C639.706 27.3791 639.516 27.0165 639.341 26.6539C639.25 26.4726 639.175 26.2881 639.078 26.1068C638.987 25.9255 638.897 25.7442 638.806 25.5629C638.703 25.3597 638.465 24.8376 638.187 24.3312C638.053 24.0749 637.924 23.8216 637.821 23.6028C637.715 23.384 637.618 23.2089 637.577 23.1026C637.774 23.0276 638.162 23.2183 638.368 23.3027C638.64 23.4153 638.9 23.5653 639.162 23.731C639.369 23.8623 639.572 24.003 639.778 24.1561C639.981 24.3093 640.188 24.4687 640.375 24.6469C640.754 24.9971 641.126 25.3941 641.466 25.8349C641.779 26.2725 642.095 26.7664 642.351 27.3041C642.579 27.8449 642.76 28.4264 642.807 29.0203C642.81 29.1485 642.817 29.2767 642.82 29.4049C642.829 29.7268 642.82 30.0488 642.789 30.3677C642.776 30.5271 642.748 30.6834 642.714 30.8397C642.679 30.996 642.639 31.1492 642.592 31.2961Z" fill="#1B1C1A"/>
<path d="M643.676 27.301C643.676 27.301 643.708 27.2541 643.758 27.1885C643.811 27.1228 643.873 27.0321 643.939 26.9415C644.07 26.7602 644.208 26.5695 644.23 26.532C644.383 26.2788 644.521 26.0318 644.639 25.7629C644.752 25.4972 644.861 25.2096 644.908 24.8908C644.964 24.5438 645.011 24.1905 645.052 23.831C645.071 23.6528 645.089 23.4715 645.105 23.2902C645.118 23.1089 645.121 22.9276 645.127 22.7463C645.136 22.2742 645.133 21.7897 645.111 21.3051C645.071 20.8237 645.021 20.336 644.958 19.8484C644.936 19.5701 644.808 18.873 644.674 18.1697C644.639 17.9915 644.602 17.8164 644.571 17.6476C644.533 17.4788 644.489 17.3194 644.449 17.1724C644.37 16.8755 644.299 16.6347 644.245 16.4972C644.055 16.5628 643.927 17.0224 643.842 17.2381C643.726 17.5351 643.645 17.8477 643.551 18.1728C643.408 18.6886 643.283 19.2232 643.179 19.7671C643.126 20.0547 643.076 20.3329 643.029 20.6018C642.982 20.8831 642.942 21.1707 642.914 21.4583C642.867 22.021 642.786 22.6337 642.789 23.2402C642.798 23.8467 642.811 24.4656 642.954 25.0565C642.986 25.1846 643.017 25.3097 643.051 25.4378C643.123 25.7567 643.201 26.0787 643.308 26.3882C643.408 26.7008 643.542 27.004 643.673 27.2947L643.676 27.301Z" fill="#1B1C1A"/>
<path d="M641.072 21.7678C641.072 21.7678 641.025 21.7397 640.956 21.7022C640.887 21.6647 640.797 21.6178 640.7 21.5677C640.512 21.4677 640.315 21.3677 640.284 21.3489C640.053 21.2051 639.825 21.0676 639.609 20.9144C639.393 20.7612 639.187 20.5862 638.99 20.3736C638.884 20.2579 638.777 20.1422 638.674 20.0266C638.571 19.9109 638.455 19.7984 638.349 19.6827C638.133 19.4545 637.924 19.22 637.721 18.9856C637.655 18.9074 637.589 18.8324 637.524 18.7543C637.455 18.6792 637.386 18.6011 637.317 18.5261C637.183 18.3729 637.049 18.2197 636.917 18.0665C636.786 17.9133 636.658 17.757 636.533 17.5976C636.405 17.4413 636.264 17.2912 636.136 17.1381C636.061 17.0505 635.929 16.8974 635.77 16.7098C635.692 16.616 635.604 16.5128 635.514 16.4066C635.423 16.3003 635.32 16.1971 635.226 16.0877C635.029 15.872 634.838 15.6594 634.679 15.4719C634.601 15.3781 634.529 15.2937 634.47 15.2186C634.407 15.1467 634.354 15.0873 634.319 15.0405C634.47 14.9248 634.87 15.0217 635.063 15.0623C635.335 15.1124 635.611 15.1968 635.889 15.2968C636.108 15.3749 636.333 15.4656 636.558 15.5625C636.786 15.6594 636.995 15.7782 637.217 15.9001C637.436 16.0252 637.655 16.1596 637.877 16.3065C638.096 16.4534 638.318 16.6098 638.518 16.7879C638.721 16.9599 638.924 17.1474 639.131 17.3444C639.234 17.4444 639.334 17.5476 639.434 17.6539C639.484 17.7101 639.534 17.7633 639.581 17.8164C639.628 17.8758 639.671 17.9321 639.718 17.9884C639.896 18.2197 640.068 18.4635 640.222 18.7199C640.375 18.9762 640.515 19.2419 640.609 19.5233C640.65 19.6452 640.69 19.7671 640.731 19.889C640.831 20.1954 640.919 20.5049 640.984 20.8175C641.034 21.1332 641.066 21.4521 641.069 21.7616L641.072 21.7678Z" fill="#1B1C1A"/>
<path d="M640.875 17.682C640.875 17.682 640.888 17.6289 640.913 17.5538C640.938 17.4788 640.969 17.3788 641.004 17.2756C641.072 17.0693 641.129 16.8567 641.138 16.8161C641.254 16.2659 641.326 15.7438 641.247 15.103C641.191 14.7622 641.126 14.4184 641.054 14.0745C641.016 13.9025 640.979 13.7275 640.938 13.5524C640.897 13.3774 640.857 13.2023 640.8 13.0335C640.666 12.5896 640.513 12.1394 640.347 11.6893C640.269 11.4611 640.169 11.2454 640.072 11.0234C639.972 10.8015 639.872 10.5826 639.772 10.3638C639.713 10.2388 639.609 10.0168 639.484 9.74796C639.347 9.48537 639.181 9.17589 639.009 8.8664C638.837 8.55692 638.668 8.24431 638.509 7.98797C638.346 7.73476 638.206 7.52843 638.118 7.41589C637.971 7.51905 638.006 7.96609 637.999 8.18179C637.999 8.47564 638.006 8.7945 638.031 9.11649C638.068 9.62292 638.124 10.145 638.206 10.6764C638.271 11.2172 638.362 11.7705 638.49 12.3207C638.559 12.5896 638.609 12.8803 638.678 13.1648C638.747 13.4524 638.825 13.7431 638.919 14.0276C639.015 14.3121 639.103 14.6059 639.215 14.8873C639.328 15.1717 639.456 15.4468 639.606 15.7094L639.706 15.8782L639.797 16.0533C639.95 16.3409 640.119 16.6254 640.3 16.8974C640.391 17.0318 640.488 17.1662 640.585 17.2944C640.682 17.4257 640.775 17.5538 640.875 17.6789V17.682Z" fill="#1B1C1A"/>
<path d="M636.962 13.021C636.962 13.021 636.912 13.0053 636.84 12.9835C636.768 12.9647 636.671 12.9397 636.574 12.9116C636.377 12.8615 636.177 12.8084 636.14 12.7959C635.89 12.7146 635.658 12.6271 635.421 12.527C635.18 12.4301 634.945 12.3113 634.705 12.155C634.442 11.9862 634.192 11.808 633.933 11.6361C633.667 11.4673 633.407 11.2954 633.151 11.1172C632.985 11.0015 632.82 10.8858 632.657 10.7639C632.485 10.6451 632.32 10.5326 632.154 10.4169C631.816 10.1856 631.497 9.93864 631.163 9.70418C630.972 9.57601 630.484 9.24777 630.012 8.91015C629.522 8.59129 629.031 8.27555 628.853 8.1255C628.95 7.99108 629.334 8.00983 629.525 8.00358C629.784 7.9942 630.062 8.01609 630.347 8.05047C630.459 8.06298 630.572 8.07861 630.688 8.09736C630.8 8.11925 630.913 8.14113 631.025 8.16614C631.254 8.21616 631.485 8.27555 631.722 8.34433C631.96 8.4131 632.201 8.49125 632.445 8.57878C632.685 8.67257 632.92 8.78198 633.16 8.90077C633.629 9.13523 634.142 9.40407 634.602 9.7667C635.067 10.12 635.524 10.5201 635.868 11.0109C635.943 11.114 636.018 11.2203 636.093 11.3266C636.474 11.8456 636.765 12.4333 636.965 13.0147L636.962 13.021Z" fill="#1B1C1A"/>
<path d="M635.517 9.2384C635.517 9.2384 635.511 9.18839 635.511 9.11336C635.511 9.03833 635.505 8.9383 635.502 8.83514C635.496 8.63194 635.486 8.41624 635.483 8.3756C635.414 7.83791 635.305 7.35024 635.03 6.78129C634.955 6.62811 634.88 6.4718 634.798 6.32175C634.711 6.1717 634.623 6.02165 634.539 5.87472C634.361 5.57774 634.176 5.27763 633.982 4.98066C633.92 4.88375 633.857 4.78684 633.789 4.69305C633.72 4.59927 633.648 4.50861 633.579 4.41483C633.439 4.23039 633.295 4.04595 633.148 3.86151C633.001 3.67707 632.851 3.49263 632.698 3.31132C632.544 3.12688 632.379 2.9612 632.216 2.78613C632.122 2.68922 631.957 2.51416 631.757 2.30159C631.55 2.09214 631.319 1.83267 631.06 1.60134C630.55 1.1293 630.028 0.663513 629.8 0.491577C629.7 0.610369 629.869 1.00738 629.928 1.20433C630.012 1.47317 630.128 1.74827 630.253 2.02649C630.353 2.24532 630.459 2.46727 630.569 2.69235C630.675 2.92368 630.788 3.15814 630.906 3.3926C631.025 3.62705 631.15 3.86151 631.282 4.09597C631.347 4.21476 631.416 4.33043 631.485 4.44922C631.557 4.56488 631.619 4.69305 631.691 4.81185C631.829 5.04943 631.976 5.29639 632.132 5.54023C632.21 5.66215 632.291 5.78406 632.373 5.90598C632.457 6.0279 632.541 6.14982 632.623 6.27486C632.791 6.52495 632.97 6.76878 633.16 7.00324C633.257 7.11891 633.354 7.23457 633.457 7.34711C633.507 7.40338 633.56 7.45653 633.614 7.5128L633.77 7.67848C633.861 7.77226 633.951 7.86604 634.045 7.95983C634.276 8.19116 634.517 8.41624 634.767 8.62881C635.017 8.83826 635.255 9.05396 635.517 9.23528V9.2384Z" fill="#1B1C1A"/>
<path d="M630.268 5.52148C628.52 4.96191 627.073 3.90216 625.516 2.99872C623.95 2.12341 622.334 1.26373 620.952 0.00391536C621.918 -0.0273456 622.843 0.132085 623.769 0.357165C624.785 0.619757 625.798 0.988636 626.735 1.52945C628.248 2.46416 629.555 3.88028 630.265 5.52148H630.268Z" fill="#1B1C1A"/>
<path d="M601.427 65.4832C601.427 65.4832 601.418 65.4676 601.405 65.4394C601.393 65.4113 601.377 65.3707 601.359 65.3207C601.321 65.2206 601.274 65.0893 601.221 64.9518C601.124 64.6798 601.021 64.3953 601.005 64.3453C600.868 64.0077 600.733 63.692 600.583 63.4012C600.508 63.2543 600.43 63.1168 600.343 62.9823C600.258 62.8448 600.164 62.7166 600.064 62.5916C599.846 62.3196 599.624 62.0726 599.405 61.8132C599.186 61.5568 598.967 61.3099 598.748 61.0723C598.467 60.7503 598.179 60.4564 597.892 60.1657C597.748 60.0188 597.607 59.875 597.463 59.7343C597.32 59.5968 597.176 59.4561 597.035 59.3154C596.876 59.156 596.469 58.759 596.082 58.3526C595.982 58.2525 595.885 58.1556 595.791 58.0619C595.697 57.9649 595.607 57.8743 595.525 57.7899C595.36 57.6242 595.222 57.4992 595.131 57.4398C594.975 57.7242 595.006 58.2807 595.009 58.5777C595.009 58.9778 595.047 59.3748 595.113 59.7593C595.313 60.9691 595.71 62.1914 596.376 63.2199C596.698 63.7357 597.095 64.2265 597.557 64.6423C597.789 64.8486 598.039 65.0237 598.301 65.1706C598.564 65.3207 598.842 65.4301 599.13 65.4926C599.255 65.5207 599.38 65.5457 599.505 65.5676C599.817 65.6333 600.143 65.6458 600.465 65.6395C600.627 65.6333 600.787 65.6239 600.946 65.5989C601.108 65.5707 601.268 65.5332 601.424 65.4863L601.427 65.4832Z" fill="#1B1C1A"/>
<path d="M597.144 66.5992C597.144 66.5992 597.129 66.6086 597.104 66.6273C597.079 66.6461 597.044 66.6742 597.004 66.7086C596.922 66.7743 596.81 66.8618 596.697 66.9525C596.469 67.1338 596.228 67.3213 596.185 67.3495C595.875 67.5558 595.569 67.7465 595.256 67.8934C594.94 68.0403 594.615 68.1529 594.256 68.2185C593.865 68.2936 593.474 68.3373 593.08 68.3748C592.883 68.3936 592.683 68.4092 592.483 68.4186C592.283 68.428 592.086 68.4311 591.886 68.4311C591.627 68.4311 591.364 68.428 591.101 68.4155C590.839 68.403 590.583 68.3748 590.32 68.3498C590.06 68.3217 589.795 68.2904 589.535 68.2498C589.276 68.206 589.016 68.1591 588.754 68.1091C588.607 68.0779 588.341 68.0341 588.025 67.9591C587.71 67.884 587.335 67.7934 586.956 67.6965C586.581 67.5964 586.212 67.4808 585.9 67.3776C585.743 67.3245 585.6 67.2776 585.481 67.2307C585.362 67.1838 585.265 67.14 585.196 67.1025C585.353 66.8305 585.937 66.6461 586.225 66.5148C586.616 66.3429 587.019 66.2022 587.422 66.0772C587.738 65.9802 588.06 65.8833 588.385 65.7896C588.71 65.6989 589.035 65.6145 589.357 65.5395C589.679 65.4676 590.01 65.3863 590.336 65.3269C590.661 65.2644 590.983 65.2175 591.308 65.1737C592.583 65.0112 593.956 64.908 595.081 65.3738C595.203 65.4238 595.325 65.4738 595.447 65.527C596.05 65.7958 596.638 66.124 597.144 66.5961V66.5992Z" fill="#1B1C1A"/>
<path d="M592.358 62.4946C592.358 62.4946 592.355 62.479 592.349 62.4477C592.346 62.4196 592.339 62.3758 592.333 62.3258C592.324 62.2258 592.308 62.0914 592.296 61.9507C592.271 61.6756 592.246 61.3911 592.239 61.3411C592.133 60.6627 592.039 60.0406 591.764 59.4842C591.477 58.8652 591.173 58.2869 590.873 57.7117C590.776 57.5273 590.673 57.3491 590.573 57.1678C590.473 56.9864 590.373 56.8082 590.27 56.6332C590.06 56.2893 589.86 55.9361 589.651 55.6016C589.529 55.4171 589.251 54.9107 588.963 54.4355C588.691 53.9385 588.407 53.4727 588.275 53.3039C588.063 53.5133 587.957 54.0448 587.894 54.3136C587.803 54.6794 587.75 55.0483 587.719 55.4203C587.619 56.5957 587.719 57.8117 588.094 58.959C588.469 60.0656 589.12 61.2567 590.164 61.8319C590.273 61.8975 590.392 61.9507 590.504 62.007C590.792 62.1476 591.089 62.2695 591.402 62.3539C591.714 62.4352 592.036 62.4852 592.358 62.4946Z" fill="#1B1C1A"/>
<path d="M588.007 62.2508C588.007 62.2508 587.991 62.2539 587.963 62.2633C587.935 62.2727 587.898 62.2883 587.848 62.3071C587.754 62.3446 587.626 62.3915 587.494 62.4415C587.235 62.5416 586.957 62.6416 586.91 62.6541C586.569 62.7479 586.238 62.826 585.903 62.8667C585.569 62.9104 585.228 62.9229 584.878 62.8667C584.496 62.8104 584.115 62.7447 583.731 62.6603C583.352 62.5697 582.977 62.4696 582.599 62.3571C582.108 62.2071 581.636 62.0164 581.155 61.8163C580.683 61.6068 580.22 61.3724 579.754 61.1286C579.626 61.0567 579.398 60.9254 579.12 60.7691C578.841 60.6096 578.51 60.4189 578.191 60.2095C577.872 60.0032 577.55 59.7937 577.285 59.603C577.025 59.4092 576.816 59.2435 576.706 59.1372C576.916 58.934 577.503 58.9372 577.794 58.9059C578.191 58.8715 578.604 58.859 579.007 58.8653C579.326 58.8684 579.648 58.8778 579.967 58.8965C580.286 58.9122 580.614 58.9278 580.936 58.9559C581.258 58.9809 581.574 59.0216 581.892 59.0622C582.214 59.1028 582.53 59.1497 582.843 59.2091C582.996 59.2373 583.149 59.2717 583.305 59.306C583.462 59.3373 583.621 59.3717 583.777 59.4092C584.09 59.4842 584.396 59.5749 584.7 59.678C585.003 59.7781 585.297 59.8937 585.569 60.0375C585.841 60.1813 586.11 60.3345 586.347 60.5283C586.45 60.6096 586.55 60.694 586.65 60.7816C587.166 61.1942 587.629 61.685 588.004 62.2477L588.007 62.2508Z" fill="#1B1C1A"/>
<path d="M584.468 57.0833C584.468 57.0833 584.468 57.0677 584.468 57.0396C584.471 57.0114 584.478 56.9739 584.484 56.9239C584.496 56.8301 584.515 56.7019 584.534 56.5706C584.575 56.3112 584.615 56.0423 584.622 55.9954C584.656 55.6641 584.684 55.3483 584.69 55.0451C584.693 54.7419 584.668 54.448 584.612 54.1417C584.546 53.8134 584.475 53.4946 584.403 53.1788C584.334 52.8568 584.262 52.5442 584.181 52.2347C584.078 51.8346 583.978 51.4313 583.859 51.0468C583.746 50.6561 583.634 50.2684 583.512 49.8933C583.477 49.787 583.424 49.5932 583.359 49.3587C583.324 49.2431 583.287 49.1149 583.249 48.9836C583.209 48.8523 583.168 48.7179 583.137 48.5803C582.993 48.027 582.836 47.4956 582.74 47.3018C582.496 47.4362 582.293 47.8926 582.171 48.1239C582.005 48.4397 581.874 48.7679 581.761 49.1086C581.674 49.3744 581.589 49.6526 581.524 49.9308C581.461 50.2059 581.408 50.4872 581.367 50.7748C581.28 51.3501 581.264 51.9315 581.308 52.5192C581.327 52.8099 581.367 53.1007 581.424 53.3945C581.483 53.6884 581.552 53.9885 581.652 54.273C581.858 54.8388 582.143 55.3858 582.568 55.8016C582.658 55.8923 582.749 55.9829 582.843 56.0705C583.315 56.5019 583.856 56.877 584.471 57.0802L584.468 57.0833Z" fill="#1B1C1A"/>
<path d="M580.46 55.5359C580.46 55.5359 580.445 55.5359 580.416 55.5359C580.388 55.5359 580.348 55.5359 580.301 55.5422C580.204 55.5484 580.076 55.5547 579.941 55.561C579.679 55.5703 579.404 55.5766 579.354 55.5735C578.675 55.5391 578.05 55.4672 577.428 55.1608C576.743 54.8357 576.096 54.4418 575.452 54.0104C575.049 53.7197 574.655 53.4039 574.267 53.0757C574.077 52.91 573.877 52.7443 573.695 52.5662C573.514 52.388 573.333 52.2066 573.155 52.0222C573.054 51.919 572.873 51.7315 572.654 51.5033C572.545 51.3876 572.423 51.2657 572.304 51.1313C572.189 50.9937 572.067 50.853 571.945 50.7092C571.466 50.134 570.982 49.5463 570.851 49.2744C571.088 49.1462 571.607 49.3275 571.888 49.3807C572.264 49.4619 572.636 49.5745 573.001 49.6995C574.139 50.1059 575.337 50.5654 576.406 51.1719C576.953 51.4595 577.506 51.7846 578 52.1629C578.25 52.3504 578.5 52.5443 578.719 52.76C578.828 52.8663 578.935 52.9788 579.035 53.0945C579.138 53.207 579.235 53.3258 579.322 53.4508C579.4 53.5571 579.472 53.6665 579.547 53.776C579.729 54.051 579.907 54.3293 580.063 54.6231C580.22 54.917 580.345 55.2296 580.454 55.5422L580.46 55.5359Z" fill="#1B1C1A"/>
<path d="M578.388 49.6714C578.388 49.6714 578.392 49.6557 578.401 49.6307C578.41 49.6057 578.426 49.5713 578.442 49.5276C578.476 49.4432 578.523 49.3275 578.573 49.2118C578.67 48.9805 578.773 48.7429 578.789 48.6992C579.001 48.0989 579.154 47.5738 579.192 46.961C579.226 46.3014 579.211 45.67 579.229 45.0291C579.236 44.6133 579.211 44.2132 579.198 43.8068C579.192 43.4004 579.173 42.9971 579.148 42.6033C579.145 42.547 579.139 42.472 579.132 42.3782C579.132 42.2844 579.129 42.1719 579.126 42.0499C579.123 41.8061 579.114 41.5216 579.104 41.2403C579.098 41.0996 579.092 40.9589 579.086 40.8245C579.086 40.687 579.086 40.5557 579.082 40.4369C579.076 40.1993 579.067 40.0055 579.045 39.8961C578.795 39.9492 578.501 40.3275 578.338 40.515C578.117 40.7651 577.91 41.0465 577.735 41.3341C577.463 41.7873 577.213 42.275 577.004 42.7971C576.95 42.9284 576.9 43.0597 576.854 43.1941C576.813 43.3254 576.772 43.4598 576.735 43.5942C576.663 43.8662 576.6 44.1444 576.553 44.4289C576.528 44.5696 576.51 44.7103 576.491 44.8572C576.472 45.0041 576.457 45.151 576.453 45.2948C576.441 45.5887 576.444 45.8888 576.469 46.1889C576.497 46.4859 576.532 46.7922 576.616 47.0767C576.7 47.3612 576.81 47.6394 576.95 47.902C577.01 48.0145 577.076 48.1271 577.138 48.2365C577.291 48.5178 577.491 48.7742 577.701 49.018C577.913 49.2587 578.142 49.4838 578.395 49.6776L578.388 49.6714Z" fill="#1B1C1A"/>
<path d="M575.09 47.0079C575.09 47.0079 575.031 46.986 574.943 46.961C574.856 46.936 574.737 46.9016 574.615 46.8672C574.374 46.7985 574.121 46.7234 574.077 46.7078C573.774 46.5921 573.477 46.4733 573.208 46.3202C572.939 46.167 572.683 45.9825 572.436 45.7481C572.17 45.4917 571.904 45.2292 571.651 44.9509C571.407 44.6696 571.17 44.3789 570.939 44.0787C570.788 43.8849 570.642 43.6849 570.495 43.4817C570.354 43.2753 570.226 43.0659 570.098 42.8502C569.969 42.6376 569.841 42.4188 569.716 42.2C569.594 41.978 569.463 41.7592 569.357 41.531C569.232 41.2746 568.913 40.6182 568.606 39.9398C568.328 39.2583 568.069 38.5581 568 38.2673C568.241 38.2142 568.669 38.533 568.897 38.6675C569.207 38.8519 569.504 39.0676 569.791 39.2927C570.238 39.6491 570.723 40.0211 571.167 40.4212C571.392 40.6213 571.611 40.8245 571.823 41.0371C572.039 41.2465 572.261 41.4591 572.47 41.681C572.883 42.1156 573.277 42.5939 573.661 43.094C574.033 43.5942 574.327 44.135 574.546 44.704C574.59 44.829 574.63 44.9509 574.674 45.076C574.871 45.7043 575.049 46.3452 575.087 47.011L575.09 47.0079Z" fill="#1B1C1A"/>
<path d="M574.59 40.8464C574.59 40.8464 574.621 40.7964 574.668 40.7245C574.718 40.6557 574.784 40.5619 574.853 40.465C574.987 40.2743 575.144 40.0774 575.165 40.0398C575.503 39.5303 575.784 39.0676 575.938 38.4987C576.031 38.1892 576.122 37.8797 576.203 37.5702C576.288 37.2607 576.353 36.9575 576.435 36.6512C576.541 36.2541 576.632 35.8571 576.71 35.4632C576.744 35.2663 576.791 35.0693 576.838 34.8724C576.882 34.6755 576.922 34.4785 576.963 34.2816C576.985 34.1722 577.022 33.9752 577.069 33.7376C577.125 33.5 577.191 33.2187 577.257 32.9405C577.319 32.6591 577.379 32.3809 577.429 32.1527C577.485 31.9182 577.529 31.7244 577.538 31.615C577.307 31.5963 576.954 31.8839 576.76 32.0183C576.494 32.1996 576.263 32.4122 576.038 32.6435C575.684 33.0061 575.337 33.4094 575.022 33.8502C574.725 34.291 574.453 34.7724 574.221 35.2913L574.137 35.4851C574.112 35.5508 574.087 35.6164 574.065 35.6821C574.018 35.8165 573.971 35.9509 573.931 36.0916C573.846 36.3698 573.771 36.6574 573.715 36.9513C573.652 37.2451 573.64 37.5421 573.637 37.8422C573.637 38.1392 573.665 38.4393 573.721 38.73C573.743 38.8551 573.777 38.9801 573.812 39.1051C573.896 39.4146 573.999 39.721 574.124 40.0148C574.187 40.1618 574.256 40.3056 574.328 40.4462C574.406 40.5838 574.496 40.7182 574.587 40.8464H574.59Z" fill="#1B1C1A"/>
<path d="M572.296 37.342C572.296 37.342 572.249 37.3045 572.18 37.2576C572.108 37.2076 572.014 37.142 571.917 37.0732C571.723 36.9388 571.52 36.7919 571.486 36.7637C571.248 36.5637 571.026 36.3667 570.82 36.1416C570.72 36.0291 570.617 35.9134 570.529 35.7853C570.442 35.6571 570.36 35.5227 570.282 35.3757C569.951 34.738 569.629 34.0659 569.395 33.3657C569.313 33.1374 569.238 32.9061 569.166 32.6717C569.094 32.4372 569.023 32.2027 568.969 31.962C568.857 31.4837 568.757 30.9961 568.666 30.5053C568.616 30.2302 568.522 29.5174 568.435 28.7922C568.385 28.4295 568.375 28.0669 568.357 27.7574C568.344 27.4479 568.338 27.1916 568.347 27.0447C568.569 27.0572 568.857 27.473 569.019 27.6605C569.238 27.9169 569.438 28.2013 569.626 28.4952C570.26 29.4205 570.833 30.4271 571.345 31.5056C571.467 31.7713 571.58 32.0464 571.698 32.3278C571.82 32.6091 571.933 32.8967 572.03 33.1906C572.13 33.4813 572.199 33.7814 572.267 34.0784C572.339 34.3785 572.386 34.6786 572.402 34.9818C572.408 35.1131 572.411 35.2444 572.417 35.3757C572.417 35.704 572.442 36.0353 572.424 36.3636C572.408 36.6918 572.371 37.0201 572.302 37.342H572.296Z" fill="#1B1C1A"/>
<path d="M573.408 31.2961C573.408 31.2961 573.449 31.2555 573.508 31.2024C573.571 31.1492 573.652 31.0773 573.736 31.0023C573.905 30.8554 574.08 30.7084 574.112 30.6803C574.534 30.2802 574.909 29.9113 575.19 29.3986C575.337 29.1204 575.506 28.8453 575.659 28.5702C575.812 28.2951 575.959 28.0169 576.1 27.7386C576.294 27.3791 576.484 27.0165 576.659 26.6539C576.75 26.4726 576.825 26.2881 576.922 26.1068C577.013 25.9255 577.103 25.7442 577.194 25.5629C577.297 25.3597 577.535 24.8376 577.813 24.3312C577.947 24.0749 578.075 23.8216 578.179 23.6028C578.285 23.384 578.382 23.2089 578.422 23.1026C578.226 23.0276 577.838 23.2183 577.632 23.3027C577.36 23.4153 577.1 23.5653 576.838 23.731C576.631 23.8623 576.428 24.003 576.222 24.1561C576.018 24.3093 575.812 24.4687 575.625 24.6469C575.246 24.9971 574.874 25.3941 574.534 25.8349C574.221 26.2725 573.905 26.7664 573.649 27.3041C573.421 27.8449 573.239 28.4264 573.192 29.0203C573.189 29.1485 573.183 29.2767 573.18 29.4049C573.171 29.7268 573.18 30.0488 573.211 30.3677C573.224 30.5271 573.252 30.6834 573.286 30.8397C573.321 30.996 573.361 31.1492 573.408 31.2961Z" fill="#1B1C1A"/>
<path d="M572.324 27.301C572.324 27.301 572.292 27.2541 572.242 27.1885C572.189 27.1228 572.127 27.0321 572.061 26.9415C571.93 26.7602 571.792 26.5695 571.77 26.532C571.617 26.2788 571.48 26.0318 571.361 25.7629C571.248 25.4972 571.139 25.2096 571.092 24.8908C571.036 24.5438 570.989 24.1905 570.948 23.831C570.929 23.6528 570.911 23.4715 570.895 23.2902C570.883 23.1089 570.879 22.9276 570.873 22.7463C570.864 22.2742 570.867 21.7897 570.889 21.3051C570.929 20.8237 570.979 20.336 571.042 19.8484C571.064 19.5701 571.192 18.873 571.326 18.1697C571.361 17.9915 571.398 17.8164 571.43 17.6476C571.467 17.4788 571.511 17.3194 571.552 17.1724C571.63 16.8755 571.702 16.6347 571.755 16.4972C571.945 16.5628 572.07 17.0224 572.158 17.2381C572.274 17.5351 572.355 17.8477 572.449 18.1728C572.593 18.6886 572.718 19.2232 572.821 19.7671C572.874 20.0547 572.924 20.3329 572.971 20.6018C573.018 20.8831 573.058 21.1707 573.086 21.4583C573.133 22.021 573.215 22.6337 573.211 23.2402C573.202 23.8467 573.19 24.4656 573.046 25.0565C573.015 25.1846 572.983 25.3097 572.949 25.4378C572.877 25.7567 572.799 26.0787 572.693 26.3882C572.593 26.7008 572.458 27.004 572.327 27.2947L572.324 27.301Z" fill="#1B1C1A"/>
<path d="M574.928 21.7678C574.928 21.7678 574.975 21.7397 575.043 21.7022C575.112 21.6647 575.203 21.6178 575.3 21.5677C575.487 21.4677 575.684 21.3677 575.716 21.3489C575.947 21.2051 576.175 21.0676 576.391 20.9144C576.606 20.7612 576.813 20.5862 577.01 20.3736C577.116 20.2579 577.222 20.1422 577.325 20.0266C577.429 19.9109 577.544 19.7984 577.651 19.6827C577.866 19.4545 578.076 19.22 578.279 18.9856C578.345 18.9074 578.41 18.8324 578.476 18.7543C578.545 18.6792 578.613 18.6011 578.682 18.5261C578.817 18.3729 578.951 18.2197 579.082 18.0665C579.214 17.9133 579.342 17.757 579.467 17.5976C579.595 17.4413 579.736 17.2912 579.864 17.1381C579.939 17.0505 580.07 16.8974 580.23 16.7098C580.308 16.616 580.395 16.5128 580.486 16.4066C580.577 16.3003 580.68 16.1971 580.774 16.0877C580.97 15.872 581.161 15.6594 581.321 15.4719C581.399 15.3781 581.471 15.2937 581.53 15.2186C581.593 15.1467 581.646 15.0873 581.68 15.0405C581.53 14.9248 581.13 15.0217 580.936 15.0623C580.664 15.1124 580.389 15.1968 580.111 15.2968C579.892 15.3749 579.667 15.4656 579.442 15.5625C579.214 15.6594 579.004 15.7782 578.782 15.9001C578.563 16.0252 578.345 16.1596 578.123 16.3065C577.904 16.4534 577.682 16.6098 577.482 16.7879C577.279 16.9599 577.075 17.1474 576.869 17.3444C576.766 17.4444 576.666 17.5476 576.566 17.6539C576.516 17.7101 576.466 17.7633 576.419 17.8164C576.372 17.8758 576.328 17.9321 576.281 17.9884C576.103 18.2197 575.931 18.4635 575.778 18.7199C575.625 18.9762 575.484 19.2419 575.39 19.5233C575.35 19.6452 575.309 19.7671 575.268 19.889C575.168 20.1954 575.081 20.5049 575.015 20.8175C574.965 21.1332 574.934 21.4521 574.931 21.7616L574.928 21.7678Z" fill="#1B1C1A"/>
<path d="M575.124 17.682C575.124 17.682 575.112 17.6289 575.087 17.5538C575.062 17.4788 575.031 17.3788 574.996 17.2756C574.927 17.0693 574.871 16.8567 574.862 16.8161C574.746 16.2659 574.674 15.7438 574.752 15.103C574.809 14.7622 574.874 14.4184 574.946 14.0745C574.984 13.9025 575.021 13.7275 575.062 13.5524C575.102 13.3774 575.143 13.2023 575.199 13.0335C575.334 12.5896 575.487 12.1394 575.653 11.6893C575.731 11.4611 575.831 11.2454 575.928 11.0234C576.028 10.8015 576.128 10.5826 576.228 10.3638C576.287 10.2388 576.39 10.0168 576.515 9.74796C576.653 9.48537 576.819 9.17589 576.991 8.8664C577.163 8.55692 577.331 8.24431 577.491 7.98797C577.653 7.73476 577.794 7.52843 577.882 7.41589C578.028 7.51905 577.994 7.96609 578 8.18179C578 8.47564 577.994 8.7945 577.969 9.11649C577.932 9.62292 577.875 10.145 577.794 10.6764C577.728 11.2172 577.638 11.7705 577.51 12.3207C577.441 12.5896 577.391 12.8803 577.322 13.1648C577.253 13.4524 577.175 13.7431 577.081 14.0276C576.984 14.3121 576.897 14.6059 576.784 14.8873C576.672 15.1717 576.544 15.4468 576.394 15.7094L576.293 15.8782L576.203 16.0533C576.05 16.3409 575.881 16.6254 575.7 16.8974C575.609 17.0318 575.512 17.1662 575.415 17.2944C575.318 17.4257 575.224 17.5538 575.124 17.6789V17.682Z" fill="#1B1C1A"/>
<path d="M579.038 13.021C579.038 13.021 579.088 13.0053 579.16 12.9835C579.232 12.9647 579.329 12.9397 579.426 12.9116C579.623 12.8615 579.823 12.8084 579.86 12.7959C580.11 12.7146 580.342 12.6271 580.579 12.527C580.82 12.4301 581.055 12.3113 581.295 12.155C581.558 11.9862 581.808 11.808 582.067 11.6361C582.333 11.4673 582.593 11.2954 582.849 11.1172C583.015 11.0015 583.18 10.8858 583.343 10.7639C583.515 10.6451 583.68 10.5326 583.846 10.4169C584.184 10.1856 584.503 9.93864 584.837 9.70418C585.028 9.57601 585.515 9.24777 585.988 8.91015C586.478 8.59129 586.969 8.27555 587.147 8.1255C587.05 7.99108 586.666 8.00983 586.475 8.00358C586.216 7.9942 585.938 8.01609 585.653 8.05047C585.541 8.06298 585.428 8.07861 585.312 8.09736C585.2 8.11925 585.087 8.14113 584.975 8.16614C584.746 8.21616 584.515 8.27555 584.278 8.34433C584.04 8.4131 583.799 8.49125 583.555 8.57878C583.315 8.67257 583.08 8.78198 582.84 8.90077C582.371 9.13523 581.858 9.40407 581.398 9.7667C580.933 10.12 580.476 10.5201 580.132 11.0109C580.057 11.114 579.982 11.2203 579.907 11.3266C579.526 11.8456 579.235 12.4333 579.035 13.0147L579.038 13.021Z" fill="#1B1C1A"/>
<path d="M580.483 9.2384C580.483 9.2384 580.489 9.18839 580.489 9.11336C580.489 9.03833 580.495 8.9383 580.498 8.83514C580.504 8.63194 580.514 8.41624 580.517 8.3756C580.586 7.83791 580.695 7.35024 580.97 6.78129C581.045 6.62811 581.12 6.4718 581.202 6.32175C581.289 6.1717 581.377 6.02165 581.461 5.87472C581.639 5.57774 581.824 5.27763 582.017 4.98066C582.08 4.88375 582.143 4.78684 582.211 4.69305C582.28 4.59927 582.352 4.50861 582.421 4.41483C582.561 4.23039 582.705 4.04595 582.852 3.86151C582.999 3.67707 583.149 3.49263 583.302 3.31132C583.455 3.12688 583.621 2.9612 583.784 2.78613C583.877 2.68922 584.043 2.51416 584.243 2.30159C584.45 2.09214 584.681 1.83267 584.94 1.60134C585.45 1.1293 585.972 0.663513 586.2 0.491577C586.3 0.610369 586.131 1.00738 586.072 1.20433C585.988 1.47317 585.872 1.74827 585.747 2.02649C585.647 2.24532 585.541 2.46727 585.431 2.69235C585.325 2.92368 585.212 3.15814 585.094 3.3926C584.975 3.62705 584.85 3.86151 584.718 4.09597C584.653 4.21476 584.584 4.33043 584.515 4.44922C584.443 4.56488 584.381 4.69305 584.309 4.81185C584.171 5.04943 584.024 5.29639 583.868 5.54023C583.79 5.66215 583.709 5.78406 583.627 5.90598C583.543 6.0279 583.459 6.14982 583.377 6.27486C583.209 6.52495 583.03 6.76878 582.84 7.00324C582.743 7.11891 582.646 7.23457 582.543 7.34711C582.493 7.40338 582.439 7.45653 582.386 7.5128L582.23 7.67848C582.139 7.77226 582.049 7.86604 581.955 7.95983C581.724 8.19116 581.483 8.41624 581.233 8.62881C580.983 8.83826 580.745 9.05396 580.483 9.23528V9.2384Z" fill="#1B1C1A"/>
<path d="M585.731 5.52148C587.479 4.96191 588.926 3.90216 590.483 2.99872C592.049 2.12341 593.665 1.26373 595.047 0.00391536C594.081 -0.0273456 593.156 0.132085 592.23 0.357165C591.214 0.619757 590.202 0.988636 589.264 1.52945C587.751 2.46416 586.444 3.88028 585.734 5.52148H585.731Z" fill="#1B1C1A"/>
<path d="M608.418 60.8878L608.699 61.8663C609.159 63.4637 610.406 64.7142 612.007 65.1737L612.985 65.455L612.007 65.7364C610.409 66.1959 609.159 67.4432 608.699 69.0438L608.418 70.0223L608.136 69.0438C607.677 67.4464 606.43 66.1959 604.829 65.7364L603.851 65.455L604.829 65.1737C606.426 64.7142 607.677 63.4669 608.136 61.8663L608.418 60.8878Z" fill="#1B1C1A"/>
<defs>
<linearGradient id="paint0_linear_2390_525" x1="0" y1="0.5" x2="519" y2="0.5" gradientUnits="userSpaceOnUse">
<stop stop-color="#1B1C1A"/>
<stop offset="1" stop-color="white"/>
</linearGradient>
<linearGradient id="paint1_linear_2390_525" x1="697" y1="35.5" x2="1216" y2="35.5" gradientUnits="userSpaceOnUse">
<stop stop-color="#1B1C1A"/>
<stop offset="1" stop-color="#F1EEEC"/>
</linearGradient>
</defs>
</svg>
