<svg width="1046" height="663" viewBox="0 0 1046 663" fill="none" xmlns="http://www.w3.org/2000/svg">
<circle cx="523" cy="332.001" r="397.198" stroke="#3A384A" stroke-opacity="0.3"/>
<circle cx="523" cy="332" r="522.5" stroke="#3A384A" stroke-opacity="0.2"/>
<circle cx="523" cy="332.001" r="303.221" stroke="#3A384A" stroke-opacity="0.5"/>
<path d="M219.279 58.2422L220.201 61.6022C221.704 67.0872 225.804 71.3698 231.047 72.9403L234.26 73.9049L231.047 74.8696C225.8 76.4401 221.704 80.7274 220.201 86.2077L219.279 89.5677L218.356 86.2077C216.854 80.7227 212.753 76.4401 207.511 74.8696L204.297 73.9049L207.511 72.9403C212.757 71.3698 216.854 67.0825 218.356 61.6022L219.279 58.2422Z" fill="#1E1F1D"/>
<path d="M204.297 554.002L205.22 557.216C206.722 562.462 210.823 566.559 216.065 568.061L219.279 568.984L216.065 569.906C210.819 571.409 206.722 575.51 205.22 580.752L204.297 583.965L203.374 580.752C201.872 575.505 197.771 571.409 192.529 569.906L189.315 568.984L192.529 568.061C197.776 566.559 201.872 562.458 203.374 557.216L204.297 554.002Z" fill="#1E1F1D"/>
<path d="M831.487 567.623L832.452 570.983C834.022 576.468 838.309 580.751 843.79 582.321L847.15 583.286L843.79 584.25C838.305 585.821 834.022 590.108 832.452 595.589L831.487 598.949L830.522 595.589C828.952 590.104 824.665 585.821 819.184 584.25L815.824 583.286L819.184 582.321C824.669 580.751 828.952 576.463 830.522 570.983L831.487 567.623Z" fill="#1E1F1D"/>
<path d="M1003.66 110L1004.63 113.36C1006.2 118.845 1010.49 123.128 1015.97 124.698L1019.33 125.663L1015.97 126.627C1010.48 128.198 1006.2 132.485 1004.63 137.966L1003.66 141.326L1002.7 137.966C1001.13 132.481 996.84 128.198 991.36 126.627L988 125.663L991.36 124.698C996.845 123.128 1001.13 118.84 1002.7 113.36L1003.66 110Z" fill="#1E1F1D"/>
</svg>
