<svg preserveAspectRatio="none" width="100%" height="100%" overflow="visible" style="display: block;" viewBox="0 0 21 19" fill="none" xmlns="http://www.w3.org/2000/svg">
<g id="6-Check">
<path id="Vector" d="M9.57842 18.4986C9.5149 18.4986 9.45206 18.4855 9.39386 18.46C9.33567 18.4346 9.28337 18.3973 9.24025 18.3507L0.122353 8.48773C0.0615703 8.42198 0.0212755 8.33993 0.00639974 8.25163C-0.008476 8.16333 0.00271253 8.07261 0.0385961 7.99057C0.0744797 7.90853 0.133502 7.83874 0.208439 7.78972C0.283375 7.7407 0.370976 7.7146 0.46052 7.7146H4.84937C4.91527 7.71461 4.9804 7.72875 5.04036 7.75607C5.10033 7.78339 5.15373 7.82325 5.19698 7.87297L8.24422 11.3787C8.57354 10.6747 9.21106 9.5026 10.3298 8.07432C11.9836 5.96278 15.0599 2.85738 20.323 0.0540429C20.4247 -0.000128284 20.5431 -0.0141879 20.6547 0.0146406C20.7663 0.043469 20.863 0.11309 20.9257 0.209755C20.9885 0.306421 21.0127 0.423105 20.9936 0.536766C20.9746 0.650428 20.9136 0.752804 20.8227 0.823681C20.8026 0.839385 18.7733 2.43743 16.4379 5.36451C14.2885 8.05815 11.4313 12.4627 10.0253 18.1488C10.0006 18.2487 9.94318 18.3375 9.86215 18.4009C9.78113 18.4644 9.68119 18.4988 9.57828 18.4988L9.57842 18.4986Z" fill="url(#paint0_linear_2428_94)"/>
</g>
<defs>
<linearGradient id="paint0_linear_2428_94" x1="-6.5" y1="20" x2="17.2486" y2="-2.82627" gradientUnits="userSpaceOnUse">
<stop stop-color="#BF966E"/>
<stop offset="0.15" stop-color="#C39C76"/>
<stop offset="0.39" stop-color="#D0AC8E"/>
<stop offset="0.7" stop-color="#E5C8B4"/>
<stop offset="1" stop-color="#FFE9E2"/>
</linearGradient>
</defs>
</svg>
